<?xml version="1.0" standalone="no"?>
<!DOCTYPE svg PUBLIC "-//W3C//DTD SVG 1.1//EN" "http://www.w3.org/Graphics/SVG/1.1/DTD/svg11.dtd" >
<svg xmlns="http://www.w3.org/2000/svg">
<metadata></metadata>
<defs>
<font id="skiaregular" horiz-adv-x="1200" >
<font-face units-per-em="2048" ascent="1624" descent="-424" />
<missing-glyph horiz-adv-x="512" />
<glyph unicode="&#xfb01;" horiz-adv-x="1238" d="M51 895v117h196v49q0 88 22.5 157.5t80.5 130.5q50 52 134 85t205 33h26h21l19 -128h-19h-24q-94 0 -148 -17t-97 -58q-33 -31 -50.5 -85.5t-17.5 -121.5v-45q5 0 110 -0.5t199 -0.5q92 0 217 0.5t131 0.5q-2 -198 -3.5 -325t-1.5 -221q0 -245 2.5 -347.5t2.5 -118.5 h-158q0 16 2 116.5t2 341.5v184t-2 255q-7 0 -104.5 0.5t-153.5 0.5q-63 0 -149 -0.5t-94 -0.5q0 -325 1.5 -603t1.5 -294h-159q0 16 2 281.5t2 615.5zM897 1206v172h176v-172h-176z" />
<glyph unicode="&#xfb02;" horiz-adv-x="1270" d="M51 895v117h197v49q0 88 22.5 157.5t80.5 130.5q50 52 133.5 85t204.5 33h25h19l19 -128h-17h-23q-94 0 -148 -17t-97 -58q-33 -31 -50.5 -85.5t-17.5 -121.5v-45h350v-115h-350q0 -325 1.5 -603t1.5 -294h-158q0 16 1.5 281.5t2.5 615.5zM919 0q1 12 2.5 292.5 t1.5 465.5q0 119 -0.5 300.5t-3.5 407.5h158q-2 -154 -3 -356.5t-1 -341.5q0 -303 2 -530t2 -238h-158z" />
<glyph unicode="&#xfb03;" horiz-adv-x="1895" d="M51 895v117h197v49q0 88 23 157.5t81 130.5q50 52 133 85t204 33h30.5h23.5l19 -128h-22h-28q-94 0 -148 -17t-97 -58q-33 -31 -50.5 -85.5t-17.5 -121.5v-45q16 0 92 -0.5t160 -0.5q65 0 146 0.5t105 0.5v49q0 88 22.5 157.5t80.5 130.5q50 52 134 85t205 33h26.5h20.5 l19 -128h-18.5h-24.5q-94 0 -148 -17t-97 -58q-33 -31 -50.5 -85.5t-17.5 -121.5v-45q12 0 113.5 -0.5t195.5 -0.5q92 0 213 0.5t135 0.5q-2 -198 -3.5 -325t-1.5 -221q0 -245 2.5 -347.5t2.5 -118.5h-158q0 16 2 116.5t2 341.5v184t-2 255q-16 0 -109 0.5t-149 0.5 q-63 0 -147 -0.5t-96 -0.5q0 -325 1.5 -603t1.5 -294h-159q0 16 2 281.5t2 615.5q-14 0 -107.5 0.5t-139.5 0.5q-66 0 -155 -0.5t-101 -0.5q0 -325 1.5 -603t1.5 -294h-158q0 16 2 281.5t2 615.5zM1553 1206v172h176v-172h-176z" />
<glyph unicode="&#xfb04;" horiz-adv-x="1924" d="M51 895v117h197v49q0 88 23 157.5t81 130.5q50 52 133 85t204 33h30.5h23.5l19 -128h-22h-28q-94 0 -148 -17t-97 -58q-33 -31 -50.5 -85.5t-17.5 -121.5v-45q12 0 90 -0.5t162 -0.5q65 0 151 0.5t100 0.5v49q0 88 22.5 157.5t80.5 130.5q50 52 134 85t205 33h26.5h20.5 l19 -128h-18.5h-24.5q-94 0 -148 -17t-97 -58q-33 -31 -50.5 -85.5t-17.5 -121.5v-45q10 0 134 -1.5t215 1.5v-115q-80 1 -205.5 0.5t-143.5 -0.5q0 -325 1.5 -603t1.5 -294h-159q0 16 2 281.5t2 615.5q-10 0 -105.5 0.5t-141.5 0.5q-66 0 -156 -0.5t-100 -0.5 q0 -325 1.5 -603t1.5 -294h-158q0 16 2 281.5t2 615.5zM1573 0q0 16 2 198.5t2 539.5q0 119 -0.5 310.5t-3.5 417.5h158q-2 -162 -3 -345t-1 -373q0 -308 2 -520t2 -228h-158z" />
<glyph horiz-adv-x="0" />
<glyph horiz-adv-x="0" />
<glyph unicode="&#xa;" horiz-adv-x="512" />
<glyph unicode="&#xd;" horiz-adv-x="512" />
<glyph unicode=" "  horiz-adv-x="512" />
<glyph unicode="&#x09;" horiz-adv-x="512" />
<glyph unicode="&#xa0;" horiz-adv-x="512" />
<glyph unicode="!" horiz-adv-x="950" d="M389 0v201h193v-201h-193zM399 1339h172q-6 -529 -10.5 -695.5l-5.5 -203.5h-139q-1 37 -6 203.5t-11 695.5z" />
<glyph unicode="&#x22;" horiz-adv-x="760" d="M144 1422h149l-18 -497h-115zM470 1422h149l-18 -497h-115z" />
<glyph unicode="#" horiz-adv-x="1800" d="M308 331v114h313q25 77 44.5 130.5t44.5 135.5h-278v114h314q46 139 78.5 239t35.5 109l95 -35q-3 -10 -34.5 -103t-70.5 -210h262q45 133 78 236t36 112l95 -35q-3 -10 -34.5 -103t-70.5 -210h278v-114h-314q-18 -55 -44 -133t-45 -133h280v-114h-315 q-49 -149 -82 -251.5t-35 -109.5l-95 39q4 11 35 105t72 217h-261q-50 -152 -82 -252.5t-35 -108.5l-95 39q3 8 35 104t72 218h-277zM725 445h262q25 77 44.5 130.5t44.5 135.5h-262q-18 -55 -44 -133t-45 -133z" />
<glyph unicode="$" d="M222 961q0 91 40 159.5t102 115.5q64 50 168 77t214 33q25 2 32.5 2t27.5 1l-4 269h125q-1 -48 -2 -91t-1 -83q0 -79 1 -149.5t1 -83.5h-31.5h-75.5q-106 0 -195 -16t-136 -47q-39 -24 -68 -63.5t-29 -95.5q0 -58 35 -99t105 -77q47 -25 127 -54.5t154 -65.5 q98 -48 149.5 -120t51.5 -171q0 -101 -49 -181t-130 -130q-73 -46 -184.5 -71.5t-222.5 -30.5q-20 0 -34 -1t-34 -1l4 -352h-125q1 48 2.5 121.5t1.5 108.5q-1 88 -2 154.5t-1 104.5h25h70q137 0 228 14.5t159 49.5q70 38 96.5 80t26.5 95q0 60 -30 105.5t-106 82.5 q-46 23 -142.5 59t-154.5 68q-95 52 -142 119.5t-47 163.5z" />
<glyph unicode="%" horiz-adv-x="2048" d="M107 946q0 81 20 172.5t76 156.5q46 54 105.5 78t140.5 24q82 0 141.5 -24.5t105.5 -77.5q53 -59 75 -157t22 -171q0 -70 -23 -172t-73 -158q-51 -56 -110 -79.5t-138 -23.5q-83 0 -141.5 25.5t-105.5 77.5q-54 63 -74.5 159.5t-20.5 169.5zM241 947q0 -51 12 -119.5 t41 -121.5q24 -42 58 -64.5t97 -22.5q58 0 95 24t59 63q27 49 40 115t13 125q0 46 -13 117.5t-40 119.5q-25 44 -59 66.5t-95 22.5q-59 0 -94.5 -23t-60.5 -66q-30 -52 -41.5 -117t-11.5 -119zM523 29q15 21 132 199t288 442q99 153 226.5 350.5t235.5 368.5l97 -70 q-110 -162 -238 -358.5t-228 -349.5q-173 -267 -286 -446.5t-130 -206.5zM1239 414q0 81 20 172.5t76 156.5q46 54 105.5 78t140.5 24q82 0 141.5 -24.5t105.5 -77.5q53 -59 75 -157t22 -171q0 -70 -23 -172t-73 -158q-51 -56 -110 -79.5t-138 -23.5q-83 0 -141.5 25.5 t-105.5 77.5q-54 63 -74.5 159.5t-20.5 169.5zM1373 415q0 -51 12 -119.5t41 -121.5q24 -42 58 -64.5t97 -22.5q58 0 95 24t59 63q27 49 40 115t13 125q0 46 -13 117.5t-40 119.5q-25 44 -59 66.5t-95 22.5q-59 0 -94.5 -23t-60.5 -66q-30 -52 -41.5 -117t-11.5 -119z" />
<glyph unicode="&#x26;" horiz-adv-x="1497" d="M139 344q0 117 70 222.5t171 183.5v2q-76 62 -114.5 132t-38.5 154q0 145 123.5 241.5t278.5 96.5q176 0 285.5 -91t109.5 -244q0 -107 -61.5 -205.5t-193.5 -211.5v-2q64 -52 145.5 -115.5t110.5 -86.5h2q102 137 187 275.5t92 149.5l123 -80q-16 -24 -121 -173.5 t-180 -245.5v-2l335 -247l-86 -116l-330 252h-2q-128 -143 -238 -203.5t-240 -60.5q-185 0 -306.5 102t-121.5 273zM304 345q0 -112 78 -178t189 -66q115 0 203.5 55.5t167.5 149.5v2q-86 67 -209 163t-258 204h-2q-107 -102 -138 -175t-31 -155zM386 1039q0 -77 72.5 -154 t217.5 -188h2q107 89 148 167t41 161q0 102 -64.5 163.5t-175.5 61.5q-102 0 -171.5 -59t-69.5 -152z" />
<glyph unicode="'" horiz-adv-x="430" d="M141 1422h149l-18 -497h-115z" />
<glyph unicode="(" horiz-adv-x="850" d="M123 433q0 152 49 295.5t131 265.5q88 129 219 234.5t251 158.5l52 -105q-121 -58 -226.5 -148.5t-179.5 -202.5q-66 -100 -106.5 -227t-40.5 -261q0 -148 46 -275t124 -226q69 -88 177.5 -159.5t205.5 -103.5l-52 -110q-114 30 -235.5 108.5t-210.5 187.5 q-92 113 -148 256.5t-56 311.5z" />
<glyph unicode=")" horiz-adv-x="850" d="M25 -328q116 56 225.5 148.5t180.5 202.5q70 110 108.5 233.5t38.5 254.5q0 149 -46 276t-124 225q-71 90 -177.5 160t-205.5 103l52 111q113 -30 235 -109t211 -188q93 -115 148.5 -256t55.5 -312q0 -150 -50 -297.5t-130 -263.5q-92 -133 -221.5 -237.5t-248.5 -154.5z " />
<glyph unicode="*" horiz-adv-x="744" d="M64 997v147l223 -15v-117zM297 764l15 223h121l15 -223h-151zM297 1376h151l-15 -222h-121zM458 1012v117l222 15v-147z" />
<glyph unicode="+" horiz-adv-x="1800" d="M368 519v117h473v473h116v-473h475v-117h-475v-475h-116v475h-473z" />
<glyph unicode="," horiz-adv-x="600" d="M87 -254q9 17 80 172.5t146 345.5l139 -64v-8l-260 -493z" />
<glyph unicode="-" horiz-adv-x="728" d="M78 626v136l100.5 -0.5t184.5 -0.5t186 0.5l102 0.5v-136l-102 0.5t-186 0.5t-184.5 -0.5z" />
<glyph unicode="." horiz-adv-x="600" d="M200 0v213h201v-213h-201z" />
<glyph unicode="/" horiz-adv-x="683" d="M-52 -382q17 45 112.5 305.5t218.5 600.5q66 185 154.5 427.5t155.5 434.5l127 -46q-66 -172 -161.5 -430t-155.5 -422q-125 -343 -217.5 -611t-106.5 -306z" />
<glyph unicode="0" d="M110 667q0 160 38.5 311t100.5 231q65 84 149 125.5t202 41.5q116 0 200 -41t151 -126q64 -81 101.5 -230t37.5 -310q0 -144 -34.5 -298t-104.5 -243q-69 -86 -149 -126.5t-202 -40.5q-118 0 -201 41t-150 126q-57 73 -98 217t-41 322zM277 669q0 -86 16.5 -207.5 t59.5 -210.5q37 -76 95 -117t152 -41q88 0 149.5 41.5t97.5 116.5q44 91 60 205t16 211q0 122 -20 233t-56 186q-37 75 -96 116.5t-151 41.5q-91 0 -150.5 -42t-96.5 -116q-45 -90 -60.5 -207.5t-15.5 -209.5z" />
<glyph unicode="1" d="M182 1055q124 86 285.5 202t174.5 125l128 -86q-2 -154 -3 -356.5t-1 -242.5q0 -110 2.5 -396t2.5 -301h-165q0 17 2.5 182t2.5 464v219t-2 335l-3 1q-29 -17 -134.5 -90.5t-225.5 -151.5z" />
<glyph unicode="2" d="M103 120q103 49 238.5 144t219.5 174q120 117 170 209.5t50 194.5q0 108 -41.5 176t-111.5 112q-73 46 -169.5 66t-212.5 20h-44.5h-33.5l14 140q15 0 36.5 0.5t53.5 0.5q142 0 259.5 -27.5t205.5 -80.5q112 -67 164.5 -164.5t52.5 -228.5q0 -116 -56.5 -227.5 t-163.5 -211.5q-106 -98 -207 -169.5t-177 -115.5l2 -5q55 5 142 6.5t168 2.5q122 2 288 3.5t183 1.5v-139q-13 0 -189 0.5t-285 0.5q-127 0 -314 -0.5t-204 -0.5z" />
<glyph unicode="3" d="M141 117q15 0 53 -1t62 -1q110 1 225 14t182 38q99 36 151 92t52 140q0 68 -47.5 116.5t-121.5 74.5q-52 18 -114 22.5t-120 4.5q-34 0 -57 -1.5t-46 -2.5l-22 122q30 4 96 12t121 25q108 34 163 85.5t55 128.5q0 75 -40 117t-121 74q-48 18 -139 29t-168 11h-54.5h-37.5 l24 141h23.5h28.5q116 0 228 -11.5t215 -55.5q88 -37 149.5 -105t61.5 -168q0 -106 -69 -184t-196 -120v-9q164 -16 261 -92.5t97 -204.5q0 -102 -57 -189t-169 -145q-94 -48 -241 -71.5t-306 -23.5q-25 0 -52.5 1t-43.5 1z" />
<glyph unicode="4" d="M44 621q227 255 438.5 495.5t230.5 263.5l128 -74q-4 -172 -4 -415.5v-271.5q20 0 135 1t215 3v-132q-121 2 -203.5 2.5t-146.5 0.5q-2 -195 0 -336.5t2 -157.5h-158q0 16 1.5 166t3.5 328l-571 -3zM204 621l1 -2q18 0 74.5 -0.5t157.5 -0.5h105t144 1v264.5t2 294.5 l-2 1z" />
<glyph unicode="5" d="M180 117q15 0 37.5 1t47.5 2q120 5 242.5 24t188.5 53q74 38 111 88.5t37 131.5q0 72 -43 123.5t-138 83.5q-58 19 -161 28t-244 9q0 18 0.5 157t0.5 189q0 74 -0.5 193t-0.5 136q13 0 152.5 -0.5t261.5 -0.5q96 0 228.5 0.5t146.5 0.5v-139q-18 0 -236 2t-401 2v-408 q111 -3 222.5 -20t182.5 -49q104 -47 153.5 -121.5t49.5 -175.5q0 -107 -60 -195t-172 -148q-84 -43 -212 -69.5t-273 -31.5q-23 -1 -56.5 -2t-46.5 -1z" />
<glyph unicode="6" d="M109 424q0 113 49 227.5t174 267.5q102 121 221 248t201 218l109 -97q-13 -13 -153 -160t-193 -202v-2q65 -12 151.5 -33t175.5 -70q122 -67 188.5 -163.5t66.5 -222.5q0 -100 -39.5 -188.5t-103.5 -148.5q-69 -66 -156.5 -101.5t-193.5 -35.5q-104 0 -197.5 32.5 t-168.5 103.5q-59 56 -95 138.5t-36 188.5zM277 428q0 -78 28 -143.5t71 -106.5q46 -43 105 -64t125 -21q70 0 131 23t101 65q47 48 70 110.5t23 133.5q0 88 -52 168t-172 139q-59 30 -146 49t-129 22q-76 -80 -115.5 -175t-39.5 -200z" />
<glyph unicode="7" d="M112 1196v140q13 0 135.5 -1t305.5 -1q117 0 283 1t188 1l78 -112q-240 -445 -453 -847t-224 -423l-139 61q222 399 408.5 757.5t218.5 425.5l-1 2h-115.5h-114.5q-174 0 -359 -2t-211 -2z" />
<glyph unicode="8" d="M117 347q0 93 61 181.5t195 181.5v2q-114 62 -162.5 133.5t-48.5 173.5q0 153 130 255t310 102q199 0 322.5 -98.5t123.5 -249.5q0 -89 -55 -175.5t-163 -164.5v-2q129 -62 191.5 -138.5t62.5 -190.5q0 -171 -141 -283.5t-341 -112.5q-204 0 -344.5 104.5t-140.5 281.5z M284 349q0 -113 97.5 -185t216.5 -72q139 0 229 63t90 186q0 67 -40 122t-120 98q-41 21 -116 50t-148 52q-74 -50 -141.5 -128t-67.5 -186zM329 1017q0 -66 41 -113t101 -79q44 -23 101.5 -45t135.5 -46q100 72 136.5 134.5t36.5 128.5q0 109 -75 178.5t-203 69.5 q-116 0 -195 -62t-79 -166z" />
<glyph unicode="9" d="M100 906q0 98 38 180.5t98 145.5q65 67 161 105.5t201 38.5q108 0 202 -32t162 -100q58 -58 93 -139.5t35 -188.5q0 -124 -45.5 -229.5t-134.5 -217.5q-82 -103 -263.5 -299t-201.5 -217l-109 96q83 84 180 187.5t168 175.5l-1 2q-103 14 -204.5 47.5t-183.5 89.5 q-107 74 -151 164.5t-44 190.5zM268 916q0 -97 53 -174.5t156 -129.5q60 -31 143 -51.5t147 -26.5q81 91 118 180.5t37 194.5q0 74 -26.5 139t-70.5 110q-40 40 -103.5 63t-127.5 23q-69 0 -131 -24.5t-104 -66.5q-42 -43 -66.5 -105t-24.5 -132z" />
<glyph unicode=":" horiz-adv-x="655" d="M227 0v213h201v-213h-201zM227 797v213h201v-213h-201z" />
<glyph unicode=";" horiz-adv-x="655" d="M105 -220q12 22 77.5 166t134.5 318l139 -64v-8l-246 -459zM238 797v213h200v-213h-200z" />
<glyph unicode="&#x3c;" horiz-adv-x="1800" d="M392 523v108l938 443l51 -112l-832 -382v-4l832 -381l-51 -110z" />
<glyph unicode="=" horiz-adv-x="1800" d="M378 343v117h1044v-117h-1044zM378 703v117h1044v-117h-1044z" />
<glyph unicode="&#x3e;" horiz-adv-x="1800" d="M419 195l832 381v4l-832 382l51 112l938 -443v-108l-938 -438z" />
<glyph unicode="?" horiz-adv-x="1143" d="M315 1206l19 143q4 0 39 0.5t67 0.5q94 0 171.5 -12.5t152.5 -47.5q95 -44 153 -120.5t58 -190.5q0 -91 -41.5 -162t-109.5 -125q-66 -51 -145.5 -94.5t-137.5 -75.5l2 -190h-148v270q54 25 139 64.5t133 75.5q75 56 108 107.5t33 119.5q0 93 -54 143.5t-147 72.5 q-70 17 -144 19t-148 2zM383 0v201h192v-201h-192z" />
<glyph unicode="@" horiz-adv-x="1842" d="M126 505q0 332 232.5 551t568.5 219q351 0 572.5 -189t221.5 -512q0 -238 -171 -400.5t-456 -162.5q-85 0 -188 13.5t-159 39.5q-66 31 -111.5 86t-45.5 137q0 89 53 147t139 94q78 33 178 47.5t177 20.5q-5 63 -33.5 102.5t-80.5 61.5q-37 16 -81 22t-108 6 q-35 0 -65.5 -2t-77.5 -4l14 125q11 1 52.5 3.5t107.5 2.5q104 0 181 -21t131 -70q52 -47 76 -118t24 -185v-217v-171q136 24 226.5 148.5t90.5 297.5q0 257 -182.5 416.5t-481.5 159.5q-301 0 -486 -192t-185 -465q0 -317 222 -517t567 -227l-12 -117q-408 32 -659 267 t-251 603zM740 294q0 -57 30 -91.5t81 -51.5q48 -16 96.5 -23.5t99.5 -7.5q18 0 48 0.5t42 1.5q0 16 0.5 66.5t0.5 125.5v70t-1 98q-51 -2 -133 -14.5t-147 -37.5q-39 -15 -78 -49.5t-39 -86.5z" />
<glyph unicode="A" horiz-adv-x="1358" d="M16 45q26 52 214.5 458.5t391.5 854.5h130q200 -448 393 -868t201 -437l-156 -80q-4 11 -62.5 149t-154.5 355h-598q-105 -233 -162 -361t-63 -143zM430 605l1 -1h484l1 1q-54 122 -114 255t-126 278h-4q-51 -110 -123 -270.5t-119 -262.5z" />
<glyph unicode="B" horiz-adv-x="1308" d="M233 5q3 192 4 362.5t1 325.5q0 294 -2.5 465.5t-2.5 178.5q14 1 110.5 5t187.5 4q103 0 190 -13.5t147 -37.5q91 -36 143 -103.5t52 -165.5q0 -103 -65.5 -182.5t-149.5 -108.5v-10q69 -6 134 -32.5t114 -75.5q43 -43 65 -95t22 -128q0 -100 -51.5 -180t-149.5 -131 q-87 -45 -191 -65.5t-238 -20.5q-99 0 -203.5 3.5t-116.5 4.5zM394 664q0 -172 1.5 -345.5t1.5 -185.5q20 -1 53.5 -2.5t64.5 -1.5q115 0 213.5 12t166.5 50q56 31 86.5 81t30.5 117q0 51 -18 91.5t-54 77.5q-34 34 -93.5 55t-129.5 21q-56 0 -90.5 -1t-45.5 -1l-16 120 q74 2 130.5 17.5t100.5 46.5q42 30 69 76.5t27 104.5q0 61 -30 105.5t-82 70.5q-44 21 -108 31.5t-137 10.5q-47 0 -86.5 -1.5t-50.5 -1.5q-3 -146 -3.5 -310t-0.5 -238z" />
<glyph unicode="C" horiz-adv-x="1182" d="M141 674q0 130 49 237.5t128 187.5q115 116 309 184t415 68h25h20q1 -18 4 -57.5t7 -85.5h-17h-17q-125 0 -259 -27.5t-231 -82.5q-126 -72 -194 -184.5t-68 -242.5q0 -135 61 -245.5t193 -185.5q108 -62 241.5 -90t265.5 -28h19t28 1q-1 -9 -5.5 -50.5t-8.5 -90.5h-17.5 h-17.5q-244 0 -434 61.5t-312 178.5q-85 81 -134.5 194t-49.5 258z" />
<glyph unicode="D" horiz-adv-x="1497" d="M233 -2q0 5 2.5 230.5t2.5 427.5q0 107 -0.5 275t-4.5 408q10 0 91.5 1t87.5 1q207 0 367.5 -37t286.5 -117q146 -93 217 -223.5t71 -301.5q0 -176 -86.5 -309t-224.5 -214q-120 -71 -267.5 -108t-331.5 -37q-70 0 -137 2t-74 2zM395 780q0 -44 0.5 -205.5t1.5 -447.5 h25.5h25.5q130 0 261 30.5t221 84.5q114 68 183.5 172.5t69.5 248.5q0 130 -56 236t-177 182q-113 71 -250.5 99t-249.5 28h-31h-21q-2 -158 -2.5 -262t-0.5 -166z" />
<glyph unicode="E" horiz-adv-x="1237" d="M233 2q2 58 3.5 251t1.5 399q0 113 -1 299t-4 385q71 0 177.5 -1t219.5 -1q191 0 311 1t130 1v-139q-10 0 -125.5 1.5t-287.5 1.5q-75 0 -147 -0.5t-114 -0.5q0 -113 -2 -225.5t-2 -212.5q45 0 106.5 -0.5t109.5 -0.5q176 0 314.5 1.5t147.5 1.5v-138q-8 0 -165 1.5 t-287 1.5q-48 0 -114.5 -0.5t-111.5 -0.5q0 -189 1 -300t2 -186q59 -1 143 -1.5t181 -0.5q149 0 250.5 1t113.5 1v-139q-9 0 -133 1t-307 1q-127 0 -232.5 -1t-178.5 -1z" />
<glyph unicode="F" horiz-adv-x="1167" d="M233 0q2 60 3.5 213.5t1.5 441.5q0 113 -1 298t-4 383q73 0 178.5 -1t222.5 -1q175 0 289 1t130 1v-139q-17 0 -131 1.5t-280 1.5q-75 0 -137.5 -0.5t-106.5 -0.5q0 -113 -2 -245t-2 -232q12 0 69 -0.5t109 -0.5q164 0 309.5 1.5t161.5 1.5v-138q-19 0 -184.5 1.5 t-296.5 1.5q-41 0 -98 -0.5t-70 -0.5q0 -177 1.5 -334.5t2.5 -253.5h-165z" />
<glyph unicode="G" horiz-adv-x="1410" d="M141 674q0 182 96.5 325.5t265.5 231.5q115 60 261.5 90.5t305.5 30.5q25 0 46.5 -0.5t38.5 -0.5l12 -144q-4 0 -32 0.5t-45 0.5q-153 0 -280 -26t-222 -76q-129 -68 -202.5 -185t-73.5 -249q0 -167 76.5 -276.5t197.5 -171.5q108 -55 228.5 -77.5t248.5 -22.5 q0 16 -1 155.5t-4 408.5h165q-2 -72 -4 -168.5t-2 -159.5q0 -101 2 -225.5t2 -138.5q-9 -1 -60 -4.5t-99 -3.5q-238 0 -420.5 51t-316.5 178q-83 78 -133.5 193.5t-50.5 263.5z" />
<glyph unicode="H" horiz-adv-x="1599" d="M233 0q1 60 3 213t2 517q0 110 -1.5 268t-3.5 341h165q0 -152 -2 -298.5t-2 -278.5q12 0 130.5 -0.5t258.5 -0.5q108 0 260 0.5t162 0.5q0 132 -2 278t-2 299h165q-2 -151 -3.5 -349t-1.5 -323q0 -294 2 -450.5t3 -216.5h-165q1 60 2.5 221.5t1.5 402.5q-15 0 -178 0.5 t-245 0.5q-99 0 -237.5 -0.5t-150.5 -0.5q0 -278 1.5 -421t2.5 -203h-165z" />
<glyph unicode="I" horiz-adv-x="635" d="M235 0q1 60 3 214t2 442q0 114 -1 299t-4 384h165q-2 -143 -3.5 -332.5t-1.5 -309.5q0 -304 2 -470.5t3 -226.5h-165z" />
<glyph unicode="J" horiz-adv-x="770" d="M35 114q110 13 175.5 31.5t110.5 60.5q44 41 63 100.5t19 154.5q0 103 0.5 202.5t0.5 187.5q0 213 -2 311t-3 177h165q0 -79 -1.5 -170t-1.5 -284v-211v-234q0 -86 -21 -161t-74 -135q-54 -62 -152.5 -107t-258.5 -60z" />
<glyph unicode="K" horiz-adv-x="1292" d="M233 0q2 60 3.5 264t1.5 491q0 117 -1.5 271t-3.5 313h165q-2 -153 -3 -346t-1 -333q0 -288 1.5 -444t2.5 -216h-165zM435 645v4q62 62 265.5 273t406.5 432l113 -101q-172 -165 -353 -351.5t-228 -234.5v-2q23 -22 197.5 -182.5t428.5 -390.5l-115 -110 q-239 232 -461 433t-254 230z" />
<glyph unicode="L" horiz-adv-x="1104" d="M233 2q2 172 3.5 348.5t1.5 346.5q0 284 -2 433t-3 209h165q-2 -129 -3 -298t-1 -277q0 -263 1 -439t1 -186q41 0 99 -0.5t105 -0.5q179 0 311.5 1.5t141.5 1.5v-139q-12 0 -126.5 1t-292.5 1q-117 0 -222.5 -1t-178.5 -1z" />
<glyph unicode="M" horiz-adv-x="1939" d="M94 18q100 431 187 854t95 459l159 23q10 -23 141.5 -322t309.5 -689h6q136 306 288 652t158 359l151 -12q3 -22 83 -438.5t177 -883.5l-163 -32l-206 1123h-2q-39 -81 -173 -376t-261 -592h-138q-119 275 -263 594.5t-169 372.5h-2q-6 -26 -81 -382.5t-143 -737.5z" />
<glyph unicode="N" horiz-adv-x="1618" d="M233 0q1 25 3 178t2 426q0 109 -1 289.5t-4 382.5l152 72q18 -23 306.5 -389t543.5 -680l2 1q0 154 -4 518.5t-4 540.5h156q-2 -157 -3.5 -359t-1.5 -291q0 -284 2 -451.5t2 -178.5l-133 -65q-302 408 -564.5 736.5t-303.5 379.5l-2 -1q0 -268 3.5 -658.5t4.5 -450.5 h-156z" />
<glyph unicode="O" horiz-adv-x="1548" d="M123 671q0 154 47 280.5t141 227.5q87 94 207 145.5t253 51.5q135 0 250 -48.5t199 -134.5q98 -100 148.5 -235.5t50.5 -288.5q0 -162 -55.5 -297.5t-144.5 -223.5q-99 -98 -210 -142.5t-238 -44.5q-124 0 -234 42.5t-198 126.5q-97 91 -156.5 229.5t-59.5 311.5z M294 669q0 -144 45.5 -258t128.5 -193q57 -55 135 -88.5t167 -33.5t166.5 32.5t140.5 93.5q75 72 123 183.5t48 247.5q0 130 -43.5 255.5t-132.5 210.5q-60 58 -134.5 90t-166.5 32q-90 0 -167.5 -32.5t-140.5 -95.5q-80 -80 -124.5 -198t-44.5 -246z" />
<glyph unicode="P" horiz-adv-x="1157" d="M233 0q1 60 3 222.5t2 502.5q0 108 -1 265t-4 349q43 1 84.5 1h67.5q173 0 294.5 -22t204.5 -75q91 -57 139 -148.5t48 -213.5q0 -146 -94.5 -264t-252.5 -160q-68 -18 -148.5 -26t-179.5 -8l2 -423h-165zM394 840q0 -74 0.5 -175t0.5 -115h21h19q67 0 142.5 9t129.5 33 q94 40 143.5 111t49.5 178q0 103 -47 175.5t-144 114.5q-60 26 -130 32.5t-144 6.5h-18h-19q0 -11 -2 -150t-2 -220z" />
<glyph unicode="Q" horiz-adv-x="1548" d="M123 671q0 154 47 280.5t141 227.5q87 94 207 145.5t253 51.5q135 0 250 -48.5t199 -134.5q98 -100 148.5 -235.5t50.5 -288.5t-69.5 -311.5t-197.5 -259.5q-98 -78 -194.5 -107.5t-186.5 -29.5q-123 0 -234.5 44t-197.5 125q-97 91 -156.5 229.5t-59.5 311.5zM294 669 q0 -144 45.5 -258t128.5 -193q57 -55 135 -88.5t167 -33.5q59 0 141.5 20.5t155.5 88.5q85 79 133 199t48 249q0 130 -43.5 255.5t-132.5 210.5q-60 58 -134.5 90t-166.5 32q-90 0 -167.5 -32.5t-140.5 -95.5q-80 -80 -124.5 -198t-44.5 -246zM770 425l122 98 q47 -58 203 -244.5t348 -401.5l-96 -87q-214 233 -369 404.5t-208 230.5z" />
<glyph unicode="R" horiz-adv-x="1298" d="M233 0q1 60 3 232.5t2 429.5v185t-5 492q10 0 100 2t166 3q87 0 169 -10.5t160 -43.5q99 -42 157 -123.5t58 -191.5q0 -142 -87.5 -236.5t-165.5 -140.5v-5q137 -160 300.5 -330t175.5 -183l-125 -103q-22 23 -156 173.5t-413 469.5l1 9q38 10 101 43.5t106 72.5 q37 34 64.5 84t27.5 134q0 77 -40.5 132.5t-111.5 81.5q-58 22 -122 26.5t-118 4.5q-36 0 -55 -0.5t-28 -0.5q-2 -190 -2.5 -335t-0.5 -205q0 -137 1.5 -372t2.5 -295h-165z" />
<glyph unicode="S" horiz-adv-x="1032" d="M117 135q14 -2 78 -7.5t151 -5.5q53 0 137 14t129 36q59 29 90.5 70t31.5 104q0 67 -31.5 113.5t-104.5 89.5q-47 28 -122 63t-135 72q-102 62 -145.5 135.5t-43.5 163.5q0 92 39.5 159.5t102.5 115.5q64 48 156.5 72t205.5 24q62 0 125.5 -3.5t72.5 -4.5l14 -145 q-9 1 -73 7t-158 6q-56 0 -115.5 -12.5t-104.5 -38.5q-40 -23 -68 -64t-28 -96q0 -49 29.5 -94.5t110.5 -93.5q41 -25 108.5 -57.5t132.5 -70.5q100 -59 150.5 -135.5t50.5 -174.5q0 -103 -48.5 -180.5t-130.5 -125.5q-75 -44 -172 -66.5t-215 -22.5q-64 0 -132.5 4t-79.5 5 z" />
<glyph unicode="T" horiz-adv-x="1167" d="M12 1197v139q103 0 250.5 -1t314.5 -1q242 0 404.5 1t175.5 1v-139q-16 0 -134 1t-357 1q-2 -205 -3 -311t-1 -289q0 -176 1.5 -357.5t2.5 -241.5h-165q2 60 3.5 245t1.5 362v276.5t-3 315.5h-158q-107 -1 -187 -1q-132 -2 -146 -1z" />
<glyph unicode="U" horiz-adv-x="1547" d="M223 1339h165q-1 -25 -2.5 -170.5t-1.5 -382.5q0 -72 0.5 -149t0.5 -158q0 -183 105 -277.5t284 -94.5q194 0 291 90t97 282q0 81 0.5 158t0.5 149q0 237 -2 388t-2 165h165q0 -192 -2 -317.5t-2 -218.5q0 -114 0.5 -194.5t0.5 -139.5q0 -116 -34.5 -204.5t-104.5 -154.5 t-172 -103.5t-236 -37.5t-236 37t-173 104q-70 66 -104.5 154.5t-34.5 204.5q0 59 0.5 139.5t0.5 194.5q0 93 -2 218.5t-2 317.5z" />
<glyph unicode="V" horiz-adv-x="1358" d="M8 1284l156 78q7 -20 180.5 -416.5t334.5 -746.5h2q164 359 340.5 756t182.5 409l137 -72q-5 -12 -211.5 -456t-394.5 -856h-133q-207 462 -396 873t-198 431z" />
<glyph unicode="W" horiz-adv-x="2140" d="M80 1296l164 64q4 -14 117 -352t259 -759h2q154 388 268.5 711t119.5 338h155q4 -17 121.5 -366t238.5 -683h2q160 437 270 766t114 345l149 -51q-169 -443 -314.5 -869.5t-152.5 -445.5h-139q-5 19 -107.5 318.5t-270.5 745.5h-2q-147 -369 -270.5 -705.5t-131.5 -358.5 h-142q-8 29 -128.5 392.5t-321.5 909.5z" />
<glyph unicode="X" horiz-adv-x="1257" d="M47 78q7 8 120.5 145.5t366.5 453.5v2q-121 158 -282 363.5t-176 223.5l131 98q13 -18 137 -180t292 -380h2q141 181 283 364t152 196l119 -88q-10 -13 -186.5 -234t-281.5 -349v-2q178 -221 327.5 -407t158.5 -198l-131 -111q-12 17 -130 173t-320 419h-2 q-173 -217 -311.5 -397t-147.5 -193z" />
<glyph unicode="Y" horiz-adv-x="1186" d="M20 1262l132 100q13 -17 157 -210t290 -383h2q141 181 295.5 381.5t162.5 211.5l117 -88q-8 -10 -198 -249t-306 -386q-1 -80 -1 -164q0 -105 1 -216q3 -199 4 -259h-165q2 60 4 262q1 136 1 252v113q-122 161 -302 389.5t-194 245.5z" />
<glyph unicode="Z" horiz-adv-x="1223" d="M57 106q145 177 384.5 478.5t476.5 612.5l-1 2q-94 1 -168 1h-124q-191 0 -337.5 -1.5t-166.5 -1.5v139q80 0 196 -1t253 -1q210 0 359 1t167 1l49 -104q-65 -80 -300.5 -375.5t-558.5 -706.5l1 -2q63 -1 150 -2t196 -1q215 0 373 2.5t168 2.5v-148q-173 1 -298 1.5 t-227 0.5q-225 0 -377.5 -1t-169.5 -1z" />
<glyph unicode="[" horiz-adv-x="850" d="M198 -404q0 35 2 249.5t2 623.5q0 158 -0.5 410.5t-3.5 496.5h580v-118h-436q-2 -246 -2.5 -439.5t-0.5 -339.5q0 -310 2 -489.5t2 -275.5h435v-118h-580z" />
<glyph unicode="\" horiz-adv-x="683" d="M-42 1340l127 46q67 -192 155 -434.5t155 -427.5q123 -340 218.5 -600.5t112.5 -305.5l-127 -47q-14 38 -106.5 306t-217.5 611q-60 164 -155.5 422t-161.5 430z" />
<glyph unicode="]" horiz-adv-x="850" d="M72 -286h435q0 106 2 305t2 460q0 132 -0.5 353t-2.5 426h-436v118h580q-3 -243 -3.5 -500t-0.5 -407q0 -280 2 -559t2 -314h-580v118z" />
<glyph unicode="^" horiz-adv-x="1414" d="M265 470l391 812h100l395 -812l-105 -57l-337 715h-4l-337 -715z" />
<glyph unicode="_" horiz-adv-x="1024" d="M0 -157h1024v-112h-1024v112z" />
<glyph unicode="`" horiz-adv-x="800" d="M60 1363l72 113l429 -252l-62 -93z" />
<glyph unicode="a" horiz-adv-x="1052" d="M82 297q0 95 58.5 164.5t162.5 112.5q65 27 173.5 48.5t247.5 32.5q-6 78 -39 128t-97 76q-44 18 -98 25.5t-126 7.5q-45 0 -76.5 -2t-85.5 -5l16 133q15 1 59.5 3.5t121.5 2.5q118 0 210.5 -24.5t153.5 -79.5q57 -52 86 -128.5t29 -221.5q0 -248 -1 -404t-1 -168 q-10 -1 -93 -7.5t-214 -6.5q-82 0 -165 15t-143 43q-80 37 -129.5 101t-49.5 154zM242 306q0 -68 37 -109.5t101 -63.5q49 -17 108.5 -24.5t125.5 -7.5q20 0 49 1t61 2q0 7 0.5 66t0.5 159v86t-1 120q-44 -2 -154 -17.5t-185 -44.5q-56 -21 -99.5 -63t-43.5 -104z" />
<glyph unicode="b" horiz-adv-x="1134" d="M183 -17q1 77 2.5 286t1.5 503q0 180 -1 349t-3 345h158l-3 -461q205 -2 328.5 -36.5t205.5 -93.5q85 -61 130 -152.5t45 -208.5q0 -164 -80.5 -282t-217.5 -176q-89 -38 -203 -55.5t-274 -17.5h-45h-44zM338 486q0 -167 0.5 -236t0.5 -140q110 0 201 16.5t157 51.5 q96 51 143 134.5t47 197.5q0 121 -68.5 203t-176.5 119q-56 19 -121 29.5t-134 10.5h-26.5h-22.5v-159.5v-226.5z" />
<glyph unicode="c" horiz-adv-x="930" d="M84 511q0 120 62 220.5t162 164.5q90 58 215.5 88.5t259.5 30.5h22.5h18.5l8 -134h-15.5h-15.5q-111 0 -189.5 -13.5t-152.5 -44.5q-99 -40 -157 -126t-58 -184q0 -117 54.5 -196.5t144.5 -122.5q70 -34 158 -49t186 -15h36h27l-12 -134h-25.5h-29.5q-129 0 -241 24.5 t-201 72.5q-121 66 -189 175t-68 243z" />
<glyph unicode="d" horiz-adv-x="1135" d="M87 471q0 152 77 269.5t222 183.5q85 40 195 60.5t216 20.5l-3 461h158q0 -20 -2 -280t-2 -527q0 -211 1.5 -381.5t2.5 -293.5q-6 0 -38 -0.5t-51 -0.5q-189 0 -296 16.5t-209 65.5q-133 64 -202 170t-69 236zM247 477q0 -103 53 -177t132 -116q69 -37 155.5 -55.5 t181.5 -18.5h13h13q0 9 1 149.5t1 427.5v88v97q-100 0 -188.5 -17t-151.5 -46q-100 -46 -155 -131.5t-55 -200.5z" />
<glyph unicode="e" horiz-adv-x="1044" d="M87 519q0 114 34 206t102 171q59 68 146.5 105t181.5 37q93 0 165 -28t125 -85q59 -64 90 -157.5t32 -224.5h-723q1 -106 45 -194.5t135 -146.5q58 -37 132 -55.5t178 -18.5q57 0 104.5 3t58.5 4l-18 -133q-8 -1 -53 -3.5t-106 -2.5q-160 0 -278.5 41.5t-194.5 114.5 q-65 61 -110.5 156t-45.5 211zM252 655h556q-16 124 -84.5 194.5t-180.5 70.5t-187 -71.5t-104 -193.5z" />
<glyph unicode="f" horiz-adv-x="752" d="M51 895v117h197v49q0 88 23 157.5t81 130.5q50 52 133 85t204 33h30.5h23.5l19 -128h-22h-28q-94 0 -148 -17t-97 -58q-33 -31 -50.5 -85.5t-17.5 -121.5v-45h340v-117h-340q0 -324 1.5 -601.5t1.5 -293.5h-158q0 16 2 281.5t2 613.5h-197z" />
<glyph unicode="g" horiz-adv-x="1128" d="M87 524q0 140 77 247t206 170q92 45 200.5 62.5t262.5 17.5h55.5h59.5q0 -22 -1.5 -198t-1.5 -335q0 -108 1 -220t1 -205q0 -171 -58.5 -268t-166.5 -155q-85 -44 -207 -69.5t-296 -25.5l-16 127q117 2 210 12.5t169 38.5q117 44 163 116.5t48 176.5h-24h-24 q-119 0 -245 28.5t-215 90.5q-88 59 -143 154t-55 235zM247 516q0 -110 53.5 -188t143.5 -121q61 -29 141.5 -47t170.5 -18h20h17q0 12 1 111.5t1 235.5q0 72 -0.5 180t-2.5 225h-13h-13q-93 0 -162.5 -12t-146.5 -45q-102 -44 -156 -129t-54 -192z" />
<glyph unicode="h" horiz-adv-x="1190" d="M183 0q1 39 2.5 314.5t1.5 453.5q0 116 -0.5 292.5t-3.5 405.5h158l-4 -569l1 -1q143 80 234 111t156 31q128 0 205.5 -80.5t77.5 -220.5q0 -126 -1.5 -217.5t-1.5 -148.5q0 -91 2 -209t3 -162h-158q1 30 2.5 180.5t1.5 198.5q0 52 -0.5 153.5t-1.5 148.5q-3 115 -44 165 t-142 50q-57 0 -146 -34.5t-188 -93.5l4 -768h-158z" />
<glyph unicode="i" horiz-adv-x="545" d="M185 1206v172h176v-172h-176zM194 0q1 16 2.5 197t1.5 299q0 103 -0.5 226.5t-3.5 289.5h158q-2 -144 -3.5 -269.5t-1.5 -223.5q0 -233 2.5 -374t2.5 -145h-158z" />
<glyph unicode="j" horiz-adv-x="553" d="M-148 -332q96 11 168 33t114 60q45 41 65 104t20 172q0 251 -2 609t-2 366h157q0 -14 -1 -155t-1 -336q0 -126 1 -264.5t1 -250.5q0 -95 -27 -179t-92 -144q-57 -52 -142.5 -87.5t-224.5 -49.5zM206 1206v172h176v-172h-176z" />
<glyph unicode="k" horiz-adv-x="1075" d="M183 0q1 18 2.5 270t1.5 516q0 113 -0.5 285t-3.5 395h158q-3 -177 -3.5 -411t-0.5 -278q0 -103 2 -431.5t2 -345.5h-158zM376 509v2q24 22 210 212.5t301 312.5l97 -100q-119 -115 -249.5 -242.5t-163.5 -159.5v-1l147 -154q146 -154 339 -359l-95 -87 q-221 225 -394.5 392t-191.5 184z" />
<glyph unicode="l" horiz-adv-x="546" d="M194 0q1 12 2.5 292.5t1.5 465.5q0 119 -0.5 300.5t-3.5 407.5h158q-2 -154 -3 -356.5t-1 -341.5q0 -303 2 -530t2 -238h-158z" />
<glyph unicode="m" horiz-adv-x="1794" d="M183 0q0 8 2 116.5t2 359.5q0 82 -0.5 221t-3.5 315h156l-1 -115l1 -1q67 48 168.5 95t179.5 47q98 0 163.5 -41t93.5 -104h2q115 71 211.5 108t164.5 37q138 0 215.5 -80.5t77.5 -217.5q0 -106 -1.5 -178.5t-1.5 -153.5q0 -168 2.5 -284t2.5 -124h-158q1 11 2.5 140 t1.5 243q0 45 -0.5 147.5t-1.5 153.5q-3 120 -47.5 166t-137.5 46q-55 0 -130.5 -27t-170.5 -84q0 -5 0.5 -20t0.5 -39q0 -81 -1 -164.5t-1 -159.5q0 -166 2.5 -279t2.5 -123h-158q0 11 2 121t2 260q0 50 -0.5 151.5t-1.5 149.5q-1 44 -8 84t-26 68q-21 31 -54 46.5 t-94 15.5q-56 0 -131 -32.5t-172 -93.5q0 -17 -1 -127.5t-1 -180.5q0 -119 2.5 -285.5t2.5 -176.5h-158z" />
<glyph unicode="n" horiz-adv-x="1190" d="M183 0q0 7 2 122.5t2 343.5q0 105 -0.5 246t-3.5 300h156l-1 -115l1 -2q140 80 233.5 111.5t155.5 31.5q128 0 205.5 -80.5t77.5 -220.5q0 -126 -1.5 -217.5t-1.5 -148.5q0 -91 2.5 -227.5t2.5 -143.5h-158q1 28 2.5 185t1.5 194q0 52 -0.5 153.5t-1.5 148.5 q-3 115 -44 165t-142 50q-61 0 -151 -36t-182 -92q0 -11 -1 -119t-1 -197q0 -116 2.5 -280t2.5 -172h-158z" />
<glyph unicode="o" horiz-adv-x="1165" d="M93 508q0 115 35.5 211.5t110.5 173.5q67 70 156 107.5t188 37.5q104 0 188.5 -34.5t150.5 -103.5q76 -79 113 -177.5t37 -216.5q0 -116 -41.5 -222t-119.5 -181q-66 -63 -146.5 -96t-182.5 -33q-96 0 -180 32.5t-150 95.5q-76 73 -117.5 180t-41.5 226zM253 508 q0 -102 31 -187.5t100 -147.5q39 -35 90 -53.5t108 -18.5q63 0 117.5 22t95.5 64q57 58 87 140t30 172q0 94 -30.5 183t-94.5 150q-39 38 -92.5 58.5t-111.5 20.5q-69 0 -120 -22t-96 -69q-53 -54 -83.5 -138t-30.5 -174z" />
<glyph unicode="p" horiz-adv-x="1136" d="M183 -455q1 17 2.5 276.5t1.5 520.5q0 131 -1 304.5t-3 373.5q32 1 63.5 1h48.5q210 0 326 -22t211 -78q101 -59 159 -157.5t58 -226.5q0 -155 -69 -263.5t-186 -171.5q-102 -54 -224 -76t-232 -22l4 -459h-159zM337 425q0 -52 0.5 -146t0.5 -150q94 0 188 17.5t155 47.5 q102 50 155 133t53 205q0 98 -46 172t-120 117q-67 38 -152.5 55.5t-185.5 17.5h-22h-23q0 -17 -1.5 -118.5t-1.5 -350.5z" />
<glyph unicode="q" horiz-adv-x="1132" d="M87 520q0 125 68.5 233t186.5 172q100 55 215 75.5t296 20.5h50h51q-2 -199 -3 -406t-1 -252q0 -209 2 -504.5t2 -313.5h-159l4 457q-135 0 -235.5 17.5t-175.5 49.5q-147 63 -224 175.5t-77 275.5zM247 516q0 -115 53.5 -197.5t154.5 -130.5q63 -30 138 -45t175 -15h16 h15q0 55 0.5 131t0.5 162q0 239 -1.5 350.5t-1.5 122.5q-108 0 -195.5 -15t-170.5 -57q-86 -43 -135 -124.5t-49 -181.5z" />
<glyph unicode="r" horiz-adv-x="788" d="M183 0q0 17 2 112t2 325q0 93 -1 260t-3 315h155v-152l1 -1q113 64 223 111t176 64l30 -140q-55 -13 -168.5 -55t-261.5 -112q0 -11 -1 -100.5t-1 -166.5q0 -118 2.5 -280t2.5 -180h-158z" />
<glyph unicode="s" horiz-adv-x="833" d="M107 131q9 -1 69.5 -5.5t120.5 -4.5q35 0 90 6t91 22q50 22 74 54t24 77q0 41 -21 66.5t-58 49.5q-40 27 -109.5 57.5t-116.5 58.5q-67 41 -102.5 97t-35.5 130t40.5 133t108.5 95q59 32 130.5 42.5t138.5 10.5q61 0 100 -2t45 -2l11 -133q-7 0 -61.5 4t-119.5 4 q-46 0 -87.5 -8t-70.5 -23q-43 -22 -61.5 -53t-18.5 -60q0 -40 26 -69t61 -49q41 -24 112 -57t103 -53q70 -44 106.5 -98t36.5 -128t-36 -132t-94 -94q-61 -38 -144.5 -57.5t-184.5 -19.5q-49 0 -101.5 4.5t-59.5 5.5z" />
<glyph unicode="t" horiz-adv-x="803" d="M53 895v117h177v237h145v-237h358v-117h-358q0 -21 -1.5 -125t-1.5 -154v-103v-145q0 -130 70 -187.5t216 -57.5q18 0 43 0.5t32 0.5l-18 -127q-7 -1 -34.5 -2t-47.5 -1q-205 0 -310 85.5t-105 262.5q0 111 1.5 238t1.5 315h-168z" />
<glyph unicode="u" horiz-adv-x="1190" d="M177 1012h158q0 -13 -2 -144t-2 -209q0 -69 1 -172t1 -146q2 -118 41 -173t126 -55q89 0 195.5 48t156.5 84q0 12 1 110.5t1 245.5q0 105 -2.5 251.5t-2.5 159.5h158q0 -17 -2 -112.5t-2 -325.5q0 -129 1 -226.5t3 -347.5h-153v116l-1 1q-70 -46 -174.5 -94.5 t-205.5 -48.5q-138 0 -216 82t-78 230q0 80 1.5 190.5t1.5 160.5q0 91 -2.5 224.5t-2.5 150.5z" />
<glyph unicode="v" horiz-adv-x="1091" d="M56 963l146 67l352 -833h2l342 831l137 -55q-131 -297 -277.5 -629.5t-151.5 -343.5h-117q-5 12 -146 325t-287 638z" />
<glyph unicode="w" horiz-adv-x="1645" d="M58 967l146 65l276 -820h2l292 783h125l269 -783h2l283 816l137 -55q-135 -330 -248 -646t-117 -327h-123q-3 9 -80.5 236t-191.5 543h-2q-100 -265 -195 -518t-98 -261h-123q-7 28 -109 314t-245 653z" />
<glyph unicode="x" horiz-adv-x="1028" d="M62 63q13 13 120.5 141t245.5 300v2q-88 113 -169 216t-176 221l120 91q71 -96 150.5 -201.5t164.5 -216.5h2q73 95 150 195.5t165 220.5l114 -85q-100 -119 -178.5 -214t-170.5 -207v-2q148 -185 252 -314.5t112 -139.5l-122 -95q-5 8 -96.5 134t-233.5 307h-2 q-134 -167 -230.5 -300t-104.5 -143z" />
<glyph unicode="y" horiz-adv-x="1096" d="M56 965l150 65q110 -278 224 -549.5t120 -285.5h2q6 10 114 266t236 565l137 -55q-195 -430 -410.5 -913.5t-229.5 -514.5l-138 51l207 429q-8 20 -125.5 292t-286.5 650z" />
<glyph unicode="z" horiz-adv-x="977" d="M78 100q99 127 264.5 340.5t336.5 436.5l-1 2q-43 0 -87.5 0.5t-85.5 0.5q-96 0 -244.5 -1.5t-156.5 -1.5v125q9 0 163 -0.5t189 -0.5q70 0 217.5 0.5t160.5 0.5l51 -94q-171 -213 -368 -471.5t-231 -301.5l1 -2q38 0 99.5 -0.5t132.5 -0.5q202 0 294 1.5t98 1.5v-129 q-5 0 -168.5 0.5t-241.5 0.5q-100 0 -241.5 -0.5t-148.5 -0.5z" />
<glyph unicode="{" horiz-adv-x="850" d="M32 421v109q93 13 148.5 25t95.5 46q39 33 55.5 84t16.5 141v87.5v88.5q0 188 133.5 284t324.5 96l8 -122q-152 0 -239.5 -66.5t-87.5 -191.5v-88v-116q0 -142 -62 -220t-159 -101v-3q102 -26 161.5 -104.5t59.5 -216.5v-109.5v-93.5q0 -124 87.5 -191.5t239.5 -67.5 l-8 -122q-191 0 -324.5 95.5t-133.5 285.5v88v87q0 91 -17 143.5t-54 83.5q-38 31 -98 45.5t-147 23.5z" />
<glyph unicode="|" horiz-adv-x="600" d="M243 -456v1922h116v-1922h-116z" />
<glyph unicode="}" horiz-adv-x="850" d="M36 -309q152 0 239.5 66.5t87.5 192.5v87.5v115.5q0 128 52.5 206.5t168.5 114.5v3q-100 20 -160.5 103t-60.5 218v112v92q0 126 -87.5 192t-239.5 66l8 122q202 0 330 -99.5t128 -280.5v-88.5v-87.5q0 -90 16.5 -141.5t55.5 -83.5q38 -30 99.5 -45.5t144.5 -25.5v-109 q-89 -9 -147 -23.5t-98 -45.5q-37 -31 -54 -84.5t-17 -142.5v-87v-88q0 -183 -128 -282t-330 -99z" />
<glyph unicode="~" horiz-adv-x="1414" d="M188 345q34 142 120 229t207 87q56 0 96 -16t68 -36q29 -21 65 -48.5t60 -45.5q26 -20 50 -30t61 -10q78 0 126 63t69 156l114 -19q-28 -138 -116 -227t-212 -89q-52 0 -90.5 13.5t-72.5 38.5q-26 19 -61 46t-64 48q-26 19 -52.5 29.5t-59.5 10.5q-70 0 -119 -55.5 t-75 -163.5z" />
<glyph unicode="&#xa1;" horiz-adv-x="950" d="M368 1138v201h193v-201h-193zM379 0q5 506 10 684t6 215h139q1 -37 5.5 -213.5t11.5 -685.5h-172z" />
<glyph unicode="&#xa2;" d="M209 810q0 112 47 200t130 151q77 59 192 93t234 42l-3 320h125q-2 -66 -2 -119v-92q0 -89 1.5 -158.5t1.5 -76.5q-114 0 -212 -17t-165 -49q-80 -37 -133 -115t-53 -174q0 -99 45 -170.5t119 -114.5q80 -46 189 -62t230 -16q0 -8 -1.5 -109.5t-1.5 -161.5 q0 -56 0.5 -102.5t1.5 -78.5h-125l3 324q-150 11 -278.5 51.5t-216.5 125.5q-54 53 -91 134t-37 175z" />
<glyph unicode="&#xa3;" d="M168 2v134h134l64 463l-194 -1v120l211 -1q1 12 12 74t22 126q16 86 50 162t95 136q58 56 147 94t212 45q15 1 38 1.5t38 1.5l20 -132q-14 0 -45.5 -2t-45.5 -2q-87 -5 -146.5 -27t-104.5 -63q-41 -37 -66.5 -93t-41.5 -133q-9 -41 -20.5 -108.5t-12.5 -79.5l350 1v-120 l-367 1l-64 -464h106h71q177 0 325 1.5t162 1.5v-136q-15 0 -168.5 1.5t-281.5 1.5q-106 0 -241 -1.5t-258 -1.5z" />
<glyph unicode="&#xa4;" d="M117 223l193 191q-36 49 -54 103.5t-18 112.5q0 60 18.5 113.5t53.5 102.5l-193 192l77 73l189 -192q50 38 103.5 55t112.5 17q65 0 116.5 -15.5t104.5 -53.5l187 189l79 -74l-190 -188q34 -48 51 -103.5t17 -115.5q0 -59 -18.5 -114t-51.5 -101l191 -190l-78 -73 l-186 188q-55 -39 -104.5 -55.5t-117.5 -16.5q-62 0 -114.5 17.5t-101.5 54.5l-189 -189zM343 632q0 -106 76 -183.5t182 -77.5q108 0 184 77.5t76 183.5q0 105 -76 181.5t-184 76.5q-106 0 -182 -76t-76 -182z" />
<glyph unicode="&#xa5;" d="M53 1267l124 95q8 -10 140.5 -198.5t286.5 -398.5h2q128 172 277 379t158 218l112 -84q-6 -7 -140.5 -181t-340.5 -449v-118l370 2v-106l-370 2q0 -110 2 -262t2 -166h-152q0 12 2 164t2 264l-370 -2v106l370 -2v108q-167 228 -316.5 423.5t-158.5 205.5z" />
<glyph unicode="&#xa6;" horiz-adv-x="600" d="M243 -456l1 830h116l-1 -830h-116zM243 1466h116l1 -825h-116z" />
<glyph unicode="&#xa7;" horiz-adv-x="929" d="M100 439q0 90 62.5 168.5t168.5 129.5v2q-15 8 -29.5 16.5t-24.5 14.5q-65 38 -103.5 96.5t-38.5 128.5q0 87 48.5 150.5t123.5 105.5q67 39 156 57t173 24q64 4 109.5 6t50.5 2l11 -125q-6 0 -51 -0.5t-141 -6.5q-73 -5 -135.5 -21t-93.5 -33q-54 -30 -77 -65t-23 -73 q0 -47 32.5 -83t95.5 -68q69 -34 122.5 -57.5t131.5 -65.5q84 -44 123.5 -101t39.5 -142q0 -92 -64 -169.5t-167 -130.5v-2q14 -7 29.5 -16t24.5 -14q65 -38 103.5 -96t38.5 -129q0 -82 -46 -147t-126 -109q-71 -39 -156.5 -57.5t-172.5 -23.5q-84 -5 -119 -6.5t-41 -1.5 l-11 125q6 0 51.5 0.5t140.5 6.5q70 5 135 21t94 33q58 34 79 66t21 72q0 46 -33 83t-95 69q-54 28 -129 61.5t-125 62.5q-93 54 -128 110t-35 132zM249 466q0 -57 32 -95t115 -80q19 -9 44.5 -21.5t44.5 -21.5q24 11 47.5 24t52.5 34q53 39 75 75.5t22 89.5q0 50 -28 89.5 t-119 85.5q-20 10 -46 22.5t-43 20.5q-17 -7 -46 -23t-54 -34q-40 -30 -68.5 -67t-28.5 -99z" />
<glyph unicode="&#xa8;" horiz-adv-x="800" d="M99 1206v170h169v-170h-169zM531 1206v170h169v-170h-169z" />
<glyph unicode="&#xa9;" horiz-adv-x="1928" d="M171 491q0 325 233 554.5t552 229.5q322 0 552 -231t230 -553q0 -323 -231 -553.5t-551 -230.5q-323 0 -554 232t-231 552zM235 491q0 -297 211.5 -510t509.5 -213q296 0 507.5 213t211.5 510q0 296 -211.5 508.5t-507.5 212.5q-298 0 -509.5 -212.5t-211.5 -508.5z M534 494q0 108 56 198.5t144 146.5q77 51 191 77t226 26q13 0 25 -0.5t17 -0.5l7 -132h-16.5h-16.5q-101 0 -159.5 -7t-136.5 -40q-83 -35 -133 -108.5t-50 -157.5q0 -100 46 -168t123 -107q57 -27 134.5 -40t163.5 -13q15 0 35.5 0.5t26.5 0.5l-11 -131q-5 0 -24.5 -1 t-30.5 -1q-114 0 -211.5 20.5t-175.5 63.5q-110 60 -170 157.5t-60 216.5z" />
<glyph unicode="&#xaa;" horiz-adv-x="840" d="M113 731q0 67 44 110t114 70q51 20 128 30t164 14q-3 45 -26 73t-61 41q-26 9 -65.5 13.5t-94.5 4.5q-28 0 -52.5 -1.5t-69.5 -3.5l15 107q10 0 44.5 1.5t86.5 1.5q85 0 154 -15.5t112 -50.5q40 -34 61.5 -83.5t21.5 -141.5q0 -153 -0.5 -246.5t-0.5 -117.5 q-14 -2 -71 -6t-150 -4q-60 0 -120.5 9.5t-104.5 27.5q-55 22 -92 63t-37 104zM132 200v100h576v-100h-576zM243 737q0 -41 25.5 -64.5t62.5 -33.5q47 -13 90 -15t77 -2q11 0 28.5 0.5t37.5 1.5q0 14 0.5 45t0.5 79v47t-1 62q-37 -2 -103 -4t-127 -23q-29 -10 -60 -35.5 t-31 -57.5z" />
<glyph unicode="&#xab;" horiz-adv-x="1048" d="M88 540v6l414 424l78 -78l-348 -348l348 -349l-78 -78zM457 540v6l414 424l78 -78l-348 -348l348 -349l-78 -78z" />
<glyph unicode="&#xac;" horiz-adv-x="1800" d="M368 572v116h1047v-550h-129v434h-918z" />
<glyph unicode="&#xad;" horiz-adv-x="728" d="M78 626v136l100.5 -0.5t184.5 -0.5t186 0.5l102 0.5v-136l-102 0.5t-186 0.5t-184.5 -0.5z" />
<glyph unicode="&#xae;" horiz-adv-x="1928" d="M171 491q0 325 233 554.5t552 229.5q322 0 552 -231t230 -553q0 -323 -231 -553.5t-551 -230.5q-323 0 -554 232t-231 552zM235 491q0 -297 211.5 -510t509.5 -213q296 0 507.5 213t211.5 510q0 296 -211.5 508.5t-507.5 212.5q-298 0 -509.5 -212.5t-211.5 -508.5z M687 61q0 14 1.5 154.5t1.5 270.5q0 38 -0.5 136.5t-2.5 304.5q6 0 91 1.5t125 1.5q54 0 112 -7.5t106 -27.5q69 -30 110 -83.5t41 -128.5q0 -68 -37 -127t-117 -110v-9q100 -113 198 -209t105 -103l-101 -91q-8 8 -120 128.5t-266 293.5v22q31 8 72 27.5t67 43.5 q24 22 40 48t16 78q0 41 -24.5 71t-66.5 47q-33 12 -69.5 16t-78.5 4q-11 0 -34 -0.5t-29 -0.5q-1 -94 -1.5 -192.5t-0.5 -129.5q0 -101 1.5 -258.5t1.5 -170.5h-141z" />
<glyph unicode="&#xb0;" horiz-adv-x="836" d="M109 1018q0 129 91.5 219t217.5 90q127 0 218 -91t91 -218q0 -129 -91 -219t-220 -90t-218 90t-89 219zM216 1019q0 -86 60 -145.5t143 -59.5q86 0 143.5 61t57.5 144q0 84 -58.5 143.5t-142.5 59.5t-143.5 -59.5t-59.5 -143.5z" />
<glyph unicode="&#xb1;" horiz-adv-x="1800" d="M378 141v116h463v410h-463v116h463v448h116v-448h465v-116h-465v-410h465v-116h-1044z" />
<glyph unicode="&#xb2;" horiz-adv-x="840" d="M84 632q70 32 158.5 88.5t136.5 97.5q70 59 105.5 114t35.5 116q0 60 -29.5 97.5t-71.5 60.5q-47 25 -100.5 35t-131.5 10h-33.5h-24.5l11 112q7 0 27.5 1t40.5 1q100 0 177 -16.5t134 -48.5q60 -34 103.5 -92t43.5 -152q0 -79 -44 -150t-101 -120q-56 -46 -105.5 -79.5 t-95.5 -59.5l1 -5q40 2 78.5 2t66.5 1q80 1 190 1.5t118 0.5v-108q-6 0 -130 0.5t-182 0.5q-84 0 -210.5 -0.5t-135.5 -0.5z" />
<glyph unicode="&#xb3;" horiz-adv-x="840" d="M109 635h25.5t35.5 1q63 2 146.5 8.5t126.5 20.5q64 21 95.5 48t31.5 74q0 39 -28 62.5t-70 37.5q-35 11 -77.5 12t-76.5 1h-44h-34l-15 96q31 3 67.5 6.5t85.5 16.5q70 19 105 44.5t35 70.5q0 43 -27.5 66.5t-67.5 35.5q-33 10 -85.5 15t-113.5 5h-43.5h-30.5l23 110h20 h24q78 0 155 -5.5t144 -32.5q64 -23 105 -66t41 -107q0 -60 -40 -106t-112 -74v-2q91 -14 146 -58.5t55 -117.5q0 -63 -42 -122.5t-123 -95.5q-69 -32 -179 -43t-210 -11q-13 0 -19 0.5t-11 0.5z" />
<glyph unicode="&#xb4;" horiz-adv-x="800" d="M241 1224l429 252l70 -113l-439 -232z" />
<glyph unicode="&#xb5;" horiz-adv-x="1247" d="M183 -455q2 165 3 371t1 408q0 326 -2 498t-2 190h158q0 -18 -2 -290.5t-2 -487.5q49 -37 117 -70t149 -33q80 0 144 30t113 85v123.5v231.5q0 105 -2.5 251.5t-2.5 159.5h158q0 -17 -2 -74t-2 -304q0 -34 0.5 -137.5t0.5 -148.5q0 -140 47.5 -181.5t183.5 -42.5 l-15 -129q-132 0 -205.5 28t-128.5 110h-2q-66 -73 -133.5 -106t-150.5 -33q-66 0 -130 22.5t-138 80.5l-1 -1q0 -63 2 -295.5t2 -255.5h-158z" />
<glyph unicode="&#xb6;" horiz-adv-x="1136" d="M112 856q0 118 63.5 217t172.5 164q90 54 215.5 78.5t308.5 24.5q31 0 57.5 -0.5t44.5 -0.5q-2 -198 -3 -361t-1 -317q0 -284 2 -690.5t2 -424.5h-145l4 781q-114 0 -232.5 23t-212.5 73q-131 69 -203.5 177t-72.5 256z" />
<glyph unicode="&#xb7;" horiz-adv-x="532" d="M166 401v213h201v-213h-201z" />
<glyph unicode="&#xb8;" horiz-adv-x="800" d="M261 -231q75 4 123.5 21.5t69.5 38.5q27 27 43.5 60.5t16.5 113.5v21h119q0 -106 -34 -184.5t-110 -120.5q-31 -17 -87.5 -36t-122.5 -23z" />
<glyph unicode="&#xb9;" horiz-adv-x="840" d="M117 1153q92 61 205.5 139t127.5 88l101 -55q-2 -93 -3 -217t-1 -147q0 -56 2 -233.5t2 -190.5h-138q0 7 2 83.5t2 310.5q0 22 -0.5 146.5t-0.5 158.5l-4 2q-38 -24 -104.5 -69.5t-133.5 -90.5z" />
<glyph unicode="&#xba;" horiz-adv-x="840" d="M73 862q0 75 26 136t78 111q47 43 108.5 67.5t135.5 24.5q73 0 133.5 -22t107.5 -66q54 -50 80 -113.5t26 -138.5q0 -72 -30.5 -142t-83.5 -116q-52 -43 -109.5 -63t-124.5 -20q-68 0 -128 21.5t-106 60.5q-54 47 -83.5 115t-29.5 145zM132 200v100h576v-100h-576z M204 862q0 -63 22 -111.5t64 -82.5q26 -22 60 -32.5t70 -10.5q39 0 76.5 14t62.5 38q39 35 58.5 81t19.5 99q0 57 -20 106.5t-62 86.5q-26 23 -60.5 35.5t-73.5 12.5q-45 0 -79.5 -13.5t-62.5 -40.5q-37 -33 -56 -83t-19 -99z" />
<glyph unicode="&#xbb;" horiz-adv-x="1048" d="M99 195l348 349l-348 348l78 78l414 -424v-6l-414 -423zM468 195l348 349l-348 348l78 78l414 -424v-6l-414 -423z" />
<glyph unicode="&#xbc;" d="M154 411v95h890v-95h-890zM201 -107q163 160 301.5 300t147.5 149l106 -48q-3 -120 -2.5 -243t0.5 -155h92t129 1v-102q-83 1 -131.5 1h-89.5q-2 -120 -1 -179.5t1 -68.5h-127q0 8 1 76t1 172h-367zM256 1154q102 64 208 138.5t123 86.5l101 -51q-2 -88 -3 -204t-1 -138 q0 -51 2 -207t2 -172h-138q0 7 2 105.5t2 244.5q0 18 -0.5 131t-0.5 145l-4 2q-37 -22 -104 -70t-134 -90zM345 -102l1 -2q17 0 48 -0.5t77 -0.5h63t95 1v289l-3 1z" />
<glyph unicode="&#xbd;" d="M154 411v95h890v-95h-890zM246 1154q102 64 208 138.5t123 86.5l101 -51q-2 -88 -3 -204t-1 -138q0 -51 2 -207t2 -172h-138q0 7 2 105.5t2 244.5q0 18 -0.5 131t-0.5 145l-4 2q-37 -22 -104 -70t-134 -90zM279 -344q70 27 155 76t139 91q73 57 106 103.5t33 101.5 q0 54 -29 85t-69 50q-44 21 -102.5 27.5t-131.5 6.5q-17 0 -32.5 -0.5t-24.5 -0.5l10 112q8 0 28 1t40 1q93 0 170.5 -12t137.5 -43q71 -37 108.5 -90.5t37.5 -128.5q0 -72 -41.5 -133t-102.5 -109q-55 -41 -107.5 -72t-88.5 -49l1 -4q38 2 75.5 2t64.5 1q79 0 193 0.5 t122 0.5v-105q-7 0 -135.5 0.5t-183.5 0.5q-83 0 -207.5 -0.5t-134.5 -0.5z" />
<glyph unicode="&#xbe;" d="M154 411v95h890v-95h-890zM211 -107q163 160 301.5 300t147.5 149l106 -48q-3 -120 -2.5 -243t0.5 -155h92t129 1v-102q-83 1 -131.5 1h-89.5q-2 -120 -1 -179.5t1 -68.5h-127q0 8 1 76t1 172h-367zM319 709h25t34 1q65 2 141 4t121 15q65 19 94 43t29 66 q0 35 -26.5 56.5t-68.5 33.5q-28 8 -64 8.5t-83 0.5h-47h-28l-15 95q31 4 69.5 7t79.5 13q59 14 95.5 35.5t36.5 66.5q0 38 -25 57.5t-67 30.5q-31 9 -89 12.5t-101 3.5h-40.5h-31.5l23 107h20h22q69 0 151 -6.5t139 -28.5q62 -21 102 -59.5t40 -97.5q0 -56 -44.5 -100 t-102.5 -64v-2q85 -12 140 -52.5t55 -108.5q0 -57 -41 -111.5t-119 -87.5q-65 -28 -167 -37t-211 -9q-13 0 -19 0.5t-10 0.5zM355 -102l1 -2q17 0 48 -0.5t77 -0.5h63t95 1v289l-3 1z" />
<glyph unicode="&#xbf;" horiz-adv-x="1143" d="M167 360q0 78 34.5 149t116.5 138q65 52 151 97t132 73l-2 190h148v-270q-61 -27 -138.5 -64t-133.5 -76q-59 -40 -100 -98.5t-41 -128.5q0 -93 54.5 -144t146.5 -72q71 -16 131 -18.5t161 -2.5l-19 -143q-6 0 -40 -0.5t-66 -0.5q-87 0 -170 13.5t-154 46.5 q-103 48 -157 126t-54 185zM567 1138v201h192v-201h-192z" />
<glyph unicode="&#xc0;" horiz-adv-x="1358" d="M16 45q26 52 214.5 458.5t391.5 854.5h130q200 -448 393 -868t201 -437l-156 -80q-4 11 -62.5 149t-154.5 355h-598q-105 -233 -162 -361t-63 -143zM332 1621l57 120l473 -206l-50 -99zM430 605l1 -1h484l1 1q-54 122 -114 255t-126 278h-4q-51 -110 -123 -270.5 t-119 -262.5z" />
<glyph unicode="&#xc1;" horiz-adv-x="1358" d="M16 45q26 52 214.5 458.5t391.5 854.5h130q200 -448 393 -868t201 -437l-156 -80q-4 11 -62.5 149t-154.5 355h-598q-105 -233 -162 -361t-63 -143zM430 605l1 -1h484l1 1q-54 122 -114 255t-126 278h-4q-51 -110 -123 -270.5t-119 -262.5zM510 1535l473 206l57 -120 l-480 -185z" />
<glyph unicode="&#xc2;" horiz-adv-x="1358" d="M16 45q26 52 214.5 458.5t391.5 854.5h130q200 -448 393 -868t201 -437l-156 -80q-4 11 -62.5 149t-154.5 355h-598q-105 -233 -162 -361t-63 -143zM359 1492l257 226h137l258 -237l-90 -72l-235 212h-2l-234 -200zM430 605l1 -1h484l1 1q-54 122 -114 255t-126 278h-4 q-51 -110 -123 -270.5t-119 -262.5z" />
<glyph unicode="&#xc3;" horiz-adv-x="1358" d="M16 45q26 52 214.5 458.5t391.5 854.5h130q200 -448 393 -868t201 -437l-156 -80q-4 11 -62.5 149t-154.5 355h-598q-105 -233 -162 -361t-63 -143zM353 1444q14 81 76 155.5t161 74.5q37 0 67.5 -11.5t49.5 -25.5q21 -15 42 -33t36 -29q14 -10 29 -15.5t38 -5.5 q39 0 67.5 38t43.5 103l106 -20q-16 -85 -76 -157.5t-163 -72.5q-36 0 -68.5 13.5t-46.5 23.5q-19 14 -38.5 30.5t-39.5 31.5q-14 10 -30.5 15.5t-37.5 5.5q-39 0 -66.5 -39t-43.5 -102zM430 605l1 -1h484l1 1q-54 122 -114 255t-126 278h-4q-51 -110 -123 -270.5 t-119 -262.5z" />
<glyph unicode="&#xc4;" horiz-adv-x="1358" d="M16 45q26 52 214.5 458.5t391.5 854.5h130q200 -448 393 -868t201 -437l-156 -80q-4 11 -62.5 149t-154.5 355h-598q-105 -233 -162 -361t-63 -143zM359 1461v183h191v-183h-191zM430 605l1 -1h484l1 1q-54 122 -114 255t-126 278h-4q-51 -110 -123 -270.5t-119 -262.5z M821 1461v183h191v-183h-191z" />
<glyph unicode="&#xc5;" horiz-adv-x="1358" d="M16 45q26 52 214.5 458.5t391.5 854.5h130q200 -448 393 -868t201 -437l-156 -80q-4 11 -62.5 149t-154.5 355h-598q-105 -233 -162 -361t-63 -143zM430 605l1 -1h484l1 1q-54 122 -114 255t-126 278h-4q-51 -110 -123 -270.5t-119 -262.5zM476 1597q0 90 62.5 149.5 t148.5 59.5t148.5 -60.5t62.5 -148.5t-62 -148.5t-151 -60.5q-87 0 -148 59.5t-61 149.5zM573 1598q0 -50 33 -84t82 -34t81 34t32 84t-32 83t-81 33t-82 -32.5t-33 -83.5z" />
<glyph unicode="&#xc6;" horiz-adv-x="1865" d="M-38 45q14 21 239 391.5t530 899.5q10 -1 257.5 -1.5t305.5 -0.5q195 0 295 1t106 1v-139q-10 0 -104 1.5t-269 1.5q-60 0 -180.5 -0.5t-237.5 -0.5l-1 -1q45 -137 78.5 -238.5t74.5 -224.5h104h93q183 0 299.5 1.5t125.5 1.5v-135q-9 0 -119.5 1.5t-295.5 1.5 q-39 0 -87 -0.5t-75 -0.5l-1 -1q58 -172 94 -279t62 -186h87.5h100.5q155 0 224 1t80 1v-139q-11 0 -107.5 1t-282.5 1q-94 0 -158.5 -1t-71.5 -1q-2 9 -52.5 161t-144.5 442h-470q-137 -235 -248.5 -427t-119.5 -205zM535 733l1 -1h352l1 1q-31 96 -71 219t-55 169h-2 q-30 -50 -85.5 -146.5t-140.5 -241.5z" />
<glyph unicode="&#xc7;" horiz-adv-x="1182" d="M141 674q0 130 49 237.5t128 187.5q115 116 309 184t415 68h25h20q1 -18 4 -57.5t7 -85.5h-17h-17q-125 0 -258.5 -27t-231.5 -83q-126 -72 -194 -184.5t-68 -242.5q0 -135 65.5 -244t197.5 -184q107 -61 251 -90t261 -29h14.5t24.5 1v-143q0 -111 -35 -186t-110 -117 q-73 -37 -126.5 -49.5t-113.5 -12.5h-6.5h-5.5l-17 115q103 4 155 23t74 41q30 30 44.5 69.5t14.5 117.5q-223 15 -392 75.5t-278 165.5q-85 81 -137 193t-52 257z" />
<glyph unicode="&#xc8;" horiz-adv-x="1237" d="M233 2q2 58 3.5 251t1.5 399q0 113 -1 299t-4 385q71 0 177.5 -1t219.5 -1q191 0 311 1t130 1v-139q-10 0 -125.5 1.5t-287.5 1.5q-75 0 -147 -0.5t-114 -0.5q0 -113 -2 -225.5t-2 -212.5q45 0 106.5 -0.5t109.5 -0.5q176 0 314.5 1.5t147.5 1.5v-138q-8 0 -165 1.5 t-287 1.5q-48 0 -114.5 -0.5t-111.5 -0.5q0 -189 1 -300t2 -186q59 -1 143 -1.5t181 -0.5q149 0 250.5 1t113.5 1v-139q-9 0 -133 1t-307 1q-127 0 -232.5 -1t-178.5 -1zM374 1621l57 120l473 -206l-50 -99z" />
<glyph unicode="&#xc9;" horiz-adv-x="1237" d="M233 2q2 58 3.5 251t1.5 399q0 113 -1 299t-4 385q71 0 177.5 -1t219.5 -1q191 0 311 1t130 1v-139q-10 0 -125.5 1.5t-287.5 1.5q-75 0 -147 -0.5t-114 -0.5q0 -113 -2 -225.5t-2 -212.5q45 0 106.5 -0.5t109.5 -0.5q176 0 314.5 1.5t147.5 1.5v-138q-8 0 -165 1.5 t-287 1.5q-48 0 -114.5 -0.5t-111.5 -0.5q0 -189 1 -300t2 -186q59 -1 143 -1.5t181 -0.5q149 0 250.5 1t113.5 1v-139q-9 0 -133 1t-307 1q-127 0 -232.5 -1t-178.5 -1zM448 1535l473 206l57 -120l-480 -185z" />
<glyph unicode="&#xca;" horiz-adv-x="1237" d="M233 2q2 58 3.5 251t1.5 399q0 113 -1 299t-4 385q71 0 177.5 -1t219.5 -1q191 0 311 1t130 1v-139q-10 0 -125.5 1.5t-287.5 1.5q-75 0 -147 -0.5t-114 -0.5q0 -113 -2 -225.5t-2 -212.5q45 0 106.5 -0.5t109.5 -0.5q176 0 314.5 1.5t147.5 1.5v-138q-8 0 -165 1.5 t-287 1.5q-48 0 -114.5 -0.5t-111.5 -0.5q0 -189 1 -300t2 -186q59 -1 143 -1.5t181 -0.5q149 0 250.5 1t113.5 1v-139q-9 0 -133 1t-307 1q-127 0 -232.5 -1t-178.5 -1zM332 1497l257 226h137l258 -237l-90 -72l-235 212h-2l-234 -200z" />
<glyph unicode="&#xcb;" horiz-adv-x="1237" d="M233 2q2 58 3.5 251t1.5 399q0 113 -1 299t-4 385q71 0 177.5 -1t219.5 -1q191 0 311 1t130 1v-139q-10 0 -125.5 1.5t-287.5 1.5q-75 0 -147 -0.5t-114 -0.5q0 -113 -2 -225.5t-2 -212.5q45 0 106.5 -0.5t109.5 -0.5q176 0 314.5 1.5t147.5 1.5v-138q-8 0 -165 1.5 t-287 1.5q-48 0 -114.5 -0.5t-111.5 -0.5q0 -189 1 -300t2 -186q59 -1 143 -1.5t181 -0.5q149 0 250.5 1t113.5 1v-139q-9 0 -133 1t-307 1q-127 0 -232.5 -1t-178.5 -1zM337 1461v183h191v-183h-191zM799 1461v183h191v-183h-191z" />
<glyph unicode="&#xcc;" horiz-adv-x="635" d="M4 1621l57 120l433 -206l-50 -99zM235 0q1 60 3 214t2 442q0 114 -1 299t-4 384h165q-2 -143 -3.5 -332.5t-1.5 -309.5q0 -304 2 -470.5t3 -226.5h-165z" />
<glyph unicode="&#xcd;" horiz-adv-x="635" d="M141 1535l433 206l57 -120l-440 -185zM235 0q1 60 3 214t2 442q0 114 -1 299t-4 384h165q-2 -143 -3.5 -332.5t-1.5 -309.5q0 -304 2 -470.5t3 -226.5h-165z" />
<glyph unicode="&#xce;" horiz-adv-x="635" d="M21 1492l227 226h137l228 -237l-90 -72l-205 212h-2l-204 -200zM235 0q1 60 3 214t2 442q0 114 -1 299t-4 384h165q-2 -143 -3.5 -332.5t-1.5 -309.5q0 -304 2 -470.5t3 -226.5h-165z" />
<glyph unicode="&#xcf;" horiz-adv-x="635" d="M31 1461v183h191v-183h-191zM235 0q1 60 3 214t2 442q0 114 -1 299t-4 384h165q-2 -143 -3.5 -332.5t-1.5 -309.5q0 -304 2 -470.5t3 -226.5h-165zM413 1461v183h191v-183h-191z" />
<glyph unicode="&#xd0;" horiz-adv-x="1497" d="M22 634v117q8 0 69 -1t147 -1q-1 90 -1.5 235.5t-3.5 354.5q14 0 93.5 1t85.5 1q207 0 367.5 -37t286.5 -117q146 -93 217 -223.5t71 -301.5q0 -176 -86.5 -309t-224.5 -214q-120 -71 -267.5 -108t-331.5 -37q-70 0 -136.5 2t-74.5 2q0 14 2.5 216t2.5 422 q-60 0 -133.5 -1t-82.5 -1zM393 636q0 -49 1 -187.5t1 -321.5h26.5h26.5q130 0 261 30.5t221 84.5q114 68 183.5 172.5t69.5 248.5q0 130 -56 236t-177 182q-113 71 -250.5 99t-249.5 28h-29.5h-24.5q-2 -138 -2.5 -262t-0.5 -197q101 0 208 1t122 1v-117q-10 0 -111.5 1 t-218.5 1z" />
<glyph unicode="&#xd1;" horiz-adv-x="1618" d="M233 0q1 25 3 178t2 426q0 109 -1 289.5t-4 382.5l152 72q18 -23 306.5 -389t543.5 -680l2 1q0 154 -4 518.5t-4 540.5h156q-2 -157 -3.5 -359t-1.5 -291q0 -284 2 -451.5t2 -178.5l-133 -65q-302 408 -564.5 736.5t-303.5 379.5l-2 -1q0 -268 3.5 -658.5t4.5 -450.5 h-156zM485 1444q14 81 76 155.5t161 74.5q37 0 67.5 -11.5t49.5 -25.5q21 -15 42 -33t36 -29q14 -10 29 -15.5t38 -5.5q39 0 67.5 38t43.5 103l106 -20q-16 -85 -76 -157.5t-163 -72.5q-36 0 -68.5 13.5t-46.5 23.5q-19 14 -38.5 30.5t-39.5 31.5q-14 10 -30.5 15.5 t-37.5 5.5q-39 0 -66.5 -39t-43.5 -102z" />
<glyph unicode="&#xd2;" horiz-adv-x="1548" d="M123 671q0 154 47 280.5t141 227.5q87 94 207 145.5t253 51.5q135 0 250 -48.5t199 -134.5q98 -100 148.5 -235.5t50.5 -288.5q0 -162 -55.5 -297.5t-144.5 -223.5q-99 -98 -210 -142.5t-238 -44.5q-124 0 -234 42.5t-198 126.5q-97 91 -156.5 229.5t-59.5 311.5z M294 669q0 -144 45.5 -258t128.5 -193q57 -55 135 -88.5t167 -33.5t166.5 32.5t140.5 93.5q75 72 123 183.5t48 247.5q0 130 -43.5 255.5t-132.5 210.5q-60 58 -134.5 90t-166.5 32q-90 0 -167.5 -32.5t-140.5 -95.5q-80 -80 -124.5 -198t-44.5 -246zM454 1621l57 120 l473 -206l-50 -99z" />
<glyph unicode="&#xd3;" horiz-adv-x="1548" d="M123 671q0 154 47 280.5t141 227.5q87 94 207 145.5t253 51.5q135 0 250 -48.5t199 -134.5q98 -100 148.5 -235.5t50.5 -288.5q0 -162 -55.5 -297.5t-144.5 -223.5q-99 -98 -210 -142.5t-238 -44.5q-124 0 -234 42.5t-198 126.5q-97 91 -156.5 229.5t-59.5 311.5z M294 669q0 -144 45.5 -258t128.5 -193q57 -55 135 -88.5t167 -33.5t166.5 32.5t140.5 93.5q75 72 123 183.5t48 247.5q0 130 -43.5 255.5t-132.5 210.5q-60 58 -134.5 90t-166.5 32q-90 0 -167.5 -32.5t-140.5 -95.5q-80 -80 -124.5 -198t-44.5 -246zM558 1535l473 206 l57 -120l-480 -185z" />
<glyph unicode="&#xd4;" horiz-adv-x="1548" d="M123 671q0 154 47 280.5t141 227.5q87 94 207 145.5t253 51.5q135 0 250 -48.5t199 -134.5q98 -100 148.5 -235.5t50.5 -288.5q0 -162 -55.5 -297.5t-144.5 -223.5q-99 -98 -210 -142.5t-238 -44.5q-124 0 -234 42.5t-198 126.5q-97 91 -156.5 229.5t-59.5 311.5z M294 669q0 -144 45.5 -258t128.5 -193q57 -55 135 -88.5t167 -33.5t166.5 32.5t140.5 93.5q75 72 123 183.5t48 247.5q0 130 -43.5 255.5t-132.5 210.5q-60 58 -134.5 90t-166.5 32q-90 0 -167.5 -32.5t-140.5 -95.5q-80 -80 -124.5 -198t-44.5 -246zM445 1492l257 226h137 l258 -237l-90 -72l-235 212h-2l-234 -200z" />
<glyph unicode="&#xd5;" horiz-adv-x="1548" d="M123 671q0 154 47 280.5t141 227.5q87 94 207 145.5t253 51.5q135 0 250 -48.5t199 -134.5q98 -100 148.5 -235.5t50.5 -288.5q0 -162 -55.5 -297.5t-144.5 -223.5q-99 -98 -210 -142.5t-238 -44.5q-124 0 -234 42.5t-198 126.5q-97 91 -156.5 229.5t-59.5 311.5z M294 669q0 -144 45.5 -258t128.5 -193q57 -55 135 -88.5t167 -33.5t166.5 32.5t140.5 93.5q75 72 123 183.5t48 247.5q0 130 -43.5 255.5t-132.5 210.5q-60 58 -134.5 90t-166.5 32q-90 0 -167.5 -32.5t-140.5 -95.5q-80 -80 -124.5 -198t-44.5 -246zM414 1444 q14 81 76 155.5t161 74.5q37 0 67.5 -11.5t49.5 -25.5q21 -15 42 -33t36 -29q14 -10 29 -15.5t38 -5.5q39 0 67.5 38t43.5 103l106 -20q-16 -85 -76 -157.5t-163 -72.5q-36 0 -68.5 13.5t-46.5 23.5q-19 14 -38.5 30.5t-39.5 31.5q-14 10 -30.5 15.5t-37.5 5.5 q-39 0 -66.5 -39t-43.5 -102z" />
<glyph unicode="&#xd6;" horiz-adv-x="1548" d="M123 671q0 154 47 280.5t141 227.5q87 94 207 145.5t253 51.5q135 0 250 -48.5t199 -134.5q98 -100 148.5 -235.5t50.5 -288.5q0 -162 -55.5 -297.5t-144.5 -223.5q-99 -98 -210 -142.5t-238 -44.5q-124 0 -234 42.5t-198 126.5q-97 91 -156.5 229.5t-59.5 311.5z M294 669q0 -144 45.5 -258t128.5 -193q57 -55 135 -88.5t167 -33.5t166.5 32.5t140.5 93.5q75 72 123 183.5t48 247.5q0 130 -43.5 255.5t-132.5 210.5q-60 58 -134.5 90t-166.5 32q-90 0 -167.5 -32.5t-140.5 -95.5q-80 -80 -124.5 -198t-44.5 -246zM446 1461v183h191v-183 h-191zM908 1461v183h191v-183h-191z" />
<glyph unicode="&#xd7;" horiz-adv-x="1800" d="M430 191l387 387l-386 386l80 80l386 -386l388 389l83 -83l-387 -388l387 -386l-83 -83l-386 387l-386 -386z" />
<glyph unicode="&#xd8;" horiz-adv-x="1548" d="M123 671q0 154 47 280.5t141 227.5q87 94 207 145.5t253 51.5q99 0 188 -27t166 -79q31 48 58.5 88t56.5 85l76 -50q-30 -42 -57 -81.5t-66 -95.5q113 -98 169.5 -243t56.5 -304q0 -162 -55.5 -297.5t-144.5 -223.5q-99 -98 -210 -142.5t-238 -44.5q-98 0 -186 26.5 t-163 79.5q-68 -103 -97.5 -147.5t-37.5 -57.5l-75 52q9 13 44.5 64t95.5 142q-101 88 -165 231t-64 320zM294 669q0 -144 45.5 -258t128.5 -193q57 -55 135 -88.5t167 -33.5t166.5 32.5t140.5 93.5q75 72 123 183.5t48 247.5q0 130 -43.5 255.5t-132.5 210.5 q-60 58 -134.5 90t-166.5 32q-90 0 -167.5 -32.5t-140.5 -95.5q-80 -80 -124.5 -198t-44.5 -246zM405 199q57 84 161.5 238.5t164.5 244.5q52 77 147 217.5t191 287.5l72 -47q-102 -145 -195 -285t-142 -212q-82 -120 -169.5 -252.5t-161.5 -243.5z" />
<glyph unicode="&#xd9;" horiz-adv-x="1547" d="M223 1339h165q-1 -25 -2.5 -170.5t-1.5 -382.5q0 -72 0.5 -149t0.5 -158q0 -183 105 -277.5t284 -94.5q194 0 291 90t97 282q0 81 0.5 158t0.5 149q0 237 -2 388t-2 165h165q0 -192 -2 -317.5t-2 -218.5q0 -114 0.5 -194.5t0.5 -139.5q0 -116 -34.5 -204.5t-104.5 -154.5 t-172 -103.5t-236 -37.5t-236 37t-173 104q-70 66 -104.5 154.5t-34.5 204.5q0 59 0.5 139.5t0.5 194.5q0 93 -2 218.5t-2 317.5zM451 1621l57 120l473 -206l-50 -99z" />
<glyph unicode="&#xda;" horiz-adv-x="1547" d="M223 1339h165q-1 -25 -2.5 -170.5t-1.5 -382.5q0 -72 0.5 -149t0.5 -158q0 -183 105 -277.5t284 -94.5q194 0 291 90t97 282q0 81 0.5 158t0.5 149q0 237 -2 388t-2 165h165q0 -192 -2 -317.5t-2 -218.5q0 -114 0.5 -194.5t0.5 -139.5q0 -116 -34.5 -204.5t-104.5 -154.5 t-172 -103.5t-236 -37.5t-236 37t-173 104q-70 66 -104.5 154.5t-34.5 204.5q0 59 0.5 139.5t0.5 194.5q0 93 -2 218.5t-2 317.5zM566 1535l473 206l57 -120l-480 -185z" />
<glyph unicode="&#xdb;" horiz-adv-x="1547" d="M223 1339h165q-1 -25 -2.5 -170.5t-1.5 -382.5q0 -72 0.5 -149t0.5 -158q0 -183 105 -277.5t284 -94.5q194 0 291 90t97 282q0 81 0.5 158t0.5 149q0 237 -2 388t-2 165h165q0 -192 -2 -317.5t-2 -218.5q0 -114 0.5 -194.5t0.5 -139.5q0 -116 -34.5 -204.5t-104.5 -154.5 t-172 -103.5t-236 -37.5t-236 37t-173 104q-70 66 -104.5 154.5t-34.5 204.5q0 59 0.5 139.5t0.5 194.5q0 93 -2 218.5t-2 317.5zM448 1492l257 226h137l258 -237l-90 -72l-235 212h-2l-234 -200z" />
<glyph unicode="&#xdc;" horiz-adv-x="1547" d="M223 1339h165q-1 -25 -2.5 -170.5t-1.5 -382.5q0 -72 0.5 -149t0.5 -158q0 -183 105 -277.5t284 -94.5q194 0 291 90t97 282q0 81 0.5 158t0.5 149q0 237 -2 388t-2 165h165q0 -192 -2 -317.5t-2 -218.5q0 -114 0.5 -194.5t0.5 -139.5q0 -116 -34.5 -204.5t-104.5 -154.5 t-172 -103.5t-236 -37.5t-236 37t-173 104q-70 66 -104.5 154.5t-34.5 204.5q0 59 0.5 139.5t0.5 194.5q0 93 -2 218.5t-2 317.5zM447 1461v183h191v-183h-191zM909 1461v183h191v-183h-191z" />
<glyph unicode="&#xdd;" horiz-adv-x="1186" d="M20 1262l132 100q13 -17 157 -210t290 -383h2q141 181 295.5 381.5t162.5 211.5l117 -88q-8 -10 -198 -249t-306 -386q-2 -181 0.5 -380t3.5 -259h-165q2 60 4 262.5t1 364.5q-122 161 -302 389.5t-194 245.5zM456 1535l473 206l57 -120l-480 -185z" />
<glyph unicode="&#xde;" horiz-adv-x="1157" d="M233 -1q0 14 2.5 199t2.5 527q0 184 -2.5 387.5t-2.5 227.5h165l-2 -200q149 0 272.5 -19t215.5 -78q91 -57 139 -148.5t48 -213.5q0 -118 -56.5 -210.5t-140.5 -146.5q-76 -52 -187.5 -76.5t-290.5 -24.5l2 -224h-165zM394 640q0 -74 0.5 -172.5t0.5 -117.5h21h19 q67 0 142.5 9t129.5 33q100 44 146.5 115.5t46.5 173.5q0 103 -47 175.5t-144 114.5q-60 26 -130 32.5t-144 6.5h-18h-19q0 -17 -2 -153t-2 -217z" />
<glyph unicode="&#xdf;" horiz-adv-x="1229" d="M183 0q0 17 2 204t2 323v220.5v259.5q0 116 30.5 198.5t85.5 137.5q50 51 131.5 87t194.5 36q95 0 173 -28.5t143 -92.5q55 -54 84 -130t33 -161q3 -62 3 -107.5v-55.5q-13 1 -26 1h-33q-84 0 -130 -4t-92 -28q-44 -23 -61 -53.5t-17 -65.5q0 -41 27 -70t58 -47 q35 -21 92.5 -48t102.5 -56q58 -36 100.5 -90t42.5 -137q0 -74 -36 -132t-94 -94q-61 -38 -145 -57.5t-184 -19.5q-31 0 -82.5 4t-65.5 5l-9 131q17 -2 72.5 -5.5t112.5 -3.5q28 0 84 6.5t92 22.5q49 22 73.5 55t24.5 76q0 40 -21 65.5t-58 50.5q-50 33 -116.5 63t-117.5 65 t-79.5 90t-28.5 122q0 79 39 136.5t108 94.5q54 30 115.5 39t119.5 10q-4 105 -36 164.5t-66 90.5q-39 37 -90 56t-122 19q-62 0 -113.5 -22t-88.5 -59q-34 -33 -55.5 -95t-22.5 -158q-2 -170 -2 -279.5v-207.5q0 -135 2 -322.5t2 -203.5h-158z" />
<glyph unicode="&#xe0;" horiz-adv-x="1052" d="M82 297q0 95 58.5 164.5t162.5 112.5q65 27 173.5 48.5t247.5 32.5q-6 78 -39 128t-97 76q-44 18 -98 25.5t-126 7.5q-45 0 -76.5 -2t-85.5 -5l16 133q15 1 59.5 3.5t121.5 2.5q118 0 210.5 -24.5t153.5 -79.5q57 -52 86 -128.5t29 -221.5q0 -248 -1 -404t-1 -168 q-10 -1 -93 -7.5t-214 -6.5q-82 0 -165 15t-143 43q-80 37 -129.5 101t-49.5 154zM143 1363l72 113l429 -252l-62 -93zM242 306q0 -68 37 -109.5t101 -63.5q49 -17 108.5 -24.5t125.5 -7.5q20 0 49 1t61 2q0 7 0.5 66t0.5 159v86t-1 120q-44 -2 -154 -17.5t-185 -44.5 q-56 -21 -99.5 -63t-43.5 -104z" />
<glyph unicode="&#xe1;" horiz-adv-x="1052" d="M82 297q0 95 58.5 164.5t162.5 112.5q65 27 173.5 48.5t247.5 32.5q-6 78 -39 128t-97 76q-44 18 -98 25.5t-126 7.5q-45 0 -76.5 -2t-85.5 -5l16 133q15 1 59.5 3.5t121.5 2.5q118 0 210.5 -24.5t153.5 -79.5q57 -52 86 -128.5t29 -221.5q0 -248 -1 -404t-1 -168 q-10 -1 -93 -7.5t-214 -6.5q-82 0 -165 15t-143 43q-80 37 -129.5 101t-49.5 154zM242 306q0 -68 37 -109.5t101 -63.5q49 -17 108.5 -24.5t125.5 -7.5q20 0 49 1t61 2q0 7 0.5 66t0.5 159v86t-1 120q-44 -2 -154 -17.5t-185 -44.5q-56 -21 -99.5 -63t-43.5 -104zM322 1224 l429 252l70 -113l-439 -232z" />
<glyph unicode="&#xe2;" horiz-adv-x="1052" d="M82 297q0 95 58.5 164.5t162.5 112.5q65 27 173.5 48.5t247.5 32.5q-6 78 -39 128t-97 76q-44 18 -98 25.5t-126 7.5q-45 0 -76.5 -2t-85.5 -5l16 133q15 1 59.5 3.5t121.5 2.5q118 0 210.5 -24.5t153.5 -79.5q57 -52 86 -128.5t29 -221.5q0 -248 -1 -404t-1 -168 q-10 -1 -93 -7.5t-214 -6.5q-82 0 -165 15t-143 43q-80 37 -129.5 101t-49.5 154zM164 1177l261 289h123l262 -289l-89 -68l-233 258h-2l-233 -258zM242 306q0 -68 37 -109.5t101 -63.5q49 -17 108.5 -24.5t125.5 -7.5q20 0 49 1t61 2q0 7 0.5 66t0.5 159v86t-1 120 q-44 -2 -154 -17.5t-185 -44.5q-56 -21 -99.5 -63t-43.5 -104z" />
<glyph unicode="&#xe3;" horiz-adv-x="1052" d="M82 297q0 95 58.5 164.5t162.5 112.5q65 27 173.5 48.5t247.5 32.5q-6 78 -39 128t-97 76q-44 18 -98 25.5t-126 7.5q-45 0 -76.5 -2t-85.5 -5l16 133q15 1 59.5 3.5t121.5 2.5q118 0 210.5 -24.5t153.5 -79.5q57 -52 86 -128.5t29 -221.5q0 -248 -1 -404t-1 -168 q-10 -1 -93 -7.5t-214 -6.5q-82 0 -165 15t-143 43q-80 37 -129.5 101t-49.5 154zM178 1190q22 105 80.5 165.5t143.5 60.5q31 0 57 -10t53 -29q17 -13 36 -28.5t33 -25.5q13 -11 27.5 -16t35.5 -5q37 0 63.5 38.5t40.5 99.5l101 -20q-23 -109 -82 -167.5t-145 -58.5 q-33 0 -59 11.5t-48 27.5q-19 15 -32.5 26t-36.5 28q-11 9 -28 15t-35 6q-36 0 -62 -36.5t-42 -101.5zM242 306q0 -68 37 -109.5t101 -63.5q49 -17 108.5 -24.5t125.5 -7.5q20 0 49 1t61 2q0 7 0.5 66t0.5 159v86t-1 120q-44 -2 -154 -17.5t-185 -44.5q-56 -21 -99.5 -63 t-43.5 -104z" />
<glyph unicode="&#xe4;" horiz-adv-x="1052" d="M82 297q0 95 58.5 164.5t162.5 112.5q65 27 173.5 48.5t247.5 32.5q-6 78 -39 128t-97 76q-44 18 -98 25.5t-126 7.5q-45 0 -76.5 -2t-85.5 -5l16 133q15 1 59.5 3.5t121.5 2.5q118 0 210.5 -24.5t153.5 -79.5q57 -52 86 -128.5t29 -221.5q0 -248 -1 -404t-1 -168 q-10 -1 -93 -7.5t-214 -6.5q-82 0 -165 15t-143 43q-80 37 -129.5 101t-49.5 154zM202 1206v170h169v-170h-169zM242 306q0 -68 37 -109.5t101 -63.5q49 -17 108.5 -24.5t125.5 -7.5q20 0 49 1t61 2q0 7 0.5 66t0.5 159v86t-1 120q-44 -2 -154 -17.5t-185 -44.5 q-56 -21 -99.5 -63t-43.5 -104zM634 1206v170h169v-170h-169z" />
<glyph unicode="&#xe5;" horiz-adv-x="1052" d="M82 297q0 95 58.5 164.5t162.5 112.5q65 27 173.5 48.5t247.5 32.5q-6 78 -39 128t-97 76q-44 18 -98 25.5t-126 7.5q-45 0 -76.5 -2t-85.5 -5l16 133q15 1 59.5 3.5t121.5 2.5q118 0 210.5 -24.5t153.5 -79.5q57 -52 86 -128.5t29 -221.5q0 -248 -1 -404t-1 -168 q-10 -1 -93 -7.5t-214 -6.5q-82 0 -165 15t-143 43q-80 37 -129.5 101t-49.5 154zM242 306q0 -68 37 -109.5t101 -63.5q49 -17 108.5 -24.5t125.5 -7.5q20 0 49 1t61 2q0 7 0.5 66t0.5 159v86t-1 120q-44 -2 -154 -17.5t-185 -44.5q-56 -21 -99.5 -63t-43.5 -104zM323 1289 q0 82 57 136t135 54t135 -54.5t57 -135.5q0 -79 -57 -134.5t-137 -55.5t-135 55t-55 135zM411 1290q0 -47 30.5 -77t74.5 -30t73.5 31t29.5 76t-29.5 75t-73.5 30q-45 0 -75 -29.5t-30 -75.5z" />
<glyph unicode="&#xe6;" horiz-adv-x="1653" d="M82 306q0 84 53 157t172 119q83 32 191 49.5t215 22.5q-4 76 -39.5 128t-97.5 77q-44 18 -98 25.5t-126 7.5q-45 0 -82 -2t-91 -5l16 133q12 0 63.5 3.5t128.5 3.5q153 0 258.5 -41t158.5 -135h2q53 82 150.5 135.5t209.5 53.5q93 0 164.5 -27.5t123.5 -84.5 q59 -64 89 -159.5t30 -223.5h-714q1 -108 45.5 -196.5t135.5 -146.5q58 -37 132.5 -55t178.5 -18q36 0 83 3t59 5l-18 -133q-11 -1 -43.5 -3.5t-94.5 -2.5q-160 0 -276 40.5t-196 116.5q-76 73 -115.5 171.5t-39.5 209.5q-40 -1 -139 -11.5t-183 -42.5q-63 -22 -103 -67 t-40 -101q0 -71 36.5 -107.5t98.5 -58.5q47 -17 115.5 -20t124.5 -3q31 0 78 3.5t56 5.5l-18 -129q-12 -2 -65 -5t-93 -3q-90 0 -176 14t-147 44q-87 43 -130 105.5t-43 147.5zM865 655h554q-17 128 -81.5 196.5t-179.5 68.5q-113 0 -188.5 -69.5t-104.5 -195.5z" />
<glyph unicode="&#xe7;" horiz-adv-x="930" d="M84 511q0 120 62 220.5t162 164.5q90 58 215.5 88.5t259.5 30.5h22.5h18.5l8 -134h-15.5h-15.5q-111 0 -189.5 -13.5t-152.5 -44.5q-99 -40 -157 -126t-58 -184q0 -117 55.5 -196.5t145.5 -122.5q70 -34 162 -49t190 -15h30h21v-106q0 -110 -34.5 -187t-109.5 -118 q-31 -17 -87.5 -36t-122.5 -23l-18 109q75 4 123.5 21.5t69.5 38.5q31 31 45.5 65.5t14.5 107.5q-107 5 -205.5 25.5t-181.5 65.5q-121 66 -189.5 175t-68.5 243z" />
<glyph unicode="&#xe8;" horiz-adv-x="1044" d="M87 519q0 114 34 206t102 171q59 68 146.5 105t181.5 37q93 0 165 -28t125 -85q59 -64 90 -157.5t32 -224.5h-723q1 -106 45 -194.5t135 -146.5q58 -37 132 -55.5t178 -18.5q57 0 104.5 3t58.5 4l-18 -133q-8 -1 -53 -3.5t-106 -2.5q-160 0 -278.5 41.5t-194.5 114.5 q-65 61 -110.5 156t-45.5 211zM211 1363l72 113l429 -252l-62 -93zM252 655h556q-16 124 -84.5 194.5t-180.5 70.5t-187 -71.5t-104 -193.5z" />
<glyph unicode="&#xe9;" horiz-adv-x="1044" d="M87 519q0 114 34 206t102 171q59 68 146.5 105t181.5 37q93 0 165 -28t125 -85q59 -64 90 -157.5t32 -224.5h-723q1 -106 45 -194.5t135 -146.5q58 -37 132 -55.5t178 -18.5q57 0 104.5 3t58.5 4l-18 -133q-8 -1 -53 -3.5t-106 -2.5q-160 0 -278.5 41.5t-194.5 114.5 q-65 61 -110.5 156t-45.5 211zM252 655h556q-16 124 -84.5 194.5t-180.5 70.5t-187 -71.5t-104 -193.5zM392 1224l429 252l70 -113l-439 -232z" />
<glyph unicode="&#xea;" horiz-adv-x="1044" d="M87 519q0 114 34 206t102 171q59 68 146.5 105t181.5 37q93 0 165 -28t125 -85q59 -64 90 -157.5t32 -224.5h-723q1 -106 45 -194.5t135 -146.5q58 -37 132 -55.5t178 -18.5q57 0 104.5 3t58.5 4l-18 -133q-8 -1 -53 -3.5t-106 -2.5q-160 0 -278.5 41.5t-194.5 114.5 q-65 61 -110.5 156t-45.5 211zM223 1177l261 289h123l262 -289l-89 -68l-233 258h-2l-233 -258zM252 655h556q-16 124 -84.5 194.5t-180.5 70.5t-187 -71.5t-104 -193.5z" />
<glyph unicode="&#xeb;" horiz-adv-x="1044" d="M87 519q0 114 34 206t102 171q59 68 146.5 105t181.5 37q93 0 165 -28t125 -85q59 -64 90 -157.5t32 -224.5h-723q1 -106 45 -194.5t135 -146.5q58 -37 132 -55.5t178 -18.5q57 0 104.5 3t58.5 4l-18 -133q-8 -1 -53 -3.5t-106 -2.5q-160 0 -278.5 41.5t-194.5 114.5 q-65 61 -110.5 156t-45.5 211zM250 1206v170h169v-170h-169zM252 655h556q-16 124 -84.5 194.5t-180.5 70.5t-187 -71.5t-104 -193.5zM682 1206v170h169v-170h-169z" />
<glyph unicode="&#xec;" horiz-adv-x="545" d="M0 1366l77 110l359 -255l-62 -93zM194 0q1 16 2.5 197t1.5 299q0 103 -0.5 226.5t-3.5 289.5h158q-2 -144 -3.5 -269.5t-1.5 -223.5q0 -233 2.5 -374t2.5 -145h-158z" />
<glyph unicode="&#xed;" horiz-adv-x="545" d="M110 1221l359 255l77 -110l-374 -238zM194 0q1 16 2.5 197t1.5 299q0 103 -0.5 226.5t-3.5 289.5h158q-2 -144 -3.5 -269.5t-1.5 -223.5q0 -233 2.5 -374t2.5 -145h-158z" />
<glyph unicode="&#xee;" horiz-adv-x="545" d="M-6 1167l221 299h117l222 -299l-89 -64l-190 259h-2l-190 -259zM194 0q1 16 2.5 197t1.5 299q0 103 -0.5 226.5t-3.5 289.5h158q-2 -144 -3.5 -269.5t-1.5 -223.5q0 -233 2.5 -374t2.5 -145h-158z" />
<glyph unicode="&#xef;" horiz-adv-x="545" d="M17 1206v170h169v-170h-169zM194 0q1 16 2.5 197t1.5 299q0 103 -0.5 226.5t-3.5 289.5h158q-2 -144 -3.5 -269.5t-1.5 -223.5q0 -233 2.5 -374t2.5 -145h-158zM360 1206v170h169v-170h-169z" />
<glyph unicode="&#xf0;" horiz-adv-x="1128" d="M96 445q0 118 66.5 223.5t189.5 174.5q78 44 148 68.5t130 42.5v3q-25 26 -68.5 75t-102.5 112q-38 -32 -93 -80t-96 -82l-58 70q47 37 97 76.5t93 75.5q-44 48 -79.5 84.5t-89.5 89.5l106 90q39 -43 80.5 -87.5t84.5 -91.5q77 65 126.5 108t59.5 53l59 -70 q-16 -12 -58 -46t-132 -106q23 -24 106 -116t140 -162q119 -141 171.5 -257t52.5 -246q0 -107 -34 -191t-92 -140q-76 -74 -154.5 -108t-187.5 -34q-102 0 -181.5 32t-144.5 96q-65 63 -102 152.5t-37 190.5zM255 438q0 -74 23 -138.5t73 -115.5q43 -42 89.5 -64.5 t124.5 -22.5q64 0 116 21.5t97 65.5q47 46 69.5 115t22.5 148q0 108 -42.5 210t-122.5 192q-44 -9 -104 -28t-125 -50q-92 -44 -156.5 -132.5t-64.5 -200.5z" />
<glyph unicode="&#xf1;" horiz-adv-x="1190" d="M183 0q0 7 2 122.5t2 343.5q0 105 -0.5 246t-3.5 300h156l-1 -115l1 -2q140 80 233.5 111.5t155.5 31.5q128 0 205.5 -80.5t77.5 -220.5q0 -126 -1.5 -217.5t-1.5 -148.5q0 -91 2.5 -227.5t2.5 -143.5h-158q1 28 2.5 185t1.5 194q0 52 -0.5 153.5t-1.5 148.5 q-3 115 -44 165t-142 50q-61 0 -151 -36t-182 -92q0 -11 -1 -119t-1 -197q0 -116 2.5 -280t2.5 -172h-158zM269 1190q22 105 80.5 165.5t143.5 60.5q31 0 57 -10t53 -29q17 -13 36 -28.5t33 -25.5q13 -11 27.5 -16t35.5 -5q37 0 63.5 38.5t40.5 99.5l101 -20 q-23 -109 -82 -167.5t-145 -58.5q-33 0 -59 11.5t-48 27.5q-19 15 -32.5 26t-36.5 28q-11 9 -28 15t-35 6q-36 0 -62 -36.5t-42 -101.5z" />
<glyph unicode="&#xf2;" horiz-adv-x="1165" d="M93 508q0 115 35.5 211.5t110.5 173.5q67 70 156 107.5t188 37.5q104 0 188.5 -34.5t150.5 -103.5q76 -79 113 -177.5t37 -216.5q0 -116 -41.5 -222t-119.5 -181q-66 -63 -146.5 -96t-182.5 -33q-96 0 -180 32.5t-150 95.5q-76 73 -117.5 180t-41.5 226zM243 1363l72 113 l429 -252l-62 -93zM253 508q0 -102 31 -187.5t100 -147.5q39 -35 90 -53.5t108 -18.5q63 0 117.5 22t95.5 64q57 58 87 140t30 172q0 94 -30.5 183t-94.5 150q-39 38 -92.5 58.5t-111.5 20.5q-69 0 -120 -22t-96 -69q-53 -54 -83.5 -138t-30.5 -174z" />
<glyph unicode="&#xf3;" horiz-adv-x="1165" d="M93 508q0 115 35.5 211.5t110.5 173.5q67 70 156 107.5t188 37.5q104 0 188.5 -34.5t150.5 -103.5q76 -79 113 -177.5t37 -216.5q0 -116 -41.5 -222t-119.5 -181q-66 -63 -146.5 -96t-182.5 -33q-96 0 -180 32.5t-150 95.5q-76 73 -117.5 180t-41.5 226zM253 508 q0 -102 31 -187.5t100 -147.5q39 -35 90 -53.5t108 -18.5q63 0 117.5 22t95.5 64q57 58 87 140t30 172q0 94 -30.5 183t-94.5 150q-39 38 -92.5 58.5t-111.5 20.5q-69 0 -120 -22t-96 -69q-53 -54 -83.5 -138t-30.5 -174zM424 1224l429 252l70 -113l-439 -232z" />
<glyph unicode="&#xf4;" horiz-adv-x="1165" d="M93 508q0 115 35.5 211.5t110.5 173.5q67 70 156 107.5t188 37.5q104 0 188.5 -34.5t150.5 -103.5q76 -79 113 -177.5t37 -216.5q0 -116 -41.5 -222t-119.5 -181q-66 -63 -146.5 -96t-182.5 -33q-96 0 -180 32.5t-150 95.5q-76 73 -117.5 180t-41.5 226zM253 508 q0 -102 31 -187.5t100 -147.5q39 -35 90 -53.5t108 -18.5q63 0 117.5 22t95.5 64q57 58 87 140t30 172q0 94 -30.5 183t-94.5 150q-39 38 -92.5 58.5t-111.5 20.5q-69 0 -120 -22t-96 -69q-53 -54 -83.5 -138t-30.5 -174zM260 1177l261 289h123l262 -289l-89 -68l-233 258 h-2l-233 -258z" />
<glyph unicode="&#xf5;" horiz-adv-x="1165" d="M93 508q0 115 35.5 211.5t110.5 173.5q67 70 156 107.5t188 37.5q104 0 188.5 -34.5t150.5 -103.5q76 -79 113 -177.5t37 -216.5q0 -116 -41.5 -222t-119.5 -181q-66 -63 -146.5 -96t-182.5 -33q-96 0 -180 32.5t-150 95.5q-76 73 -117.5 180t-41.5 226zM248 1190 q22 105 80.5 165.5t143.5 60.5q31 0 57 -10t53 -29q17 -13 36 -28.5t33 -25.5q13 -11 27.5 -16t35.5 -5q37 0 63.5 38.5t40.5 99.5l101 -20q-23 -109 -82 -167.5t-145 -58.5q-33 0 -59 11.5t-48 27.5q-19 15 -32.5 26t-36.5 28q-11 9 -28 15t-35 6q-36 0 -62 -36.5 t-42 -101.5zM253 508q0 -102 31 -187.5t100 -147.5q39 -35 90 -53.5t108 -18.5q63 0 117.5 22t95.5 64q57 58 87 140t30 172q0 94 -30.5 183t-94.5 150q-39 38 -92.5 58.5t-111.5 20.5q-69 0 -120 -22t-96 -69q-53 -54 -83.5 -138t-30.5 -174z" />
<glyph unicode="&#xf6;" horiz-adv-x="1165" d="M93 508q0 115 35.5 211.5t110.5 173.5q67 70 156 107.5t188 37.5q104 0 188.5 -34.5t150.5 -103.5q76 -79 113 -177.5t37 -216.5q0 -116 -41.5 -222t-119.5 -181q-66 -63 -146.5 -96t-182.5 -33q-96 0 -180 32.5t-150 95.5q-76 73 -117.5 180t-41.5 226zM253 508 q0 -102 31 -187.5t100 -147.5q39 -35 90 -53.5t108 -18.5q63 0 117.5 22t95.5 64q57 58 87 140t30 172q0 94 -30.5 183t-94.5 150q-39 38 -92.5 58.5t-111.5 20.5q-69 0 -120 -22t-96 -69q-53 -54 -83.5 -138t-30.5 -174zM282 1206v170h169v-170h-169zM714 1206v170h169 v-170h-169z" />
<glyph unicode="&#xf7;" horiz-adv-x="1800" d="M368 519v117h1064v-117h-1064zM800 95v207h196v-207h-196zM800 853v207h196v-207h-196z" />
<glyph unicode="&#xf8;" horiz-adv-x="1165" d="M93 508q0 115 35.5 211.5t110.5 173.5q67 70 156 107.5t188 37.5q75 0 141 -20.5t119 -55.5q18 28 42.5 64t53.5 82l71 -45q-26 -36 -50.5 -72.5t-53.5 -77.5q84 -80 125 -182.5t41 -224.5q0 -116 -41.5 -222t-119.5 -181q-66 -63 -146.5 -96t-182.5 -33q-69 0 -136 19.5 t-122 54.5q-41 -62 -68.5 -105.5t-33.5 -52.5l-69 48q5 6 31 45l76 114q-80 75 -123.5 182t-43.5 229zM253 508q0 -102 31 -187.5t100 -147.5q39 -35 90 -53.5t108 -18.5q63 0 117.5 22t95.5 64q57 58 87 140t30 172q0 94 -30.5 183t-94.5 150q-39 38 -92.5 58.5 t-111.5 20.5q-69 0 -120 -22t-96 -69q-53 -54 -83.5 -138t-30.5 -174zM305 163q36 54 114 168.5t126 185.5q61 92 136 204t121 182l60 -52q-60 -87 -126 -185t-123 -182q-72 -106 -133 -198.5t-113 -171.5z" />
<glyph unicode="&#xf9;" horiz-adv-x="1190" d="M177 1012h158q0 -13 -2 -144t-2 -209q0 -69 1 -172t1 -146q2 -118 41 -173t126 -55q89 0 195.5 48t156.5 84q0 12 1 110.5t1 245.5q0 105 -2.5 251.5t-2.5 159.5h158q0 -17 -2 -112.5t-2 -325.5q0 -129 1 -226.5t3 -347.5h-153v116l-1 1q-70 -46 -174.5 -94.5 t-205.5 -48.5q-138 0 -216 82t-78 230q0 80 1.5 190.5t1.5 160.5q0 91 -2.5 224.5t-2.5 150.5zM253 1363l72 113l429 -252l-62 -93z" />
<glyph unicode="&#xfa;" horiz-adv-x="1190" d="M177 1012h158q0 -13 -2 -144t-2 -209q0 -69 1 -172t1 -146q2 -118 41 -173t126 -55q89 0 195.5 48t156.5 84q0 12 1 110.5t1 245.5q0 105 -2.5 251.5t-2.5 159.5h158q0 -17 -2 -112.5t-2 -325.5q0 -129 1 -226.5t3 -347.5h-153v116l-1 1q-70 -46 -174.5 -94.5 t-205.5 -48.5q-138 0 -216 82t-78 230q0 80 1.5 190.5t1.5 160.5q0 91 -2.5 224.5t-2.5 150.5zM434 1224l429 252l70 -113l-439 -232z" />
<glyph unicode="&#xfb;" horiz-adv-x="1190" d="M177 1012h158q0 -13 -2 -144t-2 -209q0 -69 1 -172t1 -146q2 -118 41 -173t126 -55q89 0 195.5 48t156.5 84q0 12 1 110.5t1 245.5q0 105 -2.5 251.5t-2.5 159.5h158q0 -17 -2 -112.5t-2 -325.5q0 -129 1 -226.5t3 -347.5h-153v116l-1 1q-70 -46 -174.5 -94.5 t-205.5 -48.5q-138 0 -216 82t-78 230q0 80 1.5 190.5t1.5 160.5q0 91 -2.5 224.5t-2.5 150.5zM271 1177l261 289h123l262 -289l-89 -68l-233 258h-2l-233 -258z" />
<glyph unicode="&#xfc;" horiz-adv-x="1190" d="M177 1012h158q0 -13 -2 -144t-2 -209q0 -69 1 -172t1 -146q2 -118 41 -173t126 -55q89 0 195.5 48t156.5 84q0 12 1 110.5t1 245.5q0 105 -2.5 251.5t-2.5 159.5h158q0 -17 -2 -112.5t-2 -325.5q0 -129 1 -226.5t3 -347.5h-153v116l-1 1q-70 -46 -174.5 -94.5 t-205.5 -48.5q-138 0 -216 82t-78 230q0 80 1.5 190.5t1.5 160.5q0 91 -2.5 224.5t-2.5 150.5zM292 1206v170h169v-170h-169zM724 1206v170h169v-170h-169z" />
<glyph unicode="&#xfd;" horiz-adv-x="1096" d="M56 965l150 65q110 -278 224 -549.5t120 -285.5h2q6 10 114 266t236 565l137 -55q-195 -430 -410.5 -913.5t-229.5 -514.5l-138 51l207 429q-8 20 -125.5 292t-286.5 650zM418 1224l429 252l70 -113l-439 -232z" />
<glyph unicode="&#xfe;" horiz-adv-x="1136" d="M183 -455q0 23 2 265.5t2 691.5q0 212 -1 485t-3 479h158l-3 -445q180 -1 290.5 -23t203.5 -77q101 -59 159 -157.5t58 -226.5q0 -155 -69 -263.5t-186 -171.5q-102 -54 -224 -76t-232 -22l4 -459h-159zM337 475q0 -52 0.5 -170t0.5 -176q94 0 188 17.5t155 47.5 q102 50 155 133t53 205q0 98 -46 172t-120 117q-67 38 -152.5 55.5t-185.5 17.5h-22h-23q0 -20 -1.5 -159.5t-1.5 -259.5z" />
<glyph unicode="&#xff;" horiz-adv-x="1096" d="M56 965l150 65q110 -278 224 -549.5t120 -285.5h2q6 10 114 266t236 565l137 -55q-195 -430 -410.5 -913.5t-229.5 -514.5l-138 51l207 429q-8 20 -125.5 292t-286.5 650zM263 1206v170h169v-170h-169zM695 1206v170h169v-170h-169z" />
<glyph unicode="&#x152;" horiz-adv-x="2030" d="M120 662q0 169 76.5 303.5t210.5 220.5q122 78 285 115t400 37q34 0 156.5 -2t253.5 -2q194 0 267 1t94 1v-139q-12 0 -121 1.5t-282 1.5q-75 0 -147 -0.5t-114 -0.5q0 -113 -2 -225t-2 -212q39 0 96.5 -0.5t99.5 -0.5q174 0 312.5 1.5t159.5 1.5v-139q-17 0 -148 1.5 t-314 1.5q-48 0 -104.5 -0.5t-101.5 -0.5q0 -189 1 -300t2 -186q59 -1 143 -1.5t181 -0.5q151 0 246 1t108 1v-139q-14 0 -103.5 1t-276.5 1q-115 0 -295.5 -2l-180.5 -2q-174 0 -325 35t-264 102q-153 92 -232 226.5t-79 298.5zM292 663q0 -127 65.5 -238t187.5 -183 q95 -56 215.5 -82t276.5 -26q1 282 1.5 441t0.5 205q0 66 -0.5 180t-2.5 244h-14.5h-17.5q-145 0 -267 -28t-216 -90q-117 -76 -173 -184.5t-56 -238.5z" />
<glyph unicode="&#x153;" horiz-adv-x="1844" d="M93 505q0 116 35 212.5t110 174.5q68 71 154.5 108.5t185.5 37.5q128 0 230.5 -58t165.5 -160h4q49 97 154.5 157.5t223.5 60.5q93 0 164.5 -27.5t123.5 -84.5q59 -64 89 -159t30 -224h-710q1 -108 43 -196t133 -146q58 -37 133 -55t179 -18q43 0 87.5 3t54.5 4l-18 -133 q-13 -2 -50 -4t-88 -2q-185 0 -318 57.5t-215 170.5h-2q-60 -118 -168.5 -184t-246.5 -66q-96 0 -177 32t-147 95q-76 73 -118 178.5t-42 225.5zM253 505q0 -103 30.5 -186t100.5 -146q42 -38 90.5 -55t102.5 -17q64 0 118 19.5t96 62.5q53 54 84.5 138t31.5 175 q0 96 -29.5 184t-94.5 151q-39 38 -93 59t-112 21q-69 0 -117.5 -22.5t-93.5 -69.5q-55 -57 -84.5 -143.5t-29.5 -170.5zM1057 655h552q-17 128 -81.5 196.5t-179.5 68.5q-114 0 -188 -70.5t-103 -194.5z" />
<glyph unicode="&#x178;" horiz-adv-x="1186" d="M20 1262l132 100q13 -17 157 -210t290 -383h2q141 181 295.5 381.5t162.5 211.5l117 -88q-8 -10 -198 -249t-306 -386q-2 -181 0.5 -380t3.5 -259h-165q2 60 4 262.5t1 364.5q-122 161 -302 389.5t-194 245.5zM274 1461v183h191v-183h-191zM736 1461v183h191v-183h-191z " />
<glyph unicode="&#x2c6;" horiz-adv-x="800" d="M77 1177l261 289h123l262 -289l-89 -68l-233 258h-2l-233 -258z" />
<glyph unicode="&#x2dc;" horiz-adv-x="800" d="M65 1190q22 105 80.5 165.5t143.5 60.5q31 0 57 -10t53 -29q17 -13 36 -28.5t33 -25.5q13 -11 27.5 -16t35.5 -5q37 0 63.5 38.5t40.5 99.5l101 -20q-23 -109 -82 -167.5t-145 -58.5q-33 0 -59 11.5t-48 27.5q-19 15 -32.5 26t-36.5 28q-11 9 -28 15t-35 6 q-36 0 -62 -36.5t-42 -101.5z" />
<glyph unicode="&#x2000;" horiz-adv-x="903" />
<glyph unicode="&#x2001;" horiz-adv-x="1806" />
<glyph unicode="&#x2002;" horiz-adv-x="903" />
<glyph unicode="&#x2003;" horiz-adv-x="1806" />
<glyph unicode="&#x2004;" horiz-adv-x="602" />
<glyph unicode="&#x2005;" horiz-adv-x="451" />
<glyph unicode="&#x2006;" horiz-adv-x="301" />
<glyph unicode="&#x2007;" horiz-adv-x="301" />
<glyph unicode="&#x2008;" horiz-adv-x="225" />
<glyph unicode="&#x2009;" horiz-adv-x="361" />
<glyph unicode="&#x200a;" horiz-adv-x="100" />
<glyph unicode="&#x2010;" horiz-adv-x="728" d="M78 626v136l100.5 -0.5t184.5 -0.5t186 0.5l102 0.5v-136l-102 0.5t-186 0.5t-184.5 -0.5z" />
<glyph unicode="&#x2011;" horiz-adv-x="728" d="M78 626v136l100.5 -0.5t184.5 -0.5t186 0.5l102 0.5v-136l-102 0.5t-186 0.5t-184.5 -0.5z" />
<glyph unicode="&#x2012;" horiz-adv-x="728" d="M78 626v136l100.5 -0.5t184.5 -0.5t186 0.5l102 0.5v-136l-102 0.5t-186 0.5t-184.5 -0.5z" />
<glyph unicode="&#x2013;" horiz-adv-x="1024" d="M0 511v121h1024v-121h-1024z" />
<glyph unicode="&#x2014;" horiz-adv-x="2048" d="M246 511v121h1556v-121h-1556z" />
<glyph unicode="&#x2018;" horiz-adv-x="430" d="M-11 1368l131 59l199 -456l-111 -49z" />
<glyph unicode="&#x2019;" horiz-adv-x="430" d="M111 971l199 456l131 -59l-219 -446z" />
<glyph unicode="&#x201a;" horiz-adv-x="430" d="M51 -202l199 456l131 -59l-219 -446z" />
<glyph unicode="&#x201c;" horiz-adv-x="760" d="M-11 1368l131 59l199 -456l-111 -49zM319 1368l131 59l199 -456l-111 -49z" />
<glyph unicode="&#x201d;" horiz-adv-x="760" d="M111 971l199 456l131 -59l-219 -446zM441 971l199 456l131 -59l-219 -446z" />
<glyph unicode="&#x201e;" horiz-adv-x="760" d="M51 -202l199 456l131 -59l-219 -446zM381 -202l199 456l131 -59l-219 -446z" />
<glyph unicode="&#x2022;" horiz-adv-x="1139" d="M274 506q0 121 88.5 208t208.5 87q122 0 208.5 -86.5t86.5 -208.5t-87.5 -209.5t-209.5 -87.5t-208.5 87.5t-86.5 209.5z" />
<glyph unicode="&#x2026;" horiz-adv-x="2048" d="M241 0v213h201v-213h-201zM924 0v213h201v-213h-201zM1606 0v213h201v-213h-201z" />
<glyph unicode="&#x202f;" horiz-adv-x="361" />
<glyph unicode="&#x2039;" horiz-adv-x="680" d="M88 540v6l414 424l78 -78l-348 -348l348 -349l-78 -78z" />
<glyph unicode="&#x203a;" horiz-adv-x="680" d="M100 195l348 349l-348 348l78 78l414 -424v-6l-414 -423z" />
<glyph unicode="&#x205f;" horiz-adv-x="451" />
<glyph unicode="&#x20ac;" horiz-adv-x="1524" d="M100 495l48 110h1047l-48 -110h-1047zM100 715l48 110h1139l-46 -110h-1141zM278 660q0 280 190 470t470 190t476 -196l-48 -111q-183 197 -428 197q-230 0 -390 -160t-160 -390t160 -390t390 -160q250 0 428 201v-162q-173 -149 -428 -149q-280 0 -470 190t-190 470z " />
<glyph unicode="&#x2122;" horiz-adv-x="1215" d="M25 1264v75h488v-75q-7 0 -56 0.5t-139 0.5q-1 -71 -1.5 -119.5t-0.5 -87.5q0 -97 1 -159.5t1 -71.5h-88q0 9 1 70.5t1 163.5v88.5t-1 115.5q-89 0 -144 -0.5t-62 -0.5zM490 833q43 178 79.5 334t38.5 167l77 11q5 -11 46.5 -99.5t121.5 -257.5h5q61 134 110.5 239.5 t55.5 117.5l75 -6q2 -9 21.5 -104t86.5 -402l-86 -14l-76 387h-6q-24 -47 -61.5 -126t-97.5 -211h-61q-57 125 -95 205.5t-63 131.5h-6q-13 -50 -33 -141t-49 -246z" />
<glyph unicode="&#xe000;" horiz-adv-x="1035" d="M0 0v1035h1035v-1035h-1035z" />
</font>
</defs>
</svg>
