<?xml version="1.0" standalone="no"?>
<!DOCTYPE svg PUBLIC "-//W3C//DTD SVG 1.1//EN" "http://www.w3.org/Graphics/SVG/1.1/DTD/svg11.dtd" >
<svg xmlns="http://www.w3.org/2000/svg">
<metadata></metadata>
<defs>
<font id="soggy_kittenregular" horiz-adv-x="1284" >
<font-face units-per-em="2048" ascent="1638" descent="-410" />
<missing-glyph horiz-adv-x="1024" />
<glyph horiz-adv-x="2048" />
<glyph horiz-adv-x="2048" />
<glyph unicode="&#xd;" horiz-adv-x="1024" />
<glyph unicode=" "  horiz-adv-x="1024" />
<glyph unicode="&#x09;" horiz-adv-x="1024" />
<glyph unicode="&#xa0;" horiz-adv-x="1024" />
<glyph unicode="!" horiz-adv-x="335" d="M61 123q0 37 33 50t60 13q39 0 66.5 -27.5t27.5 -66.5q0 -41 -29 -67.5t-69 -26.5q-43 0 -66 35t-23 90zM123 795v1589q2 0 14.5 2t16.5 2q33 0 53 -14.5t39 -51.5q4 -31 10 -98t13 -151t13.5 -177.5t11.5 -178.5t8 -151.5t3 -99.5q0 -25 -3 -78t-8 -118.5t-11.5 -139 t-13.5 -139t-13 -119t-10 -77.5h-123z" />
<glyph unicode="&#x22;" horiz-adv-x="671" d="M31 2445q18 35 38.5 51.5t55.5 16.5q37 0 63.5 -36t43 -90t26.5 -121.5t14 -132.5t5.5 -117t1.5 -79q-102 0 -153.5 45.5t-71 117t-20.5 162.5t-3 183zM394 2277q-1 52 6.5 105t28 93t60.5 40q20 0 38 -13.5t30 -33t18.5 -43t6.5 -41.5q0 -20 -7.5 -72.5t-16.5 -111 t-20.5 -110.5t-17.5 -73q-4 0 -15 -2t-16 -2q-39 0 -58 18.5t-27.5 46t-8.5 59.5v61q0 27 -1 79z" />
<glyph unicode="#" horiz-adv-x="1835" d="M61 1589v76q70 0 135.5 -12.5t130 -26.5t128 -26.5t129.5 -12.5q61 0 99 46t64.5 114t48 148.5t48 148t65.5 114t101 46.5q33 0 53 -13.5t37 -50.5q-10 -23 -29.5 -70t-44.5 -107t-51.5 -127t-50 -127t-42 -108.5t-26.5 -72.5q-2 -4 -4 -29.5t-2 -38.5q0 -49 16.5 -84 t49 -60.5t78.5 -47t106 -45.5l368 671h150l-334 -733q0 -2 -1 -14t-1 -17q0 -55 33 -95t82 -72.5t107.5 -63.5t107.5 -65.5t81.5 -77.5t32.5 -103q-76 0 -140 33t-124.5 72t-119 71.5t-119.5 32.5q-25 0 -57.5 -18.5t-66.5 -48t-66 -64.5t-50 -69.5t-22.5 -64.5t18.5 -46 l305 -246v-80q-6 0 -23.5 2t-38 5.5t-38 6.5t-23.5 5q-10 4 -45 23.5t-76 42t-76.5 40t-45.5 17.5q-43 0 -74 -29t-56.5 -71t-49 -91t-52.5 -91t-65.5 -70.5t-88.5 -28.5q0 66 23 125t49.5 115.5t49 114t22.5 120.5q0 37 -21.5 64.5t-54.5 48t-70.5 30.5t-70.5 10 q-41 0 -67.5 -21.5t-48 -53t-41 -68.5t-45.5 -68.5t-60.5 -53t-85.5 -21.5q0 51 12 98t25.5 92t25.5 90t12 94q0 27 -12 50.5t-27.5 46t-28 44t-12.5 46.5q104 0 178 38t121.5 102.5t69 149.5t21.5 179q0 10 -2 29.5t-5 19.5zM547 883q0 -27 27.5 -63t66.5 -68.5t81 -56 t73 -23.5q35 0 68.5 45t59 103.5t42 113.5t16.5 78q0 27 -27.5 62.5t-66.5 68.5t-81 56.5t-73 23.5q-35 0 -68.5 -45t-60 -103.5t-42 -113.5t-15.5 -78z" />
<glyph unicode="$" horiz-adv-x="1161" d="M16 1122q63 0 107.5 -35.5t84.5 -82t84 -89.5t105 -59q18 82 31.5 147.5t22 127t11.5 124t3 136.5q0 88 -29.5 157.5t-66.5 136t-67 139t-30 167.5q0 39 33 83t81 81.5t101.5 66.5t94.5 39q0 25 8 86t17 129t19.5 128t16.5 85q0 6 8 16.5t17.5 19.5t18.5 17t15 8 q12 -2 36 -25.5t26 -35.5q2 -10 7 -43t10 -77t11.5 -94t12.5 -94t11 -77t9 -43q14 -41 55.5 -87t84.5 -96t75.5 -104.5t32.5 -109.5q0 -41 -28.5 -68t-69.5 -27q-4 0 -20.5 17.5t-37 43t-45 56.5t-47 58.5t-39 48t-22.5 24.5q-6 -25 -17.5 -85t-20.5 -128.5t-16.5 -129 t-7.5 -85.5q0 -74 29 -150.5t64.5 -157.5t64.5 -165t29 -168q0 -68 -19.5 -110.5t-49 -72.5t-65.5 -49.5t-71 -41t-62.5 -50t-39.5 -73.5q-23 -82 -33 -137.5t-15.5 -96.5t-7.5 -72.5t-7 -65.5t-19.5 -76t-40.5 -103q-33 78 -46.5 127t-15.5 86t2 68.5t8.5 73.5t3.5 102.5 t-14 154.5q-4 33 -34.5 59.5t-72.5 54.5t-90 60.5t-89 78.5t-68 108.5t-27 148.5zM493 1895.5q1 -35.5 4 -66.5t8 -48.5t15 -6.5q14 14 20.5 49t6.5 72.5t-6.5 72.5t-20.5 49q-10 8 -15 -8t-9 -47t-3 -66.5zM643 856q39 18 51.5 37.5t12.5 54.5q0 43 -18.5 77t-45.5 75v-244 z" />
<glyph unicode="%" horiz-adv-x="1955" d="M53 1376q0 45 15.5 94.5t43 91.5t68.5 68.5t94 26.5q37 0 66 -17.5t50.5 -44t32.5 -59.5t11 -66q0 -41 -11 -86t-34.5 -81.5t-57.5 -61t-79 -24.5q-43 0 -80 7t-63.5 25.5t-41 49t-14.5 77.5zM545 114v46v21.5t1 26.5t2 23.5t3 12.5l610 1468h123v-123q0 -2 -29.5 -77.5 t-77 -197.5t-106.5 -275.5t-120.5 -309.5t-119 -299t-98.5 -246q-20 -51 -47 -101t-74 -83q-29 6 -43 24.5t-19 41t-5 48.5zM1397 397q0 121 71.5 172.5t182.5 51.5q45 0 90 -9.5t81 -31t58.5 -57.5t22.5 -89q0 -78 -28 -131t-77 -84t-117.5 -39t-152.5 4q-45 6 -70.5 29 t-39 53.5t-17.5 65t-4 65.5z" />
<glyph unicode="&#x26;" horiz-adv-x="1835" d="M31 184q0 145 36.5 282.5t96 267.5t137.5 252t158 237q-6 53 -6 128.5t11 157.5t34.5 163t62.5 145.5t95.5 104.5t131.5 40q96 0 131 -34t35 -128q0 -66 -20.5 -123t-52 -109t-69.5 -101.5t-72.5 -98.5t-61.5 -100t-35 -107q-6 -33 8.5 -82t42 -104t63.5 -110.5 t75.5 -99.5t77.5 -71.5t69 -27.5q6 0 16.5 2t14.5 4l487 489q0 -4 1 -17.5t1 -27.5t1 -27.5t1 -19.5q0 -86 -39 -167t-96 -154.5t-120.5 -138t-115.5 -120.5q12 -18 41 -48.5t65 -60.5t73 -52.5t67 -22.5q20 0 73.5 7t112 16.5t109.5 20.5t72 18q0 -2 1 -14.5t1 -16.5 q0 -43 -23.5 -70.5t-60.5 -45t-83 -27t-90 -12.5t-83 -3h-59h-44t-66 1t-63.5 2t-42.5 3q-16 25 -40.5 47.5t-54 40t-60.5 27.5t-62 10q-88 0 -161.5 -49t-147.5 -108.5t-152.5 -108.5t-179.5 -49q-41 0 -83 9t-77.5 30.5t-58 58.5t-22.5 92zM174 154q109 0 199 32.5 t167.5 87t147.5 126t137 151.5q-23 25 -66.5 74t-92 109.5t-89.5 125t-57 119.5q-88 -49 -152.5 -146.5t-107.5 -216t-64.5 -241.5t-21.5 -221zM696 1671.5q-6 -14.5 6 -20.5q27 -10 50.5 12t11.5 49q-6 12 -20.5 6t-28 -19t-19.5 -27.5z" />
<glyph unicode="'" horiz-adv-x="397" d="M61 1589v31v31q4 23 12.5 70.5t20.5 108t25.5 127t26 127t22.5 107.5t16 70q2 0 14.5 2t16.5 2q39 0 58.5 -18.5t27.5 -46t9 -58.5t1 -57q0 -162 -55 -282t-195 -214z" />
<glyph unicode="(" horiz-adv-x="917" d="M55 1235q0 49 6.5 149.5t20.5 229.5t37.5 276.5t57.5 295t81 283.5t108.5 239.5t137.5 166t170 62.5q6 0 29.5 -1t29.5 -1q-92 -51 -164.5 -177t-127 -294t-93.5 -360.5t-62.5 -377t-34.5 -344t-11 -260.5q0 -115 8 -231.5t33.5 -229t75 -219t132.5 -198.5 q8 -10 53.5 -37t97.5 -57.5t97 -56t58 -32.5q4 -2 13 -10t19.5 -18t18.5 -19.5t10 -13.5q-4 0 -17.5 -1t-27.5 -2t-27.5 -2t-19.5 -1q-156 0 -268.5 61.5t-191.5 162.5t-127 231.5t-75.5 268.5t-37 272t-9.5 245z" />
<glyph unicode=")" horiz-adv-x="702" d="M59 2292q0 37 16.5 56t41 28.5t53.5 11.5t53 2q92 0 162 -73.5t120 -188.5t83 -254t52 -269t27.5 -234.5t8.5 -149.5q0 -92 -20.5 -205t-56.5 -231.5t-87 -237.5t-112.5 -224.5t-132 -189.5t-144.5 -133v61q51 119 115.5 264.5t121 301t94.5 315.5t38 307 q0 88 -4.5 179.5t-18.5 182.5t-38.5 178t-63.5 167q-12 23 -61.5 72t-104 102t-98.5 99t-44 63z" />
<glyph unicode="*" horiz-adv-x="1497" d="M53 1284q0 55 23.5 102.5t59.5 88.5t77 78.5t77 77.5t59.5 82t23.5 93q0 39 -33 52.5t-76 21.5t-84 21.5t-57 54.5q-10 27 -14 57q-4 16 -5 35h385q-53 70 -92 145.5t-39 165.5q76 0 119 -25.5t76 -56t64.5 -56.5t84.5 -26q8 0 18.5 1.5t12.5 5.5l307 305h72 q0 -6 -4 -29.5t-8 -32.5q-12 -27 -46 -92t-73 -138t-75 -138.5t-50 -89.5h551v-138q-125 0 -249 -14t-240 -61q20 -51 54 -98.5t65.5 -93.5t55 -96t23.5 -108q-80 0 -145.5 42t-118.5 102.5t-97 129t-81 122.5h-62l-489 -490h-70z" />
<glyph unicode="+" horiz-adv-x="1804" d="M0 795q51 61 129 98t164 56.5t170 24.5t149 5l121 610h123v-551h795q16 0 28.5 -10t21.5 -25.5t13 -32t4 -28.5q0 -4 -2 -14t-4 -10l-856 -123q-2 -25 -5 -78t-9 -119t-12.5 -139.5t-12.5 -139t-12 -119t-10 -77.5q-10 -66 -47 -111t-107 -45v766h-580z" />
<glyph unicode="," horiz-adv-x="864" d="M174 -612q0 88 51 157.5t112.5 134t113 134t51.5 157.5q0 2 -1 7.5t-1 9.5q-2 6 -2 12q-8 10 -44 45t-78 76t-78 76.5t-44 46.5q-2 4 -2 10q-2 6 -2 16q0 33 24.5 62.5t58.5 51.5t70.5 34t63.5 12q61 0 112.5 -27.5t90.5 -70.5t60.5 -97.5t21.5 -109.5t-5.5 -100 t-18.5 -88t-38.5 -86.5t-68.5 -96.5q-23 -27 -57 -65.5t-72.5 -78.5t-78.5 -80t-74 -71.5t-57.5 -51t-27.5 -19.5h-80z" />
<glyph unicode="-" horiz-adv-x="1619" d="M31 1102q6 6 63.5 22.5t148.5 39t206.5 50t239.5 54t248 52.5t230.5 45t186.5 31.5t116 12.5q33 0 50.5 -11.5t38.5 -51.5q-141 -88 -302 -158t-332 -117t-345 -72.5t-342 -25.5q-16 0 -40 1t-47.5 2t-40.5 2l-18 1z" />
<glyph unicode="." horiz-adv-x="960" d="M420 131q0 39 8 95.5t32.5 107.5t68.5 88t116 37q47 0 89 -24.5t73 -59.5t48 -75t17 -73q0 -43 -19 -85t-54 -75.5t-81 -54t-102 -20.5q-37 0 -72.5 8t-63 25.5t-44 44t-16.5 61.5z" />
<glyph unicode="/" d="M31 -20v81l1038 2323q16 35 51 55.5t72 20.5v-199l-918 -2077q0 -2 -25.5 -34.5t-62 -70.5t-78.5 -68.5t-77 -30.5z" />
<glyph unicode="0" horiz-adv-x="1742" d="M86 938q0 113 22.5 246t69.5 267t118 258t166 220t216 154.5t266 58.5q104 0 200.5 -52t178.5 -138t148.5 -196.5t113.5 -227.5t72.5 -230.5t25.5 -203.5q0 -125 -37.5 -255t-104 -252t-160 -230.5t-204 -188.5t-236.5 -127t-257 -47t-227.5 42t-163 112.5t-107.5 164 t-63.5 198.5t-29.5 215t-7 212zM272 821q0 -111 15.5 -224.5t61.5 -204.5t131 -149.5t222 -58.5q113 0 216.5 45t192.5 121t160.5 175.5t123 208t79 218t27.5 207.5q0 131 -59.5 262t-158.5 237.5t-226 173t-262 66.5q-4 0 -15.5 -2t-15.5 -2q-139 -109 -233.5 -226.5 t-151.5 -248.5t-82 -279.5t-25 -318.5z" />
<glyph unicode="1" horiz-adv-x="366" d="M59 438v94v96.5t1 123t1 109.5v57q2 47 7.5 115.5t10.5 142t12 146.5t13.5 132t11.5 96t7 39l61 62l62 -62v-1528q0 -35 -35 -51t-61 -16q-31 0 -47.5 19.5t-24.5 49t-11.5 62.5t-5.5 59v44t-1 97.5t-1 112.5z" />
<glyph unicode="2" horiz-adv-x="1558" d="M59 154q0 106 36 169.5t91.5 108.5t120 84t121.5 96q133 133 203.5 274.5t102.5 291t36 308.5t4 326q-82 0 -148.5 -50t-113.5 -124.5t-72.5 -164t-25.5 -164.5q-66 0 -117 43t-51 114q0 90 48 189.5t124 182.5t169 136.5t181 53.5q80 0 134 -32t86 -83t46.5 -115.5 t14.5 -132.5q0 -104 -29 -201.5t-71 -189.5t-91 -182.5t-91 -179.5t-70.5 -179t-28.5 -182q0 -8 1 -31.5t5 -30.5q57 -78 102 -127t91 -76.5t99.5 -38.5t125.5 -11q57 0 104 5t91 19t87 40t94 67q2 -6 5.5 -30t3.5 -32q0 -59 -38 -114.5t-93.5 -98.5t-121 -68.5 t-120.5 -25.5q-66 0 -120 23.5t-100 58.5t-88 75t-85 74.5t-90.5 58t-104.5 23.5q-4 0 -16 -4q-6 -2 -11 -2l-305 -305q-4 -2 -15 -4t-15 -2q-29 0 -46.5 16.5t-28.5 41t-15.5 52t-4.5 50.5z" />
<glyph unicode="3" horiz-adv-x="1345" d="M61 489h17.5t28 1.5t27.5 1.5h20q66 0 122 -24t109 -57.5t104.5 -74.5t103.5 -75t108.5 -57.5t121.5 -23.5q6 0 18.5 2t14.5 2q10 2 36 10.5t55.5 17.5t56 18.5t36.5 13.5q0 14 2 54t3.5 84t2.5 83t1 55q0 168 -32 279.5t-84 181.5t-120 104.5t-137.5 51t-137 20.5 t-119.5 11.5t-84 24.5t-32 60q0 4 1 15.5t1 15.5q96 29 192.5 83t173.5 128t124 164t47 192q-94 0 -168 10.5t-130.5 1t-100.5 -54.5t-76 -157q-16 12 -38 34.5t-40.5 50t-30.5 54.5t-12 45q0 59 47 114.5t113.5 98.5t139 68.5t124.5 25.5q92 0 162.5 -9t118.5 -39t72 -84 t24 -142q0 -86 -17.5 -153.5t-50.5 -126t-80 -117t-104 -125.5q127 -90 211 -171t133 -174.5t69.5 -209t20.5 -275.5q0 -82 -6 -173t-37 -168t-93.5 -127t-172.5 -50q-109 0 -236 49t-247 123t-220.5 159.5t-155.5 159.5z" />
<glyph unicode="4" horiz-adv-x="2017" d="M55 1161q0 12 3 36t3 26l551 1407q14 35 37 49t53 14q41 0 69 -27.5t28 -66.5q0 -4 -2 -16.5t-2 -14.5l-490 -1222v-117q31 0 101.5 3t156.5 8t178.5 14.5t170 22.5t130 29.5t58.5 39.5l123 428h123v-428q0 -2 20 -10.5t50 -18.5t60.5 -19.5t51.5 -13.5q25 -4 86 -13 t128.5 -19.5t128 -18.5t85.5 -10v-113q-72 0 -153 -7t-161.5 -17.5t-156.5 -22.5t-139 -25q-6 -6 -16.5 -22.5t-20 -35.5t-16.5 -36.5t-9 -25.5q-6 -33 -16.5 -99.5t-23.5 -151.5t-26.5 -177.5t-24.5 -177.5t-20.5 -151.5t-11.5 -99.5q-39 -76 -121 -75v1052l-61 62 q-104 -23 -182 -35t-150 -18.5t-145.5 -8.5t-165.5 -2h-43t-64.5 1t-63.5 1h-42q-51 16 -59.5 50t-8.5 73z" />
<glyph unicode="5" horiz-adv-x="1619" d="M61 184v76q78 0 149 -13.5t140.5 -28.5t141 -27.5t151.5 -12.5q143 0 272 38t224.5 115t152 193.5t56.5 274.5q0 123 -57.5 194.5t-148.5 106.5t-207 41t-231.5 -1t-221 -21.5t-177.5 -18.5q-29 31 -43 62.5t-18 66.5t-3 70.5t1 72.5q0 186 53 340t153.5 264.5t244 171 t323.5 60.5q27 0 63.5 1t69.5 -6.5t55.5 -29t22.5 -64.5q0 -53 -34 -86.5t-89 -58.5t-125 -45.5t-143.5 -50t-143 -71.5t-125 -109.5t-89.5 -166t-34 -237.5h717q119 0 192.5 -56.5t113.5 -141.5t53.5 -183t13.5 -182q0 -147 -70.5 -278.5t-184.5 -230.5t-256 -156.5 t-286 -57.5q-23 0 -82 8t-135 21.5t-156.5 32t-147 39t-111 43t-44.5 42.5z" />
<glyph unicode="6" horiz-adv-x="1497" d="M31 795q-2 8 6 45t19.5 77.5t22.5 76.5t13 44q23 121 54.5 268.5t77.5 298t112.5 293t161 253t221.5 177t293 66.5q84 0 138 -29.5t86 -81t44 -120t12 -146.5h-90q0 106 -46 151.5t-146 45.5q-6 0 -23.5 -2t-38 -4t-38 -4t-23.5 -2q-76 -61 -150.5 -128t-140.5 -143 t-117 -160.5t-82 -181.5q-12 -39 -26.5 -93t-29.5 -114.5t-28.5 -121t-22.5 -108.5t-14.5 -80t-1.5 -34l62 -59q20 4 64 14.5t98.5 22.5t114 25.5t113.5 25.5t97 20.5t64 12.5q2 0 25.5 2t35.5 2q57 0 119.5 -7t121 -27.5t108 -57.5t79.5 -94q0 -12 2 -42t3 -64t2 -65.5 t1 -44.5q0 -63 -17 -140t-50 -155.5t-80 -151.5t-105.5 -130t-127 -92t-146.5 -35q-100 0 -195.5 34t-180.5 91t-159.5 135t-133 167t-99.5 183.5t-59 186.5zM334 676q0 -78 36 -157t95 -141.5t134 -101t153 -38.5q96 0 179 32.5t143.5 93t94 143.5t33.5 183q0 84 -8 131 t-33.5 69.5t-75 28t-131.5 5.5q-39 0 -100 -2t-130 -10.5t-138.5 -24t-126 -43t-91 -68.5t-34.5 -100z" />
<glyph unicode="7" horiz-adv-x="2017" d="M43 2134q0 100 67.5 161.5t173 97.5t232.5 49.5t246 14.5t213 -3.5t135 -4.5q27 0 77 -16t99 -42t85 -59.5t36 -70.5v-1100q25 0 85 -8t128 -17.5t129 -19.5t86 -16q2 0 25.5 -8.5t50 -22.5t48 -32.5t21.5 -39.5q-27 0 -79 1t-116.5 -1t-135 -8t-132 -22.5t-108.5 -43 t-63 -67.5q-2 -25 -5.5 -78t-9.5 -118.5t-12 -139.5t-13.5 -139.5t-12.5 -118.5t-9 -78q-4 -27 -7 -59.5t-10 -62t-23.5 -49t-47.5 -19.5q-27 0 -61.5 16.5t-34.5 50.5v795h-748q0 35 19.5 65.5t49.5 55t64.5 40t65.5 21.5t108.5 16.5t165.5 19.5t166 17.5t109 8.5 q68 74 95.5 174t34.5 208.5t2 218t-5 206.5q0 37 1 76.5t-3 77.5t-18.5 74t-45.5 67q-20 0 -72.5 1t-110.5 2t-110.5 2t-72.5 1q-98 0 -192.5 -11.5t-186.5 -25.5t-185.5 -25.5t-187.5 -11.5z" />
<glyph unicode="8" horiz-adv-x="1376" d="M59 1526q0 143 54.5 257.5t147.5 194.5t216 122t260 42q92 0 162 -54t116 -136t68.5 -175.5t22.5 -168.5q0 -16 -1 -46t-5 -34l-305 -367v-61q66 -59 151.5 -133t162.5 -160t130 -183.5t53 -201.5q0 -109 -62.5 -187.5t-156.5 -132t-201.5 -79t-197.5 -25.5 q-102 0 -182 17.5t-136.5 58.5t-86 108.5t-29.5 169.5q0 90 29.5 175t66.5 166t66.5 159t29.5 158q0 4 -2 15t-2 13q-43 37 -105.5 89.5t-121 115t-100.5 135t-42 148.5zM240 1550q0 -55 31.5 -114.5t81.5 -106.5t110.5 -77.5t120.5 -30.5h18q6 0 10 2l306 366v123 q0 2 -49.5 23.5t-117 51.5t-140 59.5t-122.5 47.5q-4 0 -15 2t-17 2q-53 0 -93 -38.5t-68 -94t-42 -115t-14 -100.5zM360 328q0 -66 31 -96.5t78 -43t101.5 -11.5t103.5 1q70 0 147.5 11.5t142 44t106.5 88t42 145.5q0 8 -1 21.5t-3 26.5t-4 23.5t-4 12.5l-367 367 q-2 2 -22.5 4t-32.5 2q-53 0 -98 -32t-80 -84t-61.5 -116.5t-44 -131t-26 -128t-8.5 -104.5zM674 1956q6 -14 23.5 -21.5t37 -7.5t37 7.5t23.5 21.5t-14.5 20t-46 6t-46 -6t-14.5 -20z" />
<glyph unicode="9" horiz-adv-x="1650" d="M29 1376q0 152 59 291t160.5 245.5t234.5 170t281 63.5q170 0 273.5 -57t157.5 -157.5t64.5 -235.5t-6.5 -289q16 8 60.5 25.5t92.5 37t92 36t61 22.5q4 0 15 2t15 2t16.5 -2t14.5 -2q-35 -47 -84 -91t-103.5 -83t-109.5 -72t-100 -59v-1100q0 -6 -10.5 -23.5t-24.5 -37 t-30.5 -37t-27.5 -25.5q-4 -2 -10 -2h-16q-29 0 -61.5 13.5t-32.5 49.5v1026q-72 0 -137.5 -8t-132 -19t-134 -19.5t-141.5 -8.5q-72 0 -149.5 20.5t-141 63.5t-104.5 107.5t-41 152.5zM268 1434q0 -80 8.5 -124t34 -64.5t74.5 -24.5t129 -4q137 0 256 27.5t240 101.5 q29 123 46 236.5t17 236.5q0 59 -31.5 88.5t-79 41t-101.5 11.5h-99q-109 0 -200 -43t-156.5 -115.5t-101.5 -168t-36 -199.5z" />
<glyph unicode=":" horiz-adv-x="768" d="M242 369q0 4 1 16t1 14q12 12 46 32t72.5 39t73.5 34.5t51 17.5q41 6 75 -15.5t58.5 -56t39 -74.5t14.5 -71q0 -39 -19.5 -78t-50.5 -69.5t-69.5 -50t-77.5 -19.5q-37 0 -75 31t-68.5 76t-51 92t-20.5 82zM258 1075q0 4 1 16.5t1 14.5q12 12 46 31.5t73 39t73.5 35 t51.5 17.5q41 6 74.5 -15.5t58.5 -56.5t39 -75t14 -70q0 -39 -19.5 -78t-50 -69.5t-69.5 -50t-78 -19.5q-37 0 -75 30.5t-68.5 75.5t-51 92t-20.5 82z" />
<glyph unicode=";" horiz-adv-x="702" d="M88 -977q0 47 15.5 123t42 164t63.5 180t78 171t85 137t87 81q29 -6 43 -23.5t19 -40t5 -46v-43.5q0 -96 -50 -205t-119.5 -214.5t-143.5 -196.5t-121 -148q0 6 -2 29.5t-2 31.5zM274 285q0 41 12.5 79.5t35 68.5t57.5 47.5t82 17.5q82 0 106.5 -44t24.5 -120 q0 -41 -12.5 -80t-35 -68.5t-58 -48t-80.5 -18.5q-41 0 -67 12t-40 33.5t-19.5 52.5t-5.5 68z" />
<glyph unicode="&#x3c;" horiz-adv-x="1527" d="M29 582q0 37 43 107.5t115.5 162.5t167 196.5t198.5 209t209.5 199.5t200 169t170 118t120.5 44v-137l-856 -856q-4 -4 -12 -19.5t-17.5 -35t-18.5 -39t-13 -29.5q0 -2 -1 -14.5t-1 -16.5t1 -15.5t1 -13.5q287 -88 564.5 -216t537.5 -273q0 -4 1 -15.5t1 -15.5 q0 -55 -39 -76.5t-86 -21.5q-12 0 -35 3t-27 3q-12 4 -50 23.5t-88 44t-106.5 54.5t-106.5 54.5t-88 43t-50 24.5q-25 10 -77 30.5t-117.5 45t-139.5 51t-139.5 50t-118.5 42t-80 26.5q-37 18 -50 39t-13 54z" />
<glyph unicode="=" d="M90 827q0 47 35 64.5t90 26.5q20 0 76.5 1t120 2t121 2t79.5 1q49 0 125 3t159 0t162 -18.5t134 -52.5q4 0 7 -12.5t3 -18.5q0 -4 -3 -15t-7 -15q-139 -18 -241.5 -30.5t-193.5 -20t-182.5 -10.5t-207.5 -3h-43t-65 1t-63.5 1h-41.5q-35 18 -49.5 38.5t-14.5 55.5z M215 123q14 41 71.5 66.5t138.5 40t174 18.5t178 4t151.5 -2t95.5 -2q0 -55 -33 -95t-85 -69t-116.5 -46.5t-129 -27.5t-122 -13t-92.5 -3q-37 0 -71.5 1t-64 12t-54.5 38t-41 78z" />
<glyph unicode="&#x3e;" horiz-adv-x="1376" d="M23 1671l161 164q2 2 42 -4t103.5 -15.5t143.5 -23.5t161 -27.5t155.5 -28t128.5 -24.5q43 -10 116.5 -28.5t144 -48t122 -68.5t51.5 -90q0 -49 -18.5 -100.5t-47.5 -100.5t-62.5 -94t-62.5 -82q-18 -23 -75.5 -93.5t-137.5 -168t-173 -210t-182 -220t-166 -199.5 t-122 -148q-18 -25 -31.5 -39t-28 -22t-33.5 -11t-52 -3q0 63 19.5 122.5t50 115t67.5 106.5t70 98q27 37 84 113.5t128.5 174t151.5 204t152.5 203t130 172t86.5 112.5l-60 59z" />
<glyph unicode="?" horiz-adv-x="1069" d="M49 1737q0 119 43 208t117 147t170 87t203 29q211 0 322.5 -91.5t111.5 -310.5q0 -115 -21.5 -201.5t-66.5 -160.5t-116 -141.5t-169 -141.5q-6 -4 -33.5 -12t-59.5 -17.5t-59.5 -17.5t-31.5 -14q-20 -27 -23.5 -68t0.5 -88t7 -97t-3 -95t-29.5 -82t-74.5 -58 q-35 31 -50.5 79t-19.5 100.5t-1 101.5t3 86q0 14 1 49t2 73t2 72.5t1 49.5q33 66 87.5 101.5t116 59t123 46t111.5 61.5t81.5 105.5t31.5 177.5q0 49 -13 94t-41 78.5t-67.5 54t-91.5 20.5q-74 0 -126 -21.5t-95 -52t-79 -68.5t-74.5 -68.5t-83.5 -52t-105 -21.5zM397 -18 v202q8 0 31 3t31 3q47 0 86 -21.5t39 -76.5q0 -35 -19.5 -56.5t-48.5 -33.5t-60.5 -16t-58.5 -4z" />
<glyph unicode="@" horiz-adv-x="2598" d="M29 856q0 193 64.5 341.5t175 258t255 183t304 118.5t324.5 64.5t314 19.5q27 0 92.5 -1t139.5 -2t138.5 -2t88.5 -1q92 -41 190.5 -86t180.5 -107.5t134 -146.5t52 -203q0 -127 -53 -253t-145.5 -224t-215 -156.5t-264.5 -46.5q-10 0 -38.5 13.5t-66.5 32t-80 41t-80 43 t-65.5 35t-35.5 18.5q-4 0 -15.5 2t-15.5 2q-61 0 -110.5 -30t-97.5 -66.5t-99 -66.5t-115 -30q-51 0 -111.5 15.5t-112.5 46t-88 77t-36 107.5q0 102 47 202.5t123 180.5t172 130t195 50q111 0 175 -42t104 -105.5t68.5 -137t67.5 -137t100.5 -105.5t170.5 -42q96 0 177 36 t139 97t90 143t32 174q0 90 -38 156t-101.5 113t-144.5 75.5t-166 45t-168 22.5t-148 6q-113 0 -254 -16.5t-287.5 -54t-286 -99t-248 -149.5t-175 -207t-66.5 -270q0 -31 8 -88.5t23.5 -121t38 -124t51.5 -95.5q31 -37 80 -94t98 -111.5t87 -92t42 -37.5h610q0 -61 -50 -93 t-116.5 -45.5t-132 -14.5t-98.5 -1q-172 0 -322.5 69.5t-263 188.5t-177 273.5t-64.5 324.5zM868 770q61 0 129 20.5t126.5 59.5t96 94t37.5 125q0 66 -28 114t-94 48q-82 0 -133.5 -50.5t-81 -123t-41 -151.5t-11.5 -136z" />
<glyph unicode="A" d="M92 184l184 1162q10 63 33 119.5t57.5 99.5t82 67.5t108.5 24.5q74 0 141.5 -52.5t126 -139.5t109.5 -202.5t92 -242.5t72.5 -257t53.5 -247t33 -213t11 -153q0 -20 1 -44v-8q0 -20 -4 -38q-5 -22 -19.5 -38t-43.5 -22l-59 61l-184 611q-10 0 -19 2q-8 0 -16 1t-14 1 q-57 0 -111.5 -13.5t-108.5 -27.5q-53 -13 -108 -23q-27 -5 -54 -5q-29 0 -59 5q-6 -39 -19 -118.5t-41 -165.5t-72 -161t-111 -106zM454 1044q3 -76 3 -126v-23.5t1 -38t1 -38v-23.5q16 2 60 9t92 16t92.5 19.5t60.5 16.5q6 2 17.5 10t20.5 18.5t16 19.5t7 14 q0 51 -21.5 123.5t-56 145.5t-78.5 133t-87 87q-59 -20 -87 -79.5t-36 -133.5q-6 -54 -6 -108q0 -21 1 -42z" />
<glyph unicode="B" horiz-adv-x="1357" d="M82 868q4 112 4 201v69t1 103t1 120.5t1 120t2 101.5t1 68q27 74 66 123t89 76.5t113.5 39t139.5 11.5q80 0 150.5 -19.5t124.5 -61.5t85 -107.5t31 -156.5q0 -33 -23.5 -75.5t-60.5 -90t-81 -93.5t-85 -86t-73.5 -69.5t-47.5 -41.5q131 -45 223.5 -111.5t166 -141.5 t138 -155t136 -153.5t161 -134t214.5 -99.5q0 -2 2 -14t2 -17q0 -33 -14.5 -53t-49.5 -37q-92 23 -185 43.5t-190 20.5q-74 0 -136 -39t-123.5 -86t-130 -86t-156.5 -39q-143 0 -236.5 55.5t-148 144.5t-78 203.5t-30.5 234.5q-4 76 -4 150q0 41 1 82zM211 1739 q0 -4 1 -16.5t1 -28t1 -28.5t1 -15q2 -25 11.5 -85.5t18.5 -129t18 -129t13 -84.5q2 0 13.5 -1t15.5 -1q59 0 120.5 30.5t111 78.5t81 106.5t31.5 115.5q0 90 -37 131t-98 53q-44 9 -96 9q-21 0 -44 -1q-79 -5 -163 -5zM276 489q66 39 159 55.5t189 19.5q32 1 64 1 q62 0 120 -4q87 -6 140 -10q-35 84 -96 152.5t-139 116.5t-167 74t-179 26h-18.5t-27 -1t-27.5 -1h-18v-429zM336 305q49 -72 125 -99.5t157 -27.5q37 0 67 3t54.5 15.5t46 38t39.5 70.5q-6 33 -28.5 47.5t-48.5 18.5q-21 3 -44 3h-10q-28 -1 -45 -1q-47 0 -85 -1 t-73.5 -8.5t-73.5 -20.5t-81 -38z" />
<glyph unicode="C" horiz-adv-x="1527" d="M61 733q-2 24 -2 47q1 130 57 260q66 154 182 277t264.5 199.5t299.5 76.5q47 0 82 -18.5t58.5 -48t35 -68.5t11.5 -82q0 -6 -1 -19.5t-2.5 -27.5t-3.5 -27.5t-2 -17.5q-18 45 -39.5 71.5t-46 39t-55.5 15.5t-68 3q-137 0 -237 -62.5t-166 -160.5t-97.5 -219t-31.5 -238 q0 -109 20.5 -208t69.5 -176t132 -123t210 -46q94 0 183.5 30t177.5 65.5t174 65.5t172 30q4 0 15 -2t15 -2q-68 -84 -155.5 -153t-188 -118t-209 -75.5t-215.5 -26.5q-145 0 -258.5 66.5t-194.5 172t-128.5 237.5t-57.5 263z" />
<glyph unicode="D" horiz-adv-x="1705" d="M90 248q0 45 16.5 88t42 82t59.5 72.5t68 60.5q-6 88 -6 173q0 64 4 125q8 144 19.5 285.5t24 284t12.5 293.5h-238q25 80 64 119t88 55t105.5 15.5t115.5 -0.5q203 0 371 -58.5t289.5 -171t189 -274.5t67.5 -371q0 -86 -20.5 -165t-45 -155.5t-45 -152.5t-20.5 -158 q0 -47 30 -64.5t95 -25.5q18 -2 56 -3t87.5 -1h101.5h101.5t87 1t56.5 3q-27 -53 -80 -78.5t-114.5 -36t-124 -10.5h-109.5q-18 0 -48 1t-58.5 1t-51.5 1t-27 1q-6 0 -33.5 10.5t-58.5 21.5t-57.5 20.5t-32.5 7.5q-86 -14 -167 -54t-166 -83.5t-176 -76t-195 -32.5 q-123 0 -200 60.5t-77 189.5zM276 244q6 -31 29 -45.5t51 -18.5q18 -3 36 -3l18 1q28 2 47 2q45 0 121.5 8.5t150.5 31t128 63.5t54 106q-25 0 -75 1h-53.5h-60.5q-64 -1 -133 -8t-131.5 -23.5t-110.5 -44t-71 -70.5zM520 672q0 -4 14.5 -12.5t34 -17.5t40 -18.5t34.5 -11.5 q8 -2 55 -10t105.5 -18.5t116 -19.5t90.5 -13h30h31q55 57 83 117t39 126q10 60 10 123v11q-1 68 -1 141q0 16 -1 55t-3 83t-3 83t-3 56q-49 61 -113.5 125.5t-138.5 119t-158 89t-174 34.5q-25 0 -56.5 -11t-31.5 -52v-979z" />
<glyph unicode="E" horiz-adv-x="1345" d="M31 795l123 123q-10 102 -20.5 191t-10.5 170t19.5 156.5t72.5 153.5q4 6 13.5 17.5t18.5 20.5t17 16.5t10 7.5h674q4 0 20.5 -14.5t36 -34t38 -40t26.5 -34.5q4 -6 11 -17.5t7 -19.5q-31 0 -111.5 -3t-171.5 -7t-172 -8.5t-112 -6.5q-14 0 -34.5 -8t-40 -17t-34 -18.5 t-14.5 -15.5v-518q35 0 95 17q62 16 126 25q26 4 50 4q38 -1 72 -9q58 -14 85 -70q0 -6 2 -12q0 -4 1 -9.5t1 -9.5t-2 -15t-2 -15q-20 -4 -72.5 -12.5t-110.5 -17.5t-110.5 -18.5t-72.5 -13.5q-8 0 -30.5 2t-31.5 2v-493q0 -31 23.5 -45.5t54.5 -18.5t58.5 -2t37.5 2 q68 0 133.5 10.5t131 23.5t131 23.5t133.5 10.5q6 0 19.5 -1t27.5 -1t27.5 -1t17.5 -1q-45 -76 -131 -123t-187.5 -75t-204 -38t-180.5 -10q-59 0 -106 1t-92 7t-92.5 18t-106.5 37q-4 2 -5 14.5t-1 16.5q0 45 42 64.5t87 27.5l-61 549z" />
<glyph unicode="F" horiz-adv-x="1345" d="M90 379v80q0 147 1 264t7 230.5t18.5 235.5t37.5 277q45 68 106.5 116t130 78t144 44t153.5 14q72 0 166 1h13q87 0 171 -13q90 -14 166 -55t111 -123q0 -14 -23.5 -38t-38.5 -24q-10 0 -44.5 9.5t-76.5 20.5t-78 21.5t-44 10.5q-4 0 -23.5 1t-44 1t-49.5 1t-39 1 q-74 0 -134.5 -7t-119.5 -14.5t-122.5 -14.5t-141.5 -7v-725h706q0 -74 -48 -116t-124 -64q-78 -23 -170 -28q-66 -4 -129 -4q-26 0 -51 1q-88 2 -160.5 7t-107.5 5q0 -37 13.5 -111.5t18.5 -158.5q1 -24 1 -48q-1 -59 -9 -116q-12 -80 -61 -131q-6 -2 -12 -2h-17 q-35 0 -55.5 14t-38.5 49v77t-1 120.5t-1 120.5z" />
<glyph unicode="G" horiz-adv-x="1619" d="M59 608q0 143 30 300t87 307.5t143.5 285.5t199 237.5t250.5 163t302 60.5h43t64.5 -1t63.5 -2t42 -3q47 -33 86 -65.5t39 -86.5q0 -41 -27.5 -68.5t-66.5 -27.5q-37 0 -59.5 11.5t-45 24.5t-55.5 24.5t-90 11.5q-133 0 -245.5 -52.5t-204 -141.5t-162 -204.5 t-117.5 -241.5t-70.5 -256t-23.5 -245q0 -66 13 -136.5t44 -129t82 -97t129 -38.5q57 0 137 15t167 44t172 71t152.5 93t109.5 112.5t42 128.5q0 78 -32.5 120t-85 66.5t-116 38t-125 33t-114.5 50t-84 90.5l62 61q6 2 33.5 5t60.5 6.5t64.5 5.5t50.5 2q55 0 143 -6.5 t173 -32t146.5 -77.5t61.5 -146v-795q0 -55 -22.5 -90t-65.5 -35q-49 0 -79 41t-46.5 94t-22.5 103.5t-8 68.5q-2 0 -14.5 2t-16.5 2q-86 0 -170 -39t-170 -87t-175 -87t-185 -39q-117 0 -209 46.5t-154.5 122t-96.5 175t-34 207.5z" />
<glyph unicode="H" horiz-adv-x="1466" d="M90 637v76q0 178 3 327.5t11.5 298t19.5 311t30 367.5q2 0 14 2t16 2t15.5 -2t15.5 -2q10 -4 25.5 -13t30 -19.5t24.5 -18.5t10 -10v-795q0 -29 31 -43t69.5 -19t73.5 -5h41q221 0 358.5 41t217.5 130t112.5 229t44.5 341q4 2 15.5 4t15.5 2q33 0 52.5 -23.5t29.5 -59.5 t14 -79q3 -34 3 -66v-15q-1 -38 -3 -68.5t-2 -38.5q0 -180 -5 -355t-14 -350.5t-20.5 -354.5t-23.5 -370q-18 -47 -63.5 -63t-90.5 -16v1056q-10 0 -37.5 2t-38.5 2q-100 0 -191 -26.5t-181 -53.5q-91 -28 -183 -46q-44 -8 -90 -8q-51 0 -104 10q-35 -182 -53.5 -364.5 t-18.5 -369.5h-110q-4 0 -13.5 28t-19.5 66.5t-18.5 79.5t-10.5 70v37t-1 80t-1 92z" />
<glyph unicode="I" horiz-adv-x="1712" d="M92 61v93h610q4 0 13.5 33.5t22 89t25.5 125t25.5 141t21.5 137t15 115.5q0 8 4.5 61t10.5 135t12 181.5t12 198.5t12.5 189.5t10.5 151.5v24.5t-2 30.5q-2 18 -2 37h-486q-2 0 -10 10.5t-18.5 24.5t-19.5 29.5t-13 25.5q0 4 -1 15.5t-1 15.5q0 53 36 74.5t79 21.5 q37 0 115.5 4.5t178 4.5t208 -7.5t205.5 -28t173 -58.5t109 -101q4 -8 9 -31.5t5 -29.5h-322q-12 0 -25 -54.5t-26.5 -145.5t-28 -212t-27.5 -254t-23.5 -269.5t-18.5 -260t-13 -227t-5 -167.5h657q-31 -59 -98.5 -97t-155.5 -59.5t-189.5 -29.5t-197.5 -9h-47q-70 0 -132 2 q-83 3 -134 3q-31 0 -85.5 1t-106.5 2t-93 2t-45 1q-29 2 -70 10t-80 18.5t-66.5 19.5t-27.5 13z" />
<glyph unicode="J" horiz-adv-x="1517" d="M31 2322l61 62q4 2 37 3t76 3t87 3t68 1q35 0 98.5 -1t128 -3t116 -3t61.5 -3q37 -2 94 -10.5t111.5 -18.5t92.5 -19t38 -14v-1404q25 -4 74 -12.5t107 -24t118.5 -37t111 -50t82 -67.5t31.5 -86q0 -39 -27.5 -66.5t-68.5 -27.5q-35 0 -69 20.5t-70.5 44t-76.5 44 t-89 20.5q-6 0 -19.5 -1t-28 -1t-27.5 -1t-18 -1q-6 -59 -15 -133t-28.5 -149t-50 -145.5t-76 -126t-107.5 -88t-146 -32.5q-100 0 -190.5 30.5t-159 88t-108.5 138.5t-40 181q0 98 50 159.5t126 100.5t163 62.5t162.5 44t126 46t50.5 69.5v1222q-25 4 -78 12.5t-118.5 20.5 t-139.5 25.5t-139.5 25.5t-118.5 21.5t-78 15.5q-10 2 -36.5 10t-56.5 18.5t-55.5 19.5t-35.5 13zM385 391q0 -59 29.5 -100t76 -65.5t102.5 -35t109 -10.5q63 0 100.5 36t58 88t26.5 110.5t6 105.5q0 8 -1 30.5t-2 47.5t-2 45.5t-1 28.5q-43 -12 -126 -28.5t-167 -47.5 t-146.5 -80t-62.5 -125z" />
<glyph unicode="K" horiz-adv-x="2078" d="M90 520q0 301 40 595t85 597q2 0 14.5 1t16.5 1q33 0 52 -13t38 -50q0 -12 1 -42t1 -64t1 -65.5t1 -43.5q0 -172 -5 -322.5t-13.5 -304.5t-20.5 -319.5t-25 -366.5q-8 -45 -27.5 -87t-64.5 -42q-4 0 -16 2t-14 4q-20 86 -32.5 150.5t-20 122t-9.5 115.5t-2 132zM389 733 q0 8 3 31.5t5 30.5q27 27 83.5 80t128 120.5t151.5 140t152.5 138t131 117t86.5 75.5q16 12 59.5 40t92.5 57.5t93 54t63 33.5q0 -4 1 -15.5t1 -15.5t-1 -15.5t-1 -15.5q-4 -10 -13.5 -28.5t-18.5 -39t-18.5 -36t-11.5 -19.5l-671 -610q-4 -4 -7.5 -24.5t-3.5 -30.5 q0 -68 34 -136.5t90 -131t129 -117t150 -94t150.5 -62t134.5 -22.5q94 0 180.5 30.5t162 82.5t142 120t120.5 141q14 0 37.5 -23.5t23.5 -37.5q0 -78 -33 -144.5t-87 -122t-125.5 -98.5t-147.5 -71.5t-150.5 -44t-138.5 -15.5q-76 0 -178.5 39t-211 100.5t-214 137.5 t-188 151.5t-134 141t-51.5 108.5z" />
<glyph unicode="L" horiz-adv-x="1835" d="M53 104q0 172 24.5 343t56.5 340t63.5 338t48.5 341q16 35 37.5 51.5t56.5 16.5q31 0 49.5 -19.5t27.5 -49t12 -61.5t3 -56q0 -10 -2 -35t-2 -29q-2 -20 -11 -80.5t-21.5 -142.5t-27 -174t-27.5 -174t-23.5 -142.5t-12.5 -81.5v-30v-31q94 -43 203.5 -87t225.5 -79 t232.5 -56.5t225.5 -21.5q59 0 126.5 10.5t135.5 27t134.5 38t123.5 45.5q0 -4 2 -17.5t3 -27.5t2 -27.5t1 -19.5q0 -27 -2 -56.5t-14 -54t-39 -38.5q-16 -8 -38 -7q-17 0 -38 4q-23 -2 -78 -4t-118.5 -3t-121 -2t-79.5 -1q-119 0 -226.5 21.5t-210 48t-205.5 48t-214 21.5 q-49 0 -79 -13t-56.5 -29.5t-59 -30t-88.5 -13.5z" />
<glyph unicode="M" horiz-adv-x="3383" d="M61 635v98q2 33 6.5 99.5t10.5 151.5t12 177t12.5 177t11.5 151.5t9 99.5q2 66 46 111t105 45v-707q61 18 107.5 72.5t85.5 123.5t75 143.5t79 137t98 102.5t131 40q92 0 164.5 -45t127 -118t93.5 -166t62.5 -189.5t34.5 -186.5t14 -157q68 55 126 126.5t112 147.5 t110.5 147.5t123 129t147.5 92.5t183 35q70 0 121 -24t86 -66t56.5 -98t33.5 -124q6 -33 16.5 -99.5t23 -151.5t25.5 -177t24.5 -177t20.5 -151.5t13 -99.5q16 -47 52 -57t77 -10q10 0 30.5 2t22.5 4l674 612h121l-795 -795q-4 -4 -19 -13t-34.5 -18.5t-38 -18.5t-28.5 -11 q-4 0 -15.5 -1t-19.5 -1q-31 0 -67 27.5t-66.5 66.5t-52 81t-25.5 71l-121 917q-6 49 -17.5 76t-28.5 39t-43 14t-63 2q-131 0 -227 -77.5t-170 -195.5t-130 -254t-108.5 -254t-105.5 -195.5t-119 -77.5q-37 0 -57 53t-31.5 139t-16.5 197.5t-13.5 226.5t-21.5 226.5 t-41 197.5t-73 139t-114 53q-61 0 -124 -58t-117 -138t-95 -163t-58 -132q-10 -31 -30.5 -93.5t-45 -140t-51 -164.5t-50 -165t-42 -140.5t-24.5 -91.5q-18 -37 -39 -51t-53 -14q-4 0 -16.5 2t-14.5 2q-18 90 -29.5 155.5t-18.5 121t-10.5 110.5t-3.5 125z" />
<glyph unicode="N" horiz-adv-x="2140" d="M31 305l123 1346q2 0 14 1t16 1q131 0 268.5 -82t273.5 -212t268 -290t254 -316.5t231.5 -292.5t201.5 -216q53 180 92 386t69 415.5t49.5 412.5t33.5 377q4 0 15.5 1t15.5 1q33 0 53.5 -13.5t38.5 -49.5q2 -18 3 -61.5t2 -92.5t1 -92v-62q0 -49 -2 -136t-7 -195.5 t-15.5 -230.5t-26.5 -241.5t-38.5 -230t-54.5 -193.5t-74 -133.5t-93 -50.5q-115 0 -243 82t-259 210t-260 284.5t-248 307.5t-220 276.5t-177 191.5q-4 -18 -13.5 -61t-19.5 -92.5t-18.5 -92.5t-10.5 -61q-4 -35 -9 -106.5t-10 -162t-12 -189.5t-12.5 -189.5t-9.5 -162 t-6 -106.5q-33 -67 -94 -67h-2q-6 0 -16.5 1t-10.5 5q-8 12 -19.5 37.5t-20.5 55.5t-15 54.5t-6 34.5z" />
<glyph unicode="O" horiz-adv-x="1558" d="M61 641q0 176 71 328.5t190.5 264.5t275.5 175.5t326 63.5q131 0 232 -50.5t171 -135.5t106.5 -196.5t36.5 -234.5q0 -96 -34.5 -197.5t-95 -196.5t-141.5 -181t-172 -149.5t-189.5 -100.5t-192.5 -37q-119 0 -224.5 58.5t-185 150.5t-127 207.5t-47.5 230.5zM293 627 q0 -72 12 -151t47 -145.5t96.5 -109.5t159.5 -43q66 0 140.5 27.5t146.5 74t139.5 108t120.5 130t87 139t42 138.5q2 20 2 44q0 43 -7 97q-11 84 -45 162t-89 133t-135 55q-35 0 -54.5 -12t-37.5 -51q-6 29 -25 43t-41.5 19t-47 5h-42.5q-127 0 -215 -66.5t-145.5 -166 t-83 -215t-25.5 -215.5z" />
<glyph unicode="P" horiz-adv-x="1189" d="M81 485q1 82 5 147.5t4 94.5v225.5t6 201.5t19.5 203.5t38.5 231.5q53 70 104 109t109.5 57.5t125 21.5t150.5 3q129 0 231.5 -25.5t175 -85t110.5 -156t38 -235.5q0 -129 -39 -221t-108.5 -150.5t-166 -86t-210.5 -27.5h-91t-82 5t-80 18t-85 40q-39 -221 -55.5 -434 t-16.5 -436q-61 0 -98 47t-56.5 120.5t-24.5 161.5q-4 73 -4 143v27zM336 1038q0 -31 35 -54t83 -38.5t99 -24t86 -8.5q76 0 144.5 36t118.5 93.5t80 129t30 143.5q0 104 -36 161.5t-96.5 85t-140.5 32.5t-168 5q-16 0 -43.5 -1t-55.5 -3t-49.5 -3t-25.5 -3l-61 -61v-490z " />
<glyph unicode="Q" horiz-adv-x="1955" d="M27 905q0 170 49 318.5t136 271.5t206 218t258 160.5t293.5 100.5t312.5 35q152 0 262.5 -63.5t183 -167t108.5 -234.5t36 -266q0 -172 -50 -325.5t-111.5 -283.5t-112 -233.5t-50.5 -175.5q0 -80 41 -135t90.5 -107.5t90 -107.5t40.5 -135q0 -6 -1 -19.5t-2 -28 t-3 -27.5t-2 -17l-489 428q-78 -37 -137.5 -61.5t-114.5 -40t-112.5 -21.5t-127.5 -6q-176 0 -322.5 84t-251 217t-162.5 297.5t-58 324.5zM213 905q0 -139 40 -272t119 -236.5t193.5 -167t263.5 -63.5q55 0 99.5 4t84.5 17.5t82 39t95 68.5q-2 6 -10.5 23.5t-18.5 37 t-19 37t-14 23.5q-10 16 -33.5 50t-53 76t-63.5 89t-63.5 89t-54 74.5t-37.5 49.5v61h123l428 -428q2 -2 14.5 -4t16.5 -2q53 0 99 60.5t84 153.5t66.5 202.5t47 209t29 174.5t10.5 95q0 90 -37 182t-99.5 168t-145.5 123t-177 47q-225 -6 -414.5 -77.5t-331 -199.5 t-225.5 -307.5t-98 -396.5z" />
<glyph unicode="R" horiz-adv-x="1681" d="M90 174v64q0 117 11.5 233.5t30 231t41 229.5t42.5 229q10 59 54 153.5t107.5 183.5t140.5 152.5t153 63.5q104 0 181 -45t127 -118.5t74.5 -165t24.5 -183.5q0 -168 -52 -306t-138 -284q37 -57 68.5 -104t64.5 -80t73 -50.5t93 -17.5q55 0 105 20.5t98.5 45.5t97.5 45.5 t102 20.5q4 0 16.5 -1.5t14.5 -1.5q-18 -66 -58 -122t-92.5 -98t-115 -65.5t-127.5 -23.5q-82 0 -144.5 23.5t-115 60.5t-99.5 78t-98 78t-111.5 60.5t-138.5 23.5q-10 0 -35.5 -1t-55.5 -3t-56.5 -5t-36.5 -6q0 -6 -3 -38.5t-9.5 -79.5t-15.5 -102.5t-22.5 -107.5 t-30.5 -95t-40 -66q0 -2 -12.5 -4t-18.5 -2q-39 0 -58.5 29.5t-27.5 69.5t-8 81zM395 948q0 -4 1 -16t1 -14q18 -8 61.5 -27t92.5 -38t92 -35.5t62 -22.5q2 0 13 -1t15 -1q59 0 92 45t48.5 106.5t17.5 122.5t2 94v106.5t-12.5 101.5t-45 77t-98.5 31q-90 0 -154.5 -57.5 t-105.5 -139.5t-61.5 -173t-20.5 -159z" />
<glyph unicode="S" horiz-adv-x="1038" d="M25 612h67q6 -10 22.5 -45t43 -83t60.5 -101t73 -98t80 -75t84 -30q104 0 148 37t44 141q0 98 -23.5 191.5t-58.5 183.5t-74.5 179t-74.5 179.5t-58.5 184.5t-23.5 194q0 84 24.5 153t70.5 117t110.5 74.5t142.5 26.5q45 0 92 -13t86 -41t64.5 -69t25.5 -94 q0 -4 -1 -17.5t-1 -17.5q-2 -10 -10 -35.5t-18.5 -55.5t-19.5 -55.5t-13 -35.5q-8 55 -19.5 101t-32 80t-51 52.5t-75.5 18.5q-47 0 -84 -18.5t-62.5 -49t-39 -71.5t-13.5 -84q0 -6 1 -18.5t2 -27t3 -27.5t4 -17q14 -29 40 -91.5t57.5 -140.5t64.5 -164t62.5 -164.5t51 -141 t29.5 -93.5q2 -2 3 -19.5t2 -40t1 -45v-36.5q0 -74 -14 -148t-50 -132t-95.5 -94t-151.5 -36q-119 0 -211 56.5t-155.5 145.5t-96 197.5t-32.5 212.5z" />
<glyph unicode="T" horiz-adv-x="1699" d="M37 1528q0 53 60.5 89t154.5 56.5t208.5 29.5t223.5 11q73 1 136 1h61q88 -1 131 -1q27 0 106.5 -2t185 -9t220 -19.5t211 -33t159 -51t62.5 -71.5v-68q-6 0 -23.5 1t-37 2t-37 2t-23.5 1q-14 2 -56 7.5t-98.5 11.5t-121 14t-121 14.5t-98.5 10.5t-56 4q-12 0 -38.5 -7.5 t-55.5 -16.5t-55.5 -20t-34.5 -18q-16 -172 -21.5 -358t-13.5 -374.5t-25.5 -375t-60.5 -358.5q-4 0 -15.5 -1t-15.5 -1q-27 0 -59.5 13.5t-32.5 49.5v1467h-819z" />
<glyph unicode="U" horiz-adv-x="2568" d="M59 1067v185t4.5 168t17.5 169t42 185q2 0 14.5 1t16.5 1q33 0 53 -13.5t39 -50.5q-2 -37 -3 -113.5t-1 -173v-203v-202.5t1 -173t3 -114q4 -80 28.5 -168t69.5 -160.5t111.5 -120.5t158.5 -48q135 0 243 65.5t189.5 171t138 238.5t93.5 270t52.5 264t15.5 221 q18 37 38.5 51.5t55.5 14.5q2 0 7 -1t9 -1q6 -2 12 -2q10 -8 25.5 -25.5t30 -37t25 -36t10.5 -22.5v-856q0 -53 23.5 -81t58 -40t72.5 -13t69 -1q10 0 28.5 1t37 3t32.5 4t16 4l549 428h62q-23 -78 -67 -158t-104.5 -155.5t-134 -143t-154.5 -118t-166 -79t-169 -28.5 q-80 0 -138 33t-101 86t-73 120.5t-54 137.5q-68 -78 -159 -174t-195.5 -181t-217 -143.5t-223.5 -58.5q-119 0 -202 58.5t-137 153.5t-85 213t-46 237.5t-18.5 228t-3.5 182.5z" />
<glyph unicode="V" horiz-adv-x="1726" d="M74 1911q74 0 130 -52.5t100 -139.5t77 -203.5t61.5 -244.5t54 -260t56.5 -253t66.5 -223.5t82.5 -167.5l62 61l917 1407q0 2 11.5 4t15.5 2q41 0 69.5 -29.5t28.5 -68.5q0 -4 -1 -16.5t-1 -14.5q-141 -178 -274 -374.5t-256 -401.5t-235.5 -411t-213.5 -402l-123 -123 q-4 2 -13 10t-19.5 18.5t-17.5 19.5t-9 13q-117 213 -221.5 434.5t-181 453t-121.5 472t-45 490.5z" />
<glyph unicode="W" horiz-adv-x="2934" d="M59 1519.5v14.5q0 41 6.5 70.5t57.5 46.5q51 -35 83 -103.5t50 -158t27.5 -192.5t15.5 -206.5t13 -201t19.5 -174t35 -127t61.5 -60.5q123 98 226.5 223t201.5 257t201.5 262t226.5 237q6 0 29.5 1t32.5 1q90 0 176 -51t164.5 -133t148.5 -184.5t128 -205t103 -194.5 t74 -152q8 12 27.5 46t39 73t36 75t20.5 50q12 35 36.5 112t55.5 173t65 202.5t63.5 203t52 174t32.5 114.5q20 29 51 61.5t68 60.5t76 46t80 18q4 0 16 -2t14 -2q-10 -12 -28.5 -45.5t-38 -72.5t-35.5 -75t-21 -50q-18 -53 -52 -163t-77 -248t-89 -290.5t-88 -292 t-74.5 -250t-47.5 -163.5q-16 -35 -37.5 -49.5t-56.5 -14.5q-90 0 -158.5 73t-128 182.5t-118 237.5t-126 237.5t-152.5 182t-199 72.5q-8 0 -32 -2t-30 -2q-100 -78 -180 -175t-148.5 -202.5t-132 -215t-132 -212t-147.5 -194.5t-177 -162q-45 31 -77 84t-53.5 114.5 t-34 122t-18.5 107.5q-4 27 -13 99.5t-21.5 171t-25.5 211t-25.5 219t-22.5 196.5t-15 141v11.5t-1 20.5t-1 21.5z" />
<glyph unicode="X" horiz-adv-x="2140" d="M88 92q0 55 16.5 108.5t43 103.5t59.5 96t67 89q25 31 77 93.5t119 141.5t139.5 165t139 165t119.5 140t80 90q-39 68 -93 143.5t-113.5 149.5t-118 140.5t-103.5 117.5v59h123l487 -428l613 490h338q0 -10 -33 -36t-83 -58.5t-108.5 -68.5t-109.5 -66.5t-87 -51 t-40 -24.5q-35 -31 -87 -81t-100.5 -99.5t-83 -86t-34.5 -38.5v-123l551 -795q0 -4 1 -13t1 -18q0 -33 -13.5 -53t-50.5 -39q-102 86 -182 190.5t-154.5 213t-154.5 210t-183 181.5q-63 -59 -142 -145.5t-167 -185.5t-182 -206.5t-188.5 -209t-185.5 -193.5t-173 -160 q0 4 -1 17.5t-1 27.5t-1 27.5t-1 19.5z" />
<glyph unicode="Y" horiz-adv-x="1413" d="M31 2384q18 37 38.5 51t53.5 14q80 0 146.5 -59t128 -149.5t121 -193.5t120.5 -193.5t130 -149.5t151 -59q4 0 16 1t12 5l490 733h182l-1528 -2458v197l672 1284v59q-25 27 -73 84.5t-108.5 129t-127 151.5t-126 152.5t-106.5 131t-69 87.5q-8 8 -26.5 33.5t-38 55 t-36 55.5t-22.5 38z" />
<glyph unicode="Z" horiz-adv-x="2109" d="M55 2109q0 4 2 15.5t4 15.5q76 25 139.5 39t124 20.5t124 7.5t139.5 1q125 0 221 -5t192.5 -19.5t206 -40t260.5 -64.5q10 -2 30 -17.5t39 -35t34.5 -39t17.5 -31.5q1 -3 1 -7q0 -25 -36 -83q-41 -68 -112.5 -166t-163.5 -221t-190.5 -256t-192.5 -270.5t-168 -266.5 t-119 -241.5t-45 -196.5q6 0 22.5 -1t33 -1t33 -1t22.5 -1q20 2 80.5 7t142.5 11t174 14.5t173 14.5t142.5 10t81.5 4q61 0 154.5 -7t181.5 -16.5t150.5 -20.5t62.5 -17v-121q-55 -4 -169.5 -14.5t-259 -21.5t-304.5 -25.5t-304 -25.5t-259 -21.5t-170 -14.5h-68 q-37 0 -81 2t-80.5 13.5t-62.5 36t-26 71.5q0 6 4.5 29.5t8.5 31.5q213 451 479 879t559 831q-61 27 -175 45.5t-251 33t-279.5 25.5t-258 25.5t-190.5 35t-75 50.5z" />
<glyph unicode="[" horiz-adv-x="886" d="M86 682v82q0 283 8 554t35 540.5t76 536.5t131 540h17.5t27.5 1t27.5 1h19.5q72 0 145.5 -16.5t142 -48t129 -78t103.5 -105.5h-30h-31q-16 4 -60.5 13.5t-92.5 18.5t-92 17t-60 12q-31 -14 -51.5 -44.5t-35 -67.5t-22.5 -72t-14 -59q-35 -152 -62.5 -281t-48 -250 t-34 -238.5t-21.5 -244.5t-12.5 -267.5t-4.5 -307.5q0 -25 3.5 -78.5t8.5 -119t11 -139t13 -140t13.5 -120t10.5 -77.5h465q0 -66 -37 -110t-94.5 -70.5t-128 -40t-140 -18.5t-129 -5h-92.5q-35 0 -51.5 8t-36.5 53v81.5t-1 124t-2 145t-2 145.5t-1 125z" />
<glyph unicode="\" horiz-adv-x="1099" d="M29 1774v34.5t6 40t19.5 32.5t37.5 13q8 0 27.5 -7t39 -16t36 -19.5t20.5 -16.5q8 -29 32.5 -99.5t53.5 -148.5t56.5 -146.5t39.5 -94.5q20 -47 67.5 -143.5t108 -217.5l127 -254t127 -253t109.5 -215t74 -140q0 -4 1 -15.5t1 -15.5q0 -41 -28 -67.5t-66 -26.5 q-4 0 -16.5 1t-14.5 1q-25 41 -74 126t-109.5 193.5t-127 228.5t-127 228.5t-107.5 194.5t-68 129q-10 18 -28.5 63t-43 103.5t-50 125t-50 129t-44 112.5t-27.5 79q0 2 -1 26t-1 36z" />
<glyph unicode="]" horiz-adv-x="1376" d="M0 2445q2 16 17.5 52t35 75t39 73t31.5 44q10 0 18 2q8 0 16.5 1t14.5 1q10 0 39 -2t33 -2q35 -2 106.5 -7t162.5 -10.5t190.5 -12.5t189.5 -12t161.5 -10t106.5 -7q37 -16 60.5 -60.5t37 -95.5t18.5 -95t7 -57v-62t1 -136t1 -158v-129v-139t-1 -176t-1 -157v-81 q-2 -90 -7 -215t-11 -260t-13.5 -268t-12.5 -238.5t-10 -172.5t-7 -69l-62 -61q-2 0 -23.5 -1t-49 -2t-56 -2t-45.5 -1h-188.5t-212 16.5t-197.5 55t-145 118.5q23 43 39 51.5t51 8.5q70 0 140.5 -10.5t141 -21.5t142 -21.5t143.5 -10.5q43 0 69.5 3t42 19.5t20.5 54.5 t5 110v2093q-123 0 -205.5 -4.5t-146 -7.5t-116 -4t-113 4.5t-139 18.5t-195.5 40q-18 -37 -39 -50.5t-53 -13.5q-4 0 -16.5 1t-14.5 1z" />
<glyph unicode="^" horiz-adv-x="1253" d="M59 1495q0 74 19.5 164t55.5 183t88 181t118 156t144.5 110t166.5 42q76 0 143.5 -53.5t125 -134.5t102.5 -180t76.5 -191.5t49 -167t17.5 -105.5q0 -23 -5 -50.5t-15 -52t-28.5 -41t-45.5 -16.5q-4 0 -16.5 2t-14.5 5q-10 27 -33.5 80t-54 119.5t-63.5 139t-63.5 139 t-55.5 118t-37 75.5q-25 49 -51.5 58.5t-73.5 9.5q-84 0 -130 -50t-73.5 -126t-44 -165t-39 -165t-60.5 -126t-107 -50q-41 0 -68 26.5t-27 65.5z" />
<glyph unicode="_" horiz-adv-x="1314" d="M61 184q6 8 22.5 25.5t36 37t38 36t26.5 22.5q4 0 11 2q4 0 8 1t8 1t17.5 -2t17.5 -2q6 -2 32.5 -11t57.5 -20.5t58.5 -19.5t33.5 -10q27 -4 85 -9.5t130 -12.5t151.5 -13t152.5 -11t130.5 -9.5t83.5 -4.5q35 -18 51.5 -39.5t16.5 -56.5q0 -31 -19.5 -49.5t-48 -27.5 t-59.5 -11t-55 -2q-37 0 -115 -4t-176.5 -4t-208 6t-206.5 26.5t-172 59.5t-108 102z" />
<glyph unicode="`" horiz-adv-x="1705" d="M428 1835q0 6 7 16.5t16.5 19.5t20.5 16t17 7t23.5 -7t38 -16t38 -19.5t23.5 -16.5q14 -16 55.5 -53t94.5 -85t111.5 -102.5t109.5 -102.5t90 -86t51 -54h-184q-4 0 -32.5 20.5t-71.5 52t-95.5 72.5t-101.5 81t-89 76t-61 58q-6 8 -17 25.5t-20.5 37t-16.5 37t-7 23.5z " />
<glyph unicode="a" horiz-adv-x="1699" d="M90 547q0 74 12.5 157.5t38 166.5t66.5 159t96 133.5t128 92t163 34.5q137 0 234.5 -55t167 -144.5t115.5 -201t81 -224t63.5 -216t61.5 -174t76 -99.5q19 -13 42 -13q29 0 64 21l318 150q2 -8 5 -30.5t3 -31.5q0 -74 -31 -125t-80 -84.5t-113.5 -49t-132.5 -15.5 q-61 0 -108 23.5t-87 58.5t-74 75t-67.5 74.5t-70.5 58t-82 23.5q-68 0 -118 -31.5t-99 -68.5t-106.5 -68.5t-139.5 -31.5q-94 0 -173 31.5t-135 89t-87 137.5t-31 178zM266 617q-2 -19 -2 -37q0 -48 12 -91q25 -104 91.5 -147t146.5 -43t148.5 39t120 100.5t81 137 t29.5 149.5q0 61 -6 129t-27.5 123t-65.5 92t-118 37q-66 0 -125 -28.5t-108.5 -78t-87.5 -113t-60.5 -132t-28.5 -137.5z" />
<glyph unicode="b" horiz-adv-x="1134" d="M-29 272q49 242 105.5 494t106.5 511t84 524t36 536q9 18 33 20q10 1 20 1q16 0 33 -2q29 -3 57.5 -9t47.5 -6l-125 -1192q178 101 309 117q35 4 66 4q88 0 151 -34q86 -46 129 -146.5t44 -233.5v-7q0 -131 -38 -281q-39 -154 -115 -310q2 0 13.5 3t24 7t22.5 7.5t14 3.5 q45 25 87 51t77 36q15 4 28 5q19 -1 35 -9q28 -14 50 -69q2 -18 -22.5 -39t-64.5 -41t-90.5 -40t-99.5 -34q-96 -12 -183 -24.5t-175 -22.5t-179.5 -16t-191.5 -6q-82 0 -137 2t-89 20.5t-48.5 59.5t-14.5 120zM198 338q-3 -9 -2 -21q0 -27 13 -69q47 0 104.5 -7.5 t110.5 -14.5t97 -10q16 -1 30 -1q23 0 35 3q20 5 13 22.5t-56 52.5q-33 4 -76 19.5t-86 31.5t-82 26q-24 6 -43 5q-12 0 -22 -2q-28 -6 -36 -35zM260 543l477 -144q75 111 105 215q29 97 28 177v11q-2 85 -33.5 147.5t-80.5 92.5q-38 23 -84 22q-14 0 -28 -2 q-64 -9 -131 -65.5t-132.5 -168t-120.5 -285.5z" />
<glyph unicode="c" horiz-adv-x="1337" d="M59 516q0 94 15.5 201.5t47.5 213t83 204t122.5 173t165 118.5t209.5 44q80 0 153 -23.5t128 -67.5t89 -107.5t34 -143.5q0 -57 -17.5 -94t-50 -59.5t-79 -34.5t-103.5 -22q-2 2 -4 14t-2 16q0 31 20.5 42t45 18.5t45 17.5t20.5 41q0 43 -17.5 83t-47 70.5t-68.5 48 t-84 17.5q-145 0 -235.5 -64.5t-141.5 -164t-69.5 -219t-18.5 -230.5q0 -82 4 -158.5t27.5 -137t75 -97.5t147.5 -37q106 0 217 46t214 114t196.5 142.5t165.5 131.5h61q-29 -129 -119 -241.5t-213 -195.5t-263 -130t-265 -47q-104 0 -194.5 42t-155 112.5t-101.5 165 t-37 198.5z" />
<glyph unicode="d" horiz-adv-x="1705" d="M31 428q0 84 49 181.5t126 180t168 137t177 54.5q39 0 79 -18.5t76.5 -46t66.5 -60.5t52 -61q6 8 16.5 34.5t19.5 55t16.5 55.5t9.5 39q4 27 9 84t12 130t13.5 152.5t12.5 151.5t9 129t5 86h152v-1345q0 -27 24.5 -40.5t55 -18.5t61.5 -5h43q96 0 162.5 22.5t116 57.5 t83 75t64.5 74.5t61.5 57t73.5 22.5q0 -139 -44 -235t-123 -154.5t-189.5 -84t-241.5 -25.5q-59 0 -105 7t-87 27.5t-81 58.5t-87 99q-33 -45 -86 -99t-115.5 -100.5t-130.5 -77t-127 -30.5q-80 0 -151.5 38t-126 99.5t-87 138t-32.5 154.5zM215 367q8 -47 29.5 -73 t50.5 -38t61.5 -15t65.5 -3q55 0 116.5 17t112.5 53t84 88.5t33 119.5q0 45 -10 96.5t-34 92t-59.5 68.5t-86.5 28q-53 0 -121 -44t-126.5 -110.5t-92.5 -142.5q-26 -56 -26 -105q0 -16 3 -32z" />
<glyph unicode="e" horiz-adv-x="1323" d="M86 616q0 70 9 164t32 196.5t59.5 202t92 178.5t130 127t173.5 48q55 0 110.5 -20.5t99.5 -57.5t72.5 -86t28.5 -106q0 -135 -46 -221.5t-115.5 -140.5t-149.5 -86t-150 -62.5t-116 -68.5t-46 -101q0 -72 19.5 -143.5t57.5 -129t96.5 -93.5t138.5 -36q104 0 215.5 48 t217 116t199 141.5t162.5 126.5h62v-61q0 -4 -35 -42t-84 -87t-101.5 -98.5t-87.5 -79.5q-53 -47 -117.5 -92.5t-135 -80t-144.5 -56t-145 -21.5q-133 0 -228.5 53t-156 140t-89 199.5t-28.5 229.5zM336 979q0 -14 23.5 -37.5t37.5 -23.5q49 0 103.5 35.5t100.5 88t76 109.5 t30 102q0 55 -39 77t-86 22q-53 0 -98.5 -42t-78 -101.5t-51 -123t-18.5 -106.5z" />
<glyph unicode="f" horiz-adv-x="1511" d="M59 834q0 98 19.5 165.5t62.5 116.5t114 87t173 81q2 29 10 91.5t19.5 141t25 164.5t26.5 165t23.5 140.5t18.5 92.5q14 57 43 123.5t72 123t99 93.5t124 37q102 0 165.5 -54.5t99.5 -135.5t49.5 -174t13.5 -169q-51 0 -82 18.5t-50.5 48t-32 66.5t-28.5 75t-41 71.5 t-65 58.5q-90 -68 -140.5 -157t-74 -189t-28.5 -206.5t-5 -211.5q0 -12 1 -43t1 -64.5t1 -63.5t1 -42q109 -31 224.5 -46t231.5 -22q76 -4 152 -4q41 0 82 2q117 3 225 9l123 -123l-61 -62h-949v-794q0 -25 -29.5 -66t-71.5 -81t-89 -69.5t-80 -29.5q-92 0 -155.5 44 t-104.5 116.5t-64.5 163t-34 183.5t-12.5 179.5t-2 149.5zM239 582v-28q0 -30 1 -64q2 -52 9 -106t25.5 -100t48 -75t78.5 -29q43 0 65.5 35t22.5 90v762q-76 0 -142 -39t-101 -110q-2 -16 -3 -55.5t-2 -83.5t-1 -83v-55q0 -18 -1 -59z" />
<glyph unicode="g" horiz-adv-x="1105" d="M14 633q0 96 37 202.5t101.5 194.5t151.5 145.5t188 57.5q96 0 172.5 -51.5t135 -138.5t100.5 -200.5t70.5 -238.5t45 -252t24 -241.5t8.5 -208.5v-31q0 -73 -4 -119l259 74q-12 0 5 -15.5t43.5 -40t48.5 -52.5q21 -27 21 -50q0 -29 -40 -48q-38 -19 -134 -23 q-10 0 -38.5 -13.5t-62.5 -31t-62.5 -31t-39.5 -13.5q-59 -72 -85.5 -173t-43 -210.5t-35 -217t-61.5 -192.5t-120.5 -138.5t-213.5 -53.5q-96 0 -155.5 43t-91 111t-42 149.5t-10.5 161.5q-3 38 -3 74q0 94 23 168q32 100 87 176t129 135.5t145.5 117.5t136 122.5 t101.5 153t41 205.5v19q0 112 -45 265q-49 -37 -110.5 -90t-127 -102.5t-129 -85t-115.5 -35.5q-68 0 -123 59t-96 142t-63.5 172t-22.5 149zM165 620q9 -94 47 -164.5t100 -103.5q30 -16 63 -16q34 0 71 17q72 34 152 146.5t154 336.5q0 37 -23.5 76.5t-58.5 71.5t-79 52 q-34 14 -64 14q-10 0 -19 -1q-135 -20 -212 -89t-108 -158q-25 -69 -25 -141q0 -21 2 -41zM311 -981q0 -47 4 -110.5t21.5 -122t54.5 -98.5t103 -40q74 0 126 53.5t85.5 135.5t53 181t29 191.5t11.5 165t2 103.5v30q-84 -2 -171 -47t-158 -115.5t-116 -156.5t-45 -170z" />
<glyph unicode="h" horiz-adv-x="1351" d="M31 123q10 459 78.5 923.5t164.5 909.5q16 49 46 101t77 83q2 -14 3 -49t2 -74t1 -73.5v-49.5q0 -139 -20.5 -276t-45 -274.5t-45 -273.5t-20.5 -275q0 -6 1 -30t1 -32q37 47 71 72.5t69 38t73.5 15.5t87.5 3q111 0 175.5 -65.5t101.5 -160.5t56.5 -201.5t39.5 -190.5 q6 0 29.5 -1t32.5 -1q84 0 143 16t102 44t77 63.5t69 76.5q6 0 17.5 -7t20.5 -16t16 -19.5t7 -16.5q0 -98 -40 -171t-107.5 -121t-155.5 -72.5t-184 -24.5q-33 0 -65.5 3t-61.5 16.5t-51.5 39t-32.5 70.5l-121 549q0 4 -20.5 10t-32.5 6q-90 0 -142.5 -47t-82 -116.5 t-47 -151.5t-39 -151.5t-56.5 -117t-100 -47.5q-33 0 -53.5 14.5t-38.5 51.5z" />
<glyph unicode="i" horiz-adv-x="493" d="M131 589q0 126 14.5 243.5t48 209t97.5 127.5q39 -29 50 -50t10.5 -42.5t-7 -46t-2.5 -61.5q-7 -42 -7 -98q0 -23 1 -47q4 -86 11 -182t13 -194q3 -49 2.5 -94.5t-2.5 -88.5q-6 -85 -29 -149.5t-71 -88.5q-35 8 -54.5 16t-28.5 17.5t-12 23t-5 31.5l-8 69 q-7 68 -14 173.5t-7 231.5zM150 1413q-1 6 0 11q0 26 22 46q22 19 77 18q14 0 30 -1q8 -49 9 -82q0 -32 -8 -49q-15 -33 -40 -33h-2q-26 2 -54 29.5t-34 60.5z" />
<glyph unicode="j" horiz-adv-x="765" d="M-391 -575q0 82 39 135t96 92t125 69.5t125 68.5t96 87t39 125v1114l152 -76q0 -35 4 -106.5t10 -161.5t12 -189.5t13.5 -190.5t12.5 -162.5t9 -106.5q2 -25 10 -60.5t18.5 -69.5t19.5 -58.5t13 -24.5l500 475q8 0 21.5 -26.5t23.5 -61.5t18.5 -71t8.5 -56l-572 -475 q0 -23 -4 -70t-9 -107.5t-12 -127t-13.5 -127t-12.5 -108.5t-10 -70q-8 -51 -31.5 -126t-62.5 -143.5t-92.5 -117t-118.5 -48.5q-72 0 -131.5 43t-107.5 113t-82.5 156t-58.5 172t-36 163t-12 128zM-213 -709q0 -49 10 -125.5t35 -150.5t67 -126t107 -52q49 0 78 42t45 95 t22.5 103.5t8.5 68.5t4 57t4 89.5t4 104.5t4 104t3 89t1 58q-186 0 -289.5 -95.5t-103.5 -261.5zM-45 1587q8 27 30.5 43.5t50 23.5t55.5 9t48 2q15 -66 15 -107q0 -27 -6 -44q-17 -40 -49 -40h-2q-34 1 -74.5 34.5t-67.5 78.5z" />
<glyph unicode="k" horiz-adv-x="1671" d="M59 266v24.5t1 32t1 27.5v17q4 53 13.5 151t22 225t26.5 273.5t28.5 298t29 298t26.5 273.5t22.5 224.5t16.5 150.5q2 4 13 5t15 1q45 0 65.5 -42t27.5 -85q4 -23 10 -71t12 -108t13.5 -127t12.5 -127t9 -108.5t4 -70.5q80 41 142.5 54t142.5 13t141 -42t103 -105.5 t63.5 -139t21.5 -143.5q0 -59 -11 -113.5t-23.5 -108.5t-23.5 -108.5t-11 -113.5q0 -74 23.5 -159t67.5 -157.5t107.5 -119.5t145.5 -47q78 0 137 9t106.5 33.5t84 64.5t69.5 101h68q0 -94 -37 -176t-99.5 -142t-147.5 -95t-183 -35q-86 0 -145.5 39t-104.5 99.5t-80 133 t-70.5 141t-78.5 123t-103 78.5q-74 29 -119 40.5t-73.5 15.5t-50 5t-47 11t-64.5 34.5t-105 76.5v-775q-63 0 -105 18.5t-66.5 51.5t-34 78t-9.5 98zM305 918q57 -4 122 -28t129.5 -44.5t122.5 -26.5q10 -1 20 -1q46 0 81 24q44 28 66 104q18 60 17 163q0 27 -1 58 q0 45 -9 90.5t-30.5 79t-58.5 55t-90 21.5q-96 0 -155.5 -52t-97.5 -129t-63.5 -163t-52.5 -151z" />
<glyph unicode="l" horiz-adv-x="905" d="M61 551v1284q0 47 19.5 78t50.5 49t69 26.5t74 8.5v-1569q0 -23 32 -63.5t73 -81.5t81 -72t56 -31q113 0 177.5 16.5t107.5 51.5t78.5 91t89.5 134l90 -90q-37 -82 -63.5 -142.5t-56.5 -103.5t-64.5 -70.5t-86 -43t-124 -20.5t-175.5 -5q-90 0 -168.5 56.5t-136 140.5 t-90.5 180t-33 176z" />
<glyph unicode="m" horiz-adv-x="2674" d="M86 1303q55 0 99 -35t76 -84t51.5 -105.5t23.5 -99.5q8 6 34.5 31.5t66.5 59.5t87 72t96.5 70.5t94.5 53t80 20.5q125 0 214 -68.5t149.5 -171t97 -220t59.5 -214.5q45 37 88 92.5t85 117t85 123t93 110.5t106.5 79.5t125.5 30.5q68 0 111 -42t67.5 -111.5t37 -157.5 t20.5 -181t18.5 -181.5t29 -158t52 -111.5t90.5 -42q76 0 142.5 29t123 75t106.5 101t97 109q4 -8 5.5 -32t1.5 -30q0 -90 -46.5 -170t-119 -139.5t-161.5 -94t-173 -34.5q-94 0 -157.5 52t-103.5 136t-60.5 187.5t-31 206t-13.5 193.5t-7 149q-8 2 -31.5 4t-29.5 2 q-76 0 -142.5 -52.5t-124 -136.5t-104.5 -187.5t-83 -205.5t-60.5 -193.5t-36.5 -148.5q-6 0 -29.5 -1t-32.5 -1q-57 0 -86.5 47t-44 125t-18.5 177t-9 201.5t-15.5 202t-39 177.5t-80 125t-135.5 47q-109 0 -178 -56.5t-116.5 -143.5t-78 -194.5t-62.5 -209t-71.5 -185.5 t-103.5 -127l-61 60q6 105 6 191v41q-2 102 -9.5 184.5t-18.5 155.5t-21.5 146.5t-17.5 155.5t-7 185z" />
<glyph unicode="n" horiz-adv-x="1804" d="M55 551q0 43 1 112.5t2 137t2 120t1 58.5q0 27 8.5 69t17.5 80.5t19.5 66.5t16.5 28h61q16 0 28.5 -29t20 -73t10.5 -96t4 -99t1 -84t-2 -47q53 41 94 93t80 106.5t78 107.5t86 95t107.5 67.5t139.5 25.5q104 0 174 -45t116 -118.5t73 -169t43 -193.5t27.5 -193.5 t27 -169t39 -118.5t66.5 -45q104 0 178 12t129 40.5t99 79t91 124.5l56 -70q-25 -90 -84.5 -179t-141.5 -154.5t-180 -94.5q-46 -14 -92 -14q-53 0 -106 18q-76 25 -124 86t-77 143t-45.5 179.5t-27.5 194.5t-25.5 187.5t-39 160t-66.5 111.5t-112 42q-111 0 -190.5 -78 t-139 -193.5t-104.5 -252t-83 -252t-75.5 -193.5t-82.5 -78q-33 0 -53.5 14.5t-39.5 51.5q0 25 -1 85t-2 127.5t-2 129t-1 86.5z" />
<glyph unicode="o" horiz-adv-x="1232" d="M29 520q0 47 21.5 131t59 182.5t89 201t113 185.5t130 135t140.5 52q6 0 32.5 -10.5t57 -22.5t58.5 -21.5t34 -6.5q8 0 32.5 -14.5t51 -33t51.5 -33t33 -10.5q16 6 50 4t71 -8t67.5 -12t42.5 -6q31 0 75 -10.5t85 -26.5t70.5 -41t29.5 -51q0 -41 -27.5 -67.5t-66.5 -26.5 q-49 0 -73.5 6t-52 13t-70.5 13.5t-125 6.5q0 -84 10 -129.5t23.5 -83t23.5 -81.5t10 -126q0 -115 -62.5 -227.5t-160.5 -201.5t-218 -144.5t-237 -55.5q-86 0 -154.5 56.5t-115.5 137t-72.5 169.5t-25.5 157zM215 489q0 -139 63.5 -195t176.5 -56q111 0 193.5 38.5 t137 105.5t81 157t26.5 192q0 68 -6 154t-34 161.5t-84 128t-157 52.5q-4 0 -16 -2t-14 -2q-61 -68 -126 -154t-118 -182t-88 -198t-35 -200z" />
<glyph unicode="p" horiz-adv-x="1462" d="M49 -631q2 76 6 133.5t4 75.5q0 199 2 360.5t8.5 319.5t18.5 329t35 392q14 133 53 227t107.5 153.5t169 87.5t237.5 28t229.5 -50.5t147.5 -135.5t77.5 -195.5t22.5 -231.5q0 -72 -11 -138.5t-23.5 -131t-23.5 -129t-11 -129.5q18 -53 88 -68q47 -11 102 -11q24 0 50 2 q83 7 162 29.5t116 47.5q15 -40 15 -73q0 -34 -16 -60q-32 -51 -101.5 -79t-165.5 -34q-57 -4 -114 -4q-38 0 -76 2q-95 4 -176 15.5t-122 23.5q-41 0 -79 -10.5t-75.5 -22.5t-75.5 -22.5t-79 -10.5q-72 0 -138.5 33t-107.5 92q-35 -145 -50 -313t-21 -339q-2 -86 -2 -169.5 t2 -165.5q6 -164 12 -297l-62 -61q-47 18 -74.5 75.5t-42 133t-17.5 160.5q-2 51 -2 99q0 32 1 62zM287 539q49 0 94 12t88 25.5t85 25.5t89 12q31 0 61.5 -10t60.5 -23.5t60.5 -23.5t63.5 -10t50 12t40 53q0 12 1 42t2 64t2 64.5t1 42.5q0 68 -8 149t-37 151.5t-84 117.5 t-147 47q-100 0 -170 -34.5t-117 -93t-73.5 -134.5t-41 -160t-17.5 -169t-3 -160zM414 367q0 -39 14 -63.5t37.5 -39t53.5 -19.5t63 -5t62.5 5t53 19.5t38 39t14.5 63.5h-336z" />
<glyph unicode="q" d="M90 453q0 135 47 272t132 249.5t204 183.5t260 71q61 0 128 -9.5t128.5 -31t114.5 -58t88 -90.5q0 -18 1 -65t1 -101.5t1 -102.5t1 -66q0 -197 -10 -391.5t-23.5 -389t-24 -388t-10.5 -390.5v-72.5t1 -112t1 -111.5v-73q43 35 114 58.5t143.5 38t137 20.5t95.5 6 q8 0 45 -9t78 -19.5t76.5 -20.5t46.5 -12q2 0 14 -1t18 -1q35 0 83.5 23.5t96.5 54t90 61.5t64 47q2 -8 5.5 -31.5t3.5 -29.5q0 -53 -24 -97.5t-60.5 -81t-81.5 -68.5t-88 -58q-25 2 -78.5 4t-119 3t-139 1t-139 -1t-119 -3t-77.5 -4q-10 -2 -46 -20.5t-77 -40t-77 -41 t-44 -21.5q-4 0 -15.5 -1t-15.5 -1q-14 0 -30.5 2t-29.5 9t-22.5 19.5t-9.5 32.5v1638q-70 0 -132 -27.5t-123.5 -59t-126 -59.5t-138.5 -28q-66 0 -126 40t-107.5 99.5t-76 128t-28.5 126.5zM270 494q0 -68 9.5 -107t33 -57.5t65.5 -23.5t109 -5q70 0 161 24.5t171 71.5 t135.5 117t55.5 160q0 18 -11.5 69.5t-30 109.5t-40 110.5t-41.5 76.5q-8 0 -29.5 2t-46.5 4.5t-47.5 4.5t-30.5 2q-104 0 -189 -51.5t-145.5 -131t-94.5 -179t-34 -197.5z" />
<glyph unicode="r" horiz-adv-x="1619" d="M61 184v1100l62 62q6 -6 15 -23.5t19.5 -37t17.5 -37t9 -25.5q4 -18 9.5 -56.5l12.5 -87.5t13 -101t12.5 -101.5t9.5 -87t5 -56.5q70 66 154.5 132.5t179 119.5t194.5 87t199 34q92 0 192.5 -11.5t185.5 -46t140 -100t55 -172.5q-10 0 -38.5 2t-61.5 5t-61.5 6.5 t-38.5 5.5q-16 4 -79 23.5t-135.5 41t-135 38.5t-78.5 20q-28 3 -54 3q-110 1 -192 -47q-101 -58 -169.5 -157t-112.5 -217.5t-77.5 -226t-62.5 -184.5t-66 -89q-18 12 -39.5 34.5t-40 50.5t-31 54.5t-12.5 44.5z" />
<glyph unicode="s" horiz-adv-x="1177" d="M31 305q0 125 43 210t116.5 134t173.5 69q83 16 179 16q19 0 39 -1l28 742q0 25 28 47t64.5 39.5t72.5 27.5t52 10q35 0 64 -16t49.5 -43t31.5 -58.5t11 -64.5q0 -41 -10 -74.5t-58 -50.5l-122 121q0 -29 -15.5 -64.5t-15.5 -64.5v-75t2 -117.5t6 -137t11 -132 t17.5 -102.5t26.5 -48l428 -183q16 -6 29.5 -31.5t23 -56t13.5 -61.5t4 -49q-68 0 -128 21.5t-119.5 48t-120 48t-130.5 21.5q-6 0 -29.5 -1t-31.5 -1q-18 -80 -45 -157.5t-69 -139t-104.5 -100.5t-150.5 -39q-57 0 -120.5 25.5t-118 69.5t-90 100.5t-35.5 117.5zM250 141 q98 0 156.5 26t87 74t37 116.5t8.5 152.5q-109 0 -168.5 -16.5t-86 -58.5t-30.5 -112.5t-4 -181.5z" />
<glyph unicode="t" horiz-adv-x="1148" d="M31 1100q2 6 10 16t18.5 19.5t19.5 17.5t13 8q16 6 60.5 16.5t92.5 19.5t92 17.5t60 8.5l185 917l61 62q37 -6 51.5 -40t17.5 -74q1 -17 1 -34q0 -22 -2 -42q-4 -36 -4 -44q0 -18 -1 -49t-1 -61.5t-1.5 -55t-1.5 -28.5q0 -14 -9 -68.5t-20 -116t-20.5 -116t-9.5 -66.5 q-4 -25 -3 -61.5t5 -71.5q4 -39 8 -82h521q-2 -18 -9 -35q-4 -16 -13 -31.5t-22 -25.5q-4 -4 -26.5 -12.5t-51 -17.5t-58 -18.5t-46.5 -13.5q-20 -4 -72.5 -13t-110.5 -18.5t-110.5 -17.5t-72.5 -10q-10 -27 -21.5 -96.5t-20.5 -147.5q-10 -77 -16 -147q-4 -52 -4 -82v-17 q0 -4 18.5 -53t48 -106.5t67.5 -103.5t79 -46q45 0 81 17.5t73 46.5q20 16 73.5 59t111.5 92t110.5 93t70.5 63q0 -2 -1 -19.5t-2 -39t-2 -40t-1 -20.5v-6q0 -63 -43 -125q-45 -65 -116.5 -123.5t-157.5 -105.5t-166 -72q-12 -2 -25 -2q-45 0 -91 22q-60 28 -113.5 73.5 t-91 103t-46.5 108.5q-6 39 -15 134.5t-19.5 203t-17.5 202.5t-9 134z" />
<glyph unicode="u" horiz-adv-x="1615" d="M90 571q0 94 2 169t8 149t18.5 152.5t35.5 181.5q2 0 14 2t16 2t15.5 -2t15.5 -2q10 -4 25.5 -13.5t30 -19.5t24.5 -18.5t10 -10.5v-917q0 -2 10.5 -10.5t25.5 -17.5t30.5 -18.5t25.5 -13.5q6 -2 13 -2q4 -2 9 -2h9q45 0 97.5 28t98.5 67.5t83.5 81.5t56.5 71 q14 23 39.5 70t56.5 106.5t64.5 126t63.5 127t51.5 108.5t31.5 72q2 4 14.5 5t16.5 1q51 0 70.5 -64.5t25.5 -160.5t6 -207.5t13.5 -208t47 -161t107.5 -64.5q86 0 130 25.5t79 56.5t77 56.5t124 25.5q0 -68 -39 -130t-98.5 -110.5t-131 -76t-137.5 -27.5q-88 0 -149.5 41 t-103.5 104.5t-68.5 139t-44.5 145.5q-45 -51 -110.5 -126t-143.5 -143.5t-161 -116.5t-161 -48q-117 0 -185.5 55t-103 140t-45 187.5t-10.5 194.5z" />
<glyph unicode="v" horiz-adv-x="1497" d="M31 1223l61 123l123 -123l410 -887l628 1071l123 121q6 -4 17.5 -20.5t20.5 -36t16.5 -38t7.5 -26.5q0 -49 -30 -135t-81 -193.5t-116.5 -230.5t-136 -243t-142.5 -229.5t-135.5 -193.5t-111.5 -134t-73 -50h-18q-6 0 -12 2q-12 8 -32 25.5t-39 37t-34.5 37t-17.5 23.5z " />
<glyph unicode="w" horiz-adv-x="2437" d="M31 1223q-1 6 -1 11q0 12 6 20q9 12 24.5 19t33 10t29.5 3q29 0 55.5 -13t36.5 -50l182 -734h62l366 611q12 20 35 33.5t50.5 20.5t55 10t50.5 3q57 0 117.5 -50t119 -128t114.5 -172t104.5 -183t86 -162t62.5 -105l61 61l306 856q14 41 36.5 52.5t53.5 11.5 q37 0 96 -6.5t128 -21.5t139.5 -40t126.5 -60.5t92 -84t36 -109.5q-66 0 -128 12.5t-122.5 26.5t-122 26.5t-124.5 12.5q-29 0 -51.5 -12.5t-37.5 -53.5l-305 -854q-4 -12 -20.5 -31.5t-35.5 -39t-38.5 -35t-28.5 -17.5q-13 -3 -26 -3q-34 0 -67 22q-46 31 -90 89t-87 136 t-86 162t-85 165t-85 144.5t-87 103.5t-89 40q-33 0 -69 -35t-66.5 -80t-53 -85t-26.5 -48q-12 -25 -37 -76t-54.5 -117.5t-63.5 -139.5t-63.5 -139.5t-53 -119.5t-33.5 -80q-8 -2 -30.5 -5t-31.5 -3q-33 0 -52 5t-31.5 19.5t-21.5 40t-18 66.5z" />
<glyph unicode="x" horiz-adv-x="1466" d="M92 61q0 2 7 18.5t16.5 36t20.5 39t18 29.5q16 25 54 78t86 120t101.5 139.5t101.5 139t87 118.5t59 77v62l-477 610h170l489 -428l428 366h160q0 -66 -29.5 -116t-75.5 -94t-98.5 -82.5t-98.5 -80.5t-75.5 -92.5t-29.5 -113.5q0 -8 2 -18.5t2 -12.5l366 -551v-88 q-70 0 -119 34t-89 85t-73.5 111.5t-68.5 111.5t-76 85t-96 34q-4 0 -16 -4q-6 -2 -13 -2l-671 -672q-14 0 -38 23.5t-24 37.5z" />
<glyph unicode="y" d="M59 700q0 57 1 105.5t7.5 94.5t18.5 94t37 108q2 0 14.5 1t16.5 1q33 0 53 -13.5t39 -50.5q-2 -18 -3 -56t-1 -87v-101.5v-101.5t1 -87t3 -56q0 -12 8 -32.5t17.5 -40t18.5 -34t15 -16.5q25 -6 49 -6q46 0 92 20q70 29 137.5 88.5t130 138.5t115 158.5t91 153.5t59.5 121 h121q16 -150 24.5 -304.5t19.5 -309t28.5 -308t50.5 -301.5q18 -2 61 -10t92 -18.5t92 -19.5t60 -13q39 -18 67.5 -49t32.5 -62q1 -4 1 -9q0 -26 -21 -50q-25 -29 -90 -45q-10 0 -54.5 5t-94.5 11t-94 11t-52 3q-4 -27 -12.5 -85t-20.5 -129.5t-25.5 -151.5t-26 -151.5 t-22.5 -130t-16 -85.5q-10 -59 -36 -134t-67 -140.5t-99 -110.5t-134 -45q-86 0 -140.5 43t-85 106.5t-42 138.5t-11.5 138q0 293 118 506t376 354v53t1 83.5t1 83v55.5v153.5t-4 139t-18.5 138t-40.5 150.5q-78 -29 -147 -89t-136.5 -123.5t-140 -110.5t-158.5 -47 q-90 0 -144.5 47t-83 116.5t-39 149.5t-10.5 145zM608 -1163q0 -25 3 -56.5t12.5 -61.5t29 -49.5t49.5 -19.5q70 0 118 54.5t80 138.5t50.5 187.5t27.5 200.5t11 178t2 120q-70 0 -125 -39t-97 -100.5t-72.5 -138t-50 -153.5t-29 -146.5t-9.5 -114.5z" />
<glyph unicode="z" horiz-adv-x="1345" d="M47 1284q0 55 37 90t88 54.5t105.5 27.5t89.5 10q23 2 72.5 4t112 4.5t131.5 5.5t131.5 5t112.5 3t72 1q0 -125 -26.5 -237.5t-66.5 -218t-87 -206t-87 -202t-66.5 -202.5t-26.5 -210h606q0 -2 -1 -36t-9 -72.5t-25.5 -71.5t-48.5 -33h-794q-25 0 -38.5 13.5t-19.5 31.5 t-6 39v35q0 90 36 179t89 180t114.5 186.5t115 194.5t89 204.5t35.5 220.5h-735z" />
<glyph unicode="{" horiz-adv-x="1894" d="M59 1315q0 4 1 15t1 16q100 63 181.5 103t137.5 83t86 103.5t30 164.5q0 106 -28 194.5t-71 169.5t-91 159.5t-91 166.5t-70.5 188.5t-27.5 227.5q0 106 17.5 221t66.5 210t137 156.5t227 61.5q12 0 47 2t74 -2t70.5 -19t38.5 -52q-131 4 -225.5 -45.5t-154 -131 t-88 -187t-28.5 -214.5q0 -106 25.5 -191t65.5 -158t86 -136.5t88 -127t72 -131t38 -145.5v-56v-98.5t-1 -121t-1 -120.5v-98t2 -57q0 -8 8 -25.5t17.5 -37t18.5 -35.5t15 -22v-979q0 -47 19.5 -107.5t53.5 -123t79 -121t95 -104.5t102.5 -73.5t103.5 -27.5q88 0 171 35.5 t164 87t158.5 103.5t155.5 87q0 -4 1 -15.5t1 -15.5q0 -57 -34 -118.5t-88 -120t-123.5 -109.5t-141.5 -90t-139.5 -61.5t-118.5 -22.5q-121 0 -220.5 54t-178 145.5t-137 207t-96.5 237.5t-56.5 242t-18.5 216q0 72 8.5 140.5t19.5 136t19.5 135t8.5 139.5h-418 q-37 0 -50.5 32.5t-13.5 59.5z" />
<glyph unicode="|" horiz-adv-x="458" d="M47 2812h137l8 -49q9 -49 18 -117t19.5 -140.5t16.5 -121.5q61 -508 93 -1021t32 -1027q0 -16 -1 -55t-1 -83t-1 -83t-1 -54q-18 -37 -39 -50t-54 -13q-37 0 -58 18.5t-31.5 48t-11.5 65.5t2 71t6 62.5t3 41.5q-20 330 -43.5 643.5t-44 620.5t-35 615t-14.5 628z" />
<glyph unicode="}" horiz-adv-x="1314" d="M-154 -551q6 4 23.5 13.5t38 19.5t38 18t23.5 11q25 8 78 22t118.5 32.5t139.5 38t139.5 38t118.5 32t78 19.5q90 59 140 125.5t75 142.5t30 162t5 184q0 129 -39 245t-87 227.5t-87 225t-39 240.5q0 43 10 82t22.5 77t23 77t10.5 80q0 68 -39 116.5t-87.5 96t-87 100.5 t-38.5 127q0 104 27.5 198.5t70.5 183.5t91 176t91 176t70.5 183.5t27.5 200.5q0 102 -23.5 163.5t-70.5 93.5t-119.5 42t-171.5 10q-76 0 -120.5 -23.5t-80.5 -51t-75 -50t-100 -22.5q0 125 33.5 192.5t96 98t151.5 36t198 5.5q16 0 55 -1t83 -2t83 -2t55 -1 q59 -47 105.5 -91.5t78 -94.5t48 -108.5t16.5 -131.5q0 -150 -41 -295.5t-104.5 -283.5t-140 -270t-146.5 -255q18 -74 67.5 -129.5t112 -98.5t130 -76.5t123.5 -64.5t93 -59.5t37 -63.5q0 -16 -24.5 -39.5t-62.5 -50.5t-83 -55.5t-87 -56t-75.5 -54t-46.5 -47.5 q12 -25 34 -81t47.5 -128t52 -151.5t49 -153.5t39 -132t22.5 -87q2 -4 4 -40t4 -84t3 -96t1 -77q0 -440 -238.5 -655t-686.5 -215q-37 0 -78 -1.5t-83 4t-80 19.5t-69 45z" />
<glyph unicode="~" horiz-adv-x="2629" d="M31 1161q2 90 42 172t106.5 149.5t150.5 122t175 92.5t182 58.5t169 20.5q125 0 217 -46.5t167 -115t138.5 -149.5t130 -149.5t143.5 -114.5t179 -46q100 0 189 31t170 82t152 118.5t134 143.5q51 -16 57.5 -49t6.5 -72q0 -88 -40 -159.5t-105.5 -126t-150.5 -94.5 t-174.5 -64.5t-175.5 -37t-155 -12.5q-104 0 -178 50.5t-133.5 126t-111.5 163.5t-115.5 164t-145.5 126t-199 50q-98 6 -170 -23.5t-129 -78.5t-106.5 -108.5t-101.5 -110.5t-113.5 -84t-143.5 -29q-4 -2 -15 -4t-16 -2q-4 0 -16 2t-14 4z" />
<glyph unicode="&#xa1;" horiz-adv-x="335" d="M2 1284q0 -28 37.5 -38t68.5 -10q44 0 75 21t31 50q0 31 -32.5 51t-78.5 20q-49 0 -75 -26.5t-26 -67.5zM73 -413q2 0 16 -1.5t19 -1.5q37 0 60 10.5t44 38.5q5 23 11.5 73.5t14.5 113.5t15.5 133t13 134t9 114t3.5 75q0 18 -3.5 58t-9 89t-13 104.5t-15.5 104.5 t-14.5 89t-11.5 58h-139v-1192z" />
<glyph unicode="&#xa2;" horiz-adv-x="1337" d="M59 516q0 94 15.5 201.5t47.5 213t83 204t122.5 173t165 118.5t209.5 44q80 0 153 -23.5t128 -67.5t89 -107.5t34 -143.5q0 -57 -17.5 -94t-50 -59.5t-79 -34.5t-103.5 -22q-2 2 -4 14t-2 16q0 31 20.5 42t45 18.5t45 17.5t20.5 41q0 43 -17.5 83t-47 70.5t-68.5 48 t-84 17.5q-145 0 -235.5 -64.5t-141.5 -164t-69.5 -219t-18.5 -230.5q0 -82 4 -158.5t27.5 -137t75 -97.5t147.5 -37q106 0 217 46t214 114t196.5 142.5t165.5 131.5h61q-29 -129 -119 -241.5t-213 -195.5t-263 -130t-265 -47q-104 0 -194.5 42t-155 112.5t-101.5 165 t-37 198.5zM553 1825h137v5t1 2t4 -21.5t10 -67.5q20 -168 39.5 -315.5t36 -284.5t29.5 -269.5t23.5 -270.5t15.5 -287.5t5 -319.5q0 -16 -1 -55t-1 -83t-1 -83t-1 -54q-18 -37 -38.5 -50t-53.5 -13q-39 0 -59.5 18.5t-31 48t-11.5 65.5t2.5 71t6.5 62.5t3 41.5 q-14 219 -27.5 383t-26 300t-23.5 257t-19.5 254t-13.5 293t-5 373z" />
<glyph unicode="&#xa3;" horiz-adv-x="1253" d="M31 2202q0 8 7 26.5t16 38t20.5 35.5t17.5 20q49 -37 86 -99t76 -122.5t87 -105.5t118 -45q6 0 29.5 2t31.5 4q4 35 13.5 98.5t23.5 139t36.5 154.5t54.5 142.5t76 104.5t101 41q39 0 73 -8.5t50 -59.5q0 -12 1 -41.5t2 -63.5t2 -66t1 -44q0 -86 -18 -157.5t-46 -137 t-59.5 -128t-59.5 -129t-47 -141.5t-22 -163h447q-2 -18 -4 -35q-4 -14 -7 -29.5t-8 -25.5q-2 -4 -10 -13.5t-18 -19.5t-19.5 -18t-13.5 -10q-18 -8 -70.5 -27t-111 -38t-110.5 -35.5t-75 -22.5v-551l14 -8q15 -9 34.5 -18t40 -18.5t34.5 -15.5q16 -6 46 -17t60 -20.5 t52.5 -16.5t26.5 -7q2 0 11 9t18.5 20.5t17.5 20.5t12 11t19.5 4t34 4.5t32.5 4.5t19 2q0 -131 -48.5 -196.5t-175.5 -65.5q-37 0 -71.5 10t-69.5 22.5t-69.5 22.5t-73.5 10q-18 0 -35 -29.5t-34 -73.5t-36.5 -97.5t-43 -101.5t-53.5 -84t-67 -44q-47 -12 -88 8.5t-75.5 58 t-62.5 89t-46.5 103.5t-28.5 99t-10 78q0 78 29.5 133.5t81 91t119 53t143.5 19.5v490q-4 0 -30 1t-62.5 5t-79.5 11t-83 21.5t-71 35t-41 49.5q-4 10 -8 25t-6 30q-4 16 -4 35h385l61 276q-88 16 -175 57t-156.5 103.5t-113.5 145.5t-44 184zM268 294q0 -24 5.5 -46.5 t19.5 -40t43 -23.5q39 27 65.5 64t43 80t22.5 90t6 90q-109 0 -157 -35t-48 -137v-42zM762 2232q0 -4 1 -16t1 -14q51 16 59 49t8 71q0 8 -3 32t-3 30q-29 -43 -46 -76t-17 -76z" />
<glyph unicode="&#xa5;" horiz-adv-x="1742" d="M55 2136q0 41 10.5 75t57.5 50q98 -86 181 -187.5t166 -201.5t175 -190.5t211 -153.5q27 29 78 88t117.5 130t143.5 145.5t156 136t155.5 100.5t144.5 39v-88l-611 -613q-12 -12 -23 -57t-20.5 -102.5t-15.5 -117t-6 -97.5q0 -45 25.5 -66.5t64.5 -34t83 -21.5t83 -27.5 t64.5 -52.5t25.5 -95h-342v-213h338q-2 -18 -8 -37q-4 -16 -10.5 -30.5t-14.5 -25.5q-12 -16 -58 -35.5t-98.5 -38t-97.5 -32.5t-51 -16q2 -8 7 -38t9 -71t3 -87t-11 -84t-34.5 -63.5t-65.5 -25.5q-55 0 -86 54t-45.5 122t-17.5 126.5t-5 66.5q-20 2 -72.5 9t-110.5 16 t-110.5 19.5t-72.5 16.5q-4 0 -13.5 8t-19.5 17.5t-18.5 19.5t-10.5 16q-10 23 -14 56q-4 18 -4 37h446v213l-428 123q-2 0 -4 10t-2 14q0 63 52 87t119 27t127 -6.5t77 -11.5q20 27 33.5 48.5t19.5 42t8 43t2 51.5q0 100 -50 180t-126 148.5t-165 132t-164.5 131 t-126 145.5t-50.5 176z" />
<glyph unicode="&#xa8;" horiz-adv-x="1705" d="M362 1188q0 25 6.5 61.5t25 69.5t50 56.5t84.5 23.5q35 0 66 -15.5t53.5 -39t35.5 -49t13 -46.5q0 -27 -14 -54.5t-40 -49t-60.5 -34.5t-73.5 -13q-55 0 -100.5 22.5t-45.5 67.5zM1073 1188q0 25 6 61.5t24.5 69.5t50.5 56.5t85 23.5q35 0 65.5 -15.5t53 -39t36 -49 t13.5 -46.5q0 -27 -14.5 -54.5t-40 -49t-60.5 -34.5t-73 -13q-55 0 -100.5 22.5t-45.5 67.5z" />
<glyph unicode="&#xad;" horiz-adv-x="1619" d="M31 1102q6 6 63.5 22.5t148.5 39t206.5 50t239.5 54t248 52.5t230.5 45t186.5 31.5t116 12.5q33 0 50.5 -11.5t38.5 -51.5q-141 -88 -302 -158t-332 -117t-345 -72.5t-342 -25.5q-16 0 -40 1t-47.5 2t-40.5 2l-18 1z" />
<glyph unicode="&#xb2;" horiz-adv-x="870" d="M42 538q0 54 20 85.5t50.5 54.5t66.5 42.5t68 48.5q73 66 112.5 137.5t57 146.5t20 155t2.5 164q-46 0 -83 -25.5t-63 -63t-40 -82.5t-14 -82q-37 0 -65 21.5t-28 57.5q0 45 26.5 95t68.5 91.5t93.5 68.5t100.5 27q45 0 75 -16t47.5 -41.5t25.5 -58t8 -66.5 q0 -53 -16 -102t-39.5 -95t-50.5 -91.5t-50.5 -90t-39 -90t-15.5 -91.5q0 -4 0.5 -16t2.5 -15q32 -39 57 -64t50.5 -38.5t55 -19t69.5 -5.5q32 0 58 2.5t50.5 9.5t48 20t52.5 33q1 -3 3 -15t2 -16q0 -29 -21.5 -57t-52 -49.5t-67 -34.5t-66.5 -13q-37 0 -67 12t-55.5 29.5 t-49 37.5t-47 37.5t-50 29t-58.5 11.5q-2 0 -9 -2q-3 -1 -6 -1l-169 -153q-2 -1 -8 -2t-9 -1q-16 0 -25.5 8.5t-15.5 20.5t-8.5 26t-2.5 25z" />
<glyph unicode="&#xb3;" horiz-adv-x="806" d="M50 797h9.5t16 0.5t16 0.5h11.5q37 0 69 -13t62 -31t59.5 -40t59 -40.5t61.5 -31.5t69 -13q3 0 10 1.5t9 1.5q5 1 20 5.5t31.5 9.5t31.5 10l21 7q0 8 1 29.5t2 45.5t1.5 45t0.5 30q0 91 -18 151t-47.5 98t-68.5 57t-78.5 27.5t-77.5 11t-67.5 6.5t-48 13t-18.5 33 q0 2 0.5 8t0.5 8q55 16 110 45.5t98.5 69.5t70.5 88.5t27 103.5q-54 0 -96 6t-74 1t-57 -29.5t-43 -85.5q-9 7 -21.5 19t-23.5 27t-17.5 29.5t-6.5 24.5q0 32 26.5 62t64.5 53t79 37t71 14q52 0 92 -5t67.5 -21t41 -45.5t13.5 -76.5t-10 -83.5t-28.5 -68t-45.5 -63.5 t-59 -68q72 -49 120 -93t75.5 -94.5t39.5 -113t12 -149.5q0 -44 -3.5 -93.5t-21 -91t-53.5 -68.5t-98 -27t-134 26.5t-140.5 66.5t-125.5 86.5t-88 86.5z" />
<glyph unicode="&#xb4;" horiz-adv-x="960" d="M123 1346v61q0 2 19.5 30.5t51 71.5t71.5 96.5t80 106.5t78 101.5t66 80.5q12 14 39 42t55.5 57.5t54.5 54.5t36 31h10q4 0 9 1t9 1q33 0 53.5 -13.5t39.5 -50.5q-16 -23 -59.5 -75t-91.5 -110t-92 -110.5t-63 -70.5q-31 -35 -81 -87.5t-99 -100.5t-86 -82.5t-39 -34.5 h-61z" />
<glyph unicode="&#xb9;" horiz-adv-x="366" d="M60 634v47v49t1 62t1 55v29q1 24 6 58.5t10 71.5t11 74t12 66.5t10.5 48t6.5 19.5l56 32l56 -32v-770q0 -18 -31.5 -26t-55.5 -8q-28 0 -43.5 10t-22.5 24.5t-10.5 31.5t-4.5 30v22t-1 49t-1 57z" />
<glyph unicode="&#xbc;" horiz-adv-x="1789" d="M-184 -320l1038 2323q16 35 51 55.5t72 20.5v-199l-918 -2077q0 -2 -25.5 -34.5t-62 -70.5t-78.5 -68.5t-77 -30.5v81zM32 794.5v55.5v57.5t1 72.5t1 64.5v34.5q2 27 7 67.5t9.5 84.5t11.5 87t13 78t10.5 57t6.5 23l57 37l58 -37v-905q0 -21 -33 -30.5t-57 -9.5 q-29 0 -44.5 12t-23 29t-10.5 37t-5 35v26t-1 58t-1 66.5zM366 548q0 7 1.5 20.5t1.5 14.5l317 792q8 20 21.5 28t30.5 8q24 0 40 -15.5t16 -37.5q0 -3 -1.5 -10t-1.5 -8l-281 -687v-66q17 0 57.5 1.5t90 4.5t103 8t98 12.5t75 17t33.5 22.5l71 240h71v-240q0 -2 11.5 -6.5 t28.5 -10t34.5 -11t29.5 -7.5q15 -3 50 -8t74 -11t73.5 -10.5t49.5 -5.5v-63q-42 0 -88.5 -4t-93 -10t-90 -12.5t-79.5 -14.5q-4 -3 -10 -12.5t-11.5 -20t-9.5 -20.5t-5 -14q-4 -19 -10 -56.5t-13.5 -85t-15 -100t-14 -100t-12 -85t-6.5 -56.5q-22 -42 -70 -42v592l-35 35 q-59 -13 -104 -19.5t-86.5 -10.5t-84 -5t-95.5 -1h-24.5t-37 0.5t-36.5 0.5h-24q-30 9 -34.5 28t-4.5 41z" />
<glyph unicode="&#xbd;" horiz-adv-x="3209" d="M244 -418l1038 2323q16 35 51 55.5t72 20.5v-199l-918 -2077q0 -2 -25.5 -34.5t-62 -70.5t-78.5 -68.5t-77 -30.5v81zM317 656v51v52t1 66.5t1 59.5v31q2 26 8 63t11.5 77t13.5 79.5t15 71.5t12.5 52t7.5 21l67 34l68 -34v-829q0 -19 -38.5 -27.5t-66.5 -8.5 q-34 0 -52 10.5t-27 26.5t-13 34t-6 32v24t-1 53t-1 61zM630 54q0 48 20 77t51 50t66.5 38.5t67.5 43.5q74 61 113.5 126t57 133.5t20 141.5t2.5 149q-46 0 -83 -23t-63 -57t-40.5 -75t-14.5 -75q-36 0 -64.5 19.5t-28.5 52.5q0 41 26.5 86.5t69 83.5t94 62.5t100.5 24.5 q45 0 75 -14.5t47.5 -38t26 -53t8.5 -60.5q0 -48 -16.5 -92.5t-39.5 -86.5t-50.5 -83.5t-51 -82.5t-39 -82t-15.5 -84q0 -3 0.5 -14t2.5 -14q32 -36 57 -58.5t50.5 -35t55 -17.5t70.5 -5q31 0 57.5 2.5t50.5 9t48 18t53 30.5q1 -3 3 -14t2 -14q0 -27 -21.5 -52.5t-52 -45.5 t-67 -31.5t-67.5 -11.5q-37 0 -67 11t-55.5 27t-49 34t-47 34t-50 26.5t-58.5 10.5q-2 0 -9 -1q-3 -1 -6 -1l-170 -140q-2 -1 -8 -2t-8 -1q-16 0 -26 7.5t-16 19t-8.5 24t-2.5 23.5z" />
<glyph unicode="&#xbe;" horiz-adv-x="2639" d="M57 774h13t20.5 1t20 1h14.5q49 0 90 -12t80 -28.5t77 -36.5t76 -36.5t79.5 -28t89.5 -11.5q4 0 13.5 1t10.5 1q8 1 27 5t40.5 8.5t41 9t27.5 6.5q0 7 1 26.5t2.5 41t2 40.5t0.5 27q0 82 -23.5 136.5t-61.5 89t-88 51.5t-101.5 25t-101 10t-87.5 5.5t-61.5 12t-23.5 29.5 q0 2 0.5 7.5t0.5 7.5q71 14 142 40.5t127.5 62.5t91 80t34.5 94q-69 0 -123.5 5t-96 0.5t-74 -26.5t-55.5 -77q-12 6 -28 17t-30 24.5t-22.5 27t-8.5 21.5q0 29 34.5 56t83.5 48.5t102 33.5t92 12q67 0 119 -4t87 -19t53 -41t18 -70q0 -42 -13 -75t-37.5 -61.5t-59 -57 t-76.5 -61.5q94 -44 155.5 -83.5t97.5 -85t51 -102t15 -135.5q0 -40 -4 -84.5t-27 -82t-69 -62t-127 -24.5q-80 0 -173.5 24t-181.5 60t-162 78t-114 78zM518 -97l1038 2323q16 35 51 55.5t72 20.5v-199l-918 -2077q0 -2 -25.5 -34.5t-62 -70.5t-78.5 -68.5t-77 -30.5v81z M800 556q0 7 2 20.5t2 14.5l332 806q8 20 22 28t32 8q25 0 41.5 -15.5t16.5 -38.5q0 -2 -1 -9t-1 -8l-295 -700v-67q18 0 60.5 1.5t94.5 4.5t107.5 8.5t102.5 13t78.5 17t35.5 22.5l74 245h74v-245q0 -1 12 -6t30 -11t36.5 -11t30.5 -8q15 -2 52 -7t77.5 -11t77 -11t51.5 -6 v-64q-43 0 -92 -4t-97.5 -10t-94 -13t-83.5 -15q-4 -3 -10 -12.5t-12 -20.5t-10 -21t-6 -14q-3 -19 -9.5 -57t-14.5 -87t-16 -102t-14.5 -101.5t-12 -86.5t-7.5 -57q-23 -44 -73 -43v602l-36 36q-63 -13 -110 -20t-90.5 -10.5t-87.5 -5t-100 -1.5h-25.5t-39 0.5t-38.5 0.5 h-25q-31 10 -36 29t-5 42z" />
<glyph unicode="&#xbf;" horiz-adv-x="1183" d="M35 233q0 -105 49 -183.5t134 -129.5t194.5 -76.5t232.5 -25.5q241 0 368.5 80.5t127.5 273.5q0 101 -24.5 177.5t-76 141.5t-132.5 124.5t-193 124.5q-7 3 -38.5 10t-68 15.5t-68 15.5t-36.5 13q-23 23 -27 59.5t0.5 77.5t8 85t-3 84t-33.5 72.5t-86 50.5 q-40 -27 -57.5 -69.5t-22 -88.5t-1 -89t3.5 -76q0 -12 1 -43t2 -64.5t2 -63.5t1 -44q38 -58 100.5 -89t133 -52t140.5 -40.5t127.5 -54t93.5 -93t36 -156.5q0 -43 -15 -82.5t-47 -69t-77 -47.5t-105 -18q-85 0 -144 19t-108.5 45.5t-90.5 60t-85 60.5t-95.5 46t-120.5 19z M433 1600q9 0 35.5 -2.5t35.5 -2.5q54 0 98.5 19t44.5 67q0 31 -22 50t-55.5 29.5t-69.5 14t-67 3.5v-178z" />
<glyph unicode="&#xc0;" horiz-adv-x="1527" d="M29 92q0 4 1 15.5t1 15.5q10 49 33.5 154.5t53 238.5t63.5 278.5t63.5 278.5t54.5 237.5t37 155.5q14 59 38.5 134t64.5 141.5t96.5 111.5t136.5 45q25 0 52.5 -18t56 -48t55 -66.5t49 -70.5t39 -62.5t24.5 -43.5q20 -43 64.5 -133t98.5 -203.5t114.5 -240.5t114 -242 t95.5 -206t62 -136q0 -4 2 -15.5t2 -15.5q0 -23 -5 -50.5t-15.5 -51t-27.5 -38.5t-44 -15q-55 0 -87 36.5t-55.5 92t-44 120t-53 120t-83 92t-130.5 36.5q-176 0 -296.5 -31.5t-200.5 -84t-126 -119t-70.5 -136t-35 -136t-21.5 -119t-27.5 -84t-53.5 -31.5q-39 0 -67.5 26.5 t-28.5 67.5zM397 856h31h31q20 4 63 12.5t97.5 20.5t114 25.5t113.5 25.5t98 22.5t65 16.5l-308 610q0 4 -11 7t-15 3q-25 0 -40 -14t-25.5 -34.5t-16.5 -43t-12 -41.5q-8 -23 -22.5 -69.5t-33 -107t-39 -127t-38 -127t-32 -108.5t-20.5 -71zM410 2550q0 39 27.5 66.5 t68.5 27.5q45 0 103.5 -51t111.5 -121t90 -142.5t37 -115.5q0 -8 -2 -31.5t-4 -30.5q-59 14 -128 65.5t-129.5 112t-107.5 116t-63 73.5q0 2 -2 14.5t-2 16.5z" />
<glyph unicode="&#xc1;" horiz-adv-x="1619" d="M59 92q0 4 1 15.5t1 15.5q57 240 92 454t89.5 404t152 357t279.5 313h10q4 0 8 1t8 1q45 0 97.5 -28t101.5 -66.5t87 -80.5t54 -71l488 -979q2 -2 3 -12t2 -23.5t1 -28v-22.5v-43t-5 -48.5t-18.5 -42t-42.5 -24.5q-27 16 -52 58.5t-50 97.5t-47.5 114.5t-43 108.5 t-39.5 81t-38 32q-6 0 -19.5 -2t-17.5 -2q-25 -4 -78 -13.5t-118.5 -21.5t-139 -25.5t-139 -26t-119 -21.5t-78.5 -13q-53 -27 -82.5 -79t-49 -113.5t-33 -125t-33 -115.5t-51 -86t-86.5 -34q-41 0 -68 26.5t-27 67.5zM305 1774q14 27 44 79t70 115.5t88 131t100 121.5 t106.5 89t105.5 35q0 -74 -43 -174t-109.5 -190.5t-146.5 -154t-153 -63.5q-6 0 -30 3t-32 8zM479 776q72 0 152 2t160.5 9.5t159.5 23.5t149 45q-12 25 -46 86.5t-73 130t-75 129t-50 82.5q-14 20 -29.5 43t-34 42.5t-41 31.5t-49.5 12q-4 0 -15 -3t-13 -3 q-92 -141 -143.5 -302t-51.5 -329z" />
<glyph unicode="&#xc2;" d="M67 1794q0 74 19.5 164t55.5 183t88 181t118 156t144.5 110t166.5 42q76 0 143.5 -53.5t125 -134.5t102.5 -180t76.5 -191.5t49 -167t17.5 -105.5q0 -23 -5 -50.5t-15 -52t-28.5 -41t-45.5 -16.5q-4 0 -16.5 2t-14.5 5q-10 27 -33.5 80t-54 119.5t-63.5 139t-63.5 139 t-55.5 118t-37 75.5q-25 49 -51.5 58.5t-73.5 9.5q-84 0 -130 -50t-73.5 -126t-44 -165t-39 -165t-60.5 -126t-107 -50q-41 0 -68 26.5t-27 65.5zM92 184l184 1162q10 63 33 119.5t57.5 99.5t82 67.5t108.5 24.5q74 0 141.5 -52.5t126 -139.5t109.5 -202.5t92 -242.5 t72.5 -257t53.5 -247t33 -213t11 -153q0 -20 1 -44t-4 -45.5t-19.5 -38t-43.5 -22.5l-59 61l-184 611q-10 0 -19 2q-8 0 -16 1t-14 1q-57 0 -111.5 -13.5t-108 -27.5t-108.5 -23.5t-113 0.5q-6 -39 -19 -118.5t-41 -165.5t-72 -161t-111 -106zM454 1044.5q3 -75.5 3 -126.5 v-23.5t1 -38t1 -38v-23.5q16 2 60 9t92 16t92.5 19.5t60.5 16.5q6 2 17.5 10t20.5 18.5t16 19.5t7 14q0 51 -21.5 123.5t-56 145.5t-78.5 133t-87 87q-59 -20 -87 -79.5t-36 -133.5t-5 -149.5z" />
<glyph unicode="&#xc3;" d="M-35 1642q1 68 23.5 130.5t60 114t84 93t97.5 70.5t102 44.5t95 15.5q69 0 120.5 -35.5t93.5 -87.5t77.5 -114t73 -114t80.5 -87t100 -35q56 0 105.5 23.5t95 62.5t85 90.5t74.5 109.5q29 -12 32.5 -37.5t3.5 -54.5q0 -68 -22.5 -122t-59 -96t-84 -72t-97.5 -49 t-98 -28.5t-87 -9.5q-58 0 -99.5 38.5t-74.5 96t-62 124.5t-64.5 125t-81.5 96t-111 38q-55 5 -95.5 -17.5t-72 -60t-59.5 -82.5t-57 -84t-63.5 -64t-80.5 -22q-2 -2 -8 -3.5t-9 -1.5q-2 0 -9 1.5t-8 3.5zM92 184l184 1162q10 63 33 119.5t57.5 99.5t82 67.5t108.5 24.5 q74 0 141.5 -52.5t126 -139.5t109.5 -202.5t92 -242.5t72.5 -257t53.5 -247t33 -213t11 -153q0 -20 1 -44t-4 -45.5t-19.5 -38t-43.5 -22.5l-59 61l-184 611q-10 0 -19 2q-8 0 -16 1t-14 1q-57 0 -111.5 -13.5t-108 -27.5t-108.5 -23.5t-113 0.5q-6 -39 -19 -118.5 t-41 -165.5t-72 -161t-111 -106zM454 1044.5q3 -75.5 3 -126.5v-23.5t1 -38t1 -38v-23.5q16 2 60 9t92 16t92.5 19.5t60.5 16.5q6 2 17.5 10t20.5 18.5t16 19.5t7 14q0 51 -21.5 123.5t-56 145.5t-78.5 133t-87 87q-59 -20 -87 -79.5t-36 -133.5t-5 -149.5z" />
<glyph unicode="&#xc4;" horiz-adv-x="1558" d="M61 25v280q0 6 16.5 68.5t42 160t59.5 217t68 239.5t65.5 229.5t54.5 187.5q14 49 39.5 94t60.5 81t80 56.5t98 20.5q57 0 129 -53.5t147.5 -143.5t152.5 -207.5t147.5 -247.5t131 -263.5t102.5 -252t62.5 -215t10.5 -153.5q-2 -12 -17.5 -31.5t-34 -39t-38 -35 t-31.5 -17.5q-31 49 -54.5 123t-48 154.5t-52 162.5t-65.5 146.5t-88 105.5t-120 41q-201 0 -329 -30.5t-205.5 -80t-114.5 -114t-54.5 -130t-23.5 -130t-22.5 -113.5t-53.5 -79.5t-115 -30.5zM268 2107q45 0 84 -7t68 -24.5t45 -48t16 -79.5q-45 0 -84 7t-67.5 24.5t-45 48 t-16.5 79.5zM428 918h428q39 0 51.5 31.5t12.5 60.5q0 47 -28 109.5t-67 127t-80.5 123.5t-70.5 96q-53 -35 -94 -111.5t-71 -160.5t-49.5 -162t-31.5 -114zM770 2060q0 45 35 67.5t90 22.5q37 0 50 -33.5t13 -58.5q0 -39 -27.5 -66.5t-66.5 -27.5q-41 0 -67.5 28.5 t-26.5 67.5z" />
<glyph unicode="&#xc5;" d="M92 184l184 1162q10 63 33 119.5t57.5 99.5t82 67.5t108.5 24.5q74 0 141.5 -52.5t126 -139.5t109.5 -202.5t92 -242.5t72.5 -257t53.5 -247t33 -213t11 -153q0 -20 1 -44t-4 -45.5t-19.5 -38t-43.5 -22.5l-59 61l-184 611q-10 0 -19 2q-8 0 -16 1t-14 1 q-57 0 -111.5 -13.5t-108 -27.5t-108.5 -23.5t-113 0.5q-6 -39 -19 -118.5t-41 -165.5t-72 -161t-111 -106zM291 1932q0 90 35.5 167.5t95 134t138.5 89t163 32.5q66 0 117 -25.5t85.5 -68.5t53 -100t18.5 -119q0 -74 -38 -151.5t-97 -142t-133 -105.5t-146 -41 q-59 0 -112 29.5t-93 76.5t-63.5 106t-23.5 118zM407 1925q0 -37 6.5 -77.5t23.5 -74.5t48 -55.5t80 -21.5t106.5 29.5t106.5 76t84 101.5t41 106q4 31 -2 74t-22.5 83t-45 67.5t-67.5 27.5q-16 0 -25.5 -6t-19.5 -26q-8 29 -34 31.5t-44 2.5q-63 0 -107.5 -33.5t-73 -85 t-42 -110t-13.5 -109.5zM454 1044.5q3 -75.5 3 -126.5v-23.5t1 -38t1 -38v-23.5q16 2 60 9t92 16t92.5 19.5t60.5 16.5q6 2 17.5 10t20.5 18.5t16 19.5t7 14q0 51 -21.5 123.5t-56 145.5t-78.5 133t-87 87q-59 -20 -87 -79.5t-36 -133.5t-5 -149.5z" />
<glyph unicode="&#xc6;" horiz-adv-x="2199" d="M92 184l184 1162q10 63 33 119.5t57.5 99.5t82 67.5t108.5 24.5q74 0 141.5 -52.5t126 -139.5t109.5 -202.5t92 -242.5t72.5 -257t53.5 -247t33 -213t11 -153q0 -20 1 -44t-4 -45.5t-19.5 -38t-43.5 -22.5l-59 61l-184 611q-10 0 -19 2q-8 0 -16 1t-14 1 q-57 0 -111.5 -13.5t-108 -27.5t-108.5 -23.5t-113 0.5q-6 -39 -19 -118.5t-41 -165.5t-72 -161t-111 -106zM454 1044.5q3 -75.5 3 -126.5v-23.5t1 -38t1 -38v-23.5q16 2 60 9t92 16t92.5 19.5t60.5 16.5q6 2 17.5 10t20.5 18.5t16 19.5t7 14q0 51 -21.5 123.5t-56 145.5 t-78.5 133t-87 87q-59 -20 -87 -79.5t-36 -133.5t-5 -149.5zM1008 818l123 123q-10 102 -20.5 191t-10.5 170t19.5 156.5t72.5 153.5q4 6 13.5 17.5t18.5 20.5t17 16.5t10 7.5h674q4 0 20.5 -14.5t36 -34t38 -40t26.5 -34.5q4 -6 11 -17.5t7 -19.5q-31 0 -111.5 -3 t-171.5 -7t-172 -8.5t-112 -6.5q-14 0 -34.5 -8t-40 -17t-34 -18.5t-14.5 -15.5v-518q35 0 95.5 16.5t125 25.5t122 -4.5t85.5 -70.5q0 -6 2 -12q0 -4 1 -9.5t1 -9.5t-2 -15t-2 -15q-20 -4 -72.5 -12.5t-110.5 -17.5t-110.5 -18.5t-72.5 -13.5q-8 0 -30.5 2t-31.5 2v-493 q0 -31 23.5 -45.5t54.5 -18.5t58.5 -2t37.5 2q68 0 133.5 10.5t131 23.5t131 23.5t133.5 10.5q6 0 19.5 -1t27.5 -1t27.5 -1t17.5 -1q-45 -76 -131 -123t-187.5 -75t-204 -38t-180.5 -10q-59 0 -106 1t-92 7t-92.5 18t-106.5 37q-4 2 -5 14.5t-1 16.5q0 45 42 64.5t87 27.5 l-61 549z" />
<glyph unicode="&#xc7;" horiz-adv-x="2048" d="M156 1145q0 131 27.5 261t79.5 249t129 221t175.5 177t217 118t255.5 43q76 0 161 -3t155.5 -25.5t118 -76t47.5 -151.5q-59 0 -113.5 11t-109 24.5t-110.5 25t-118 11.5q-190 0 -320 -83t-209 -214t-113 -294t-34 -325q0 -143 34 -287.5t107.5 -259t189.5 -187.5 t282 -73q100 0 201.5 43t199.5 111.5t190.5 156t174 176.5t152.5 172t126 142h62q-57 -106 -123 -216t-141.5 -213.5t-161.5 -196.5t-185 -169q-47 -35 -106.5 -61.5t-123 -50t-125 -48t-109.5 -57.5t-77.5 -76t-29.5 -104q0 -10 2 -31.5t5 -46t7 -46t6 -30.5 q63 -4 147.5 -9t173.5 -20.5t175 -43t153.5 -74.5t109.5 -117.5t42 -169.5q0 -57 -32.5 -112.5t-86 -103.5t-121 -90t-138 -71.5t-137.5 -46t-118 -16.5q0 59 29 99t72 72t94 59.5t94 60.5t71.5 75t28.5 105v45t-5 48.5t-19.5 42t-42.5 24.5q-12 0 -42 1t-63.5 2t-65.5 1 h-44q-74 0 -132.5 -13.5t-114.5 -29t-113.5 -27.5t-127.5 -12v688q-139 100 -246.5 206.5t-183.5 229.5t-114.5 265.5t-38.5 314.5z" />
<glyph unicode="&#xc8;" horiz-adv-x="1497" d="M58 840.5q1 95.5 1 150.5q0 86 10.5 193.5t29 221.5t46 230.5t61.5 222t75 193.5t86 150q18 0 61 1t92 2t92 2t62 1q14 0 56 2t97.5 1t114.5 -8.5t108.5 -24.5t82 -49t32.5 -81q0 -39 -27.5 -66.5t-66.5 -27.5q-43 0 -80 19.5t-72.5 44t-71.5 44t-79 19.5q-35 0 -76 -6.5 t-81 -21.5t-72.5 -38.5t-49.5 -58.5q-8 -31 -25.5 -109t-36.5 -166t-36.5 -165.5t-23.5 -108.5q-2 -8 2 -31.5t4 -29.5h483v-62q0 -16 -36 -37.5t-90 -45t-119.5 -47.5t-127 -46.5t-110.5 -39.5t-68 -30q0 -16 -1 -59t-2 -92t-2 -92t-1 -62q0 -55 -2 -119.5t3 -129 t19.5 -126t47.5 -114.5q8 0 29.5 -2t46 -3t46 -2t31.5 -1q123 0 236.5 39.5t224.5 88t223.5 88.5t233.5 40q4 0 15 -1.5t15 -1.5q-29 -92 -93 -164.5t-151 -127t-191.5 -92t-211 -61.5t-208 -34t-185.5 -10q-100 0 -166.5 58.5t-107.5 149.5t-61.5 204.5t-28 223t-6.5 205z M430 2892q82 0 174 -28t171 -79t131 -124.5t52 -163.5q-61 0 -151 33.5t-174 89t-143.5 127t-59.5 145.5z" />
<glyph unicode="&#xc9;" horiz-adv-x="1466" d="M29 391q0 27 5 114t13 211t19.5 272.5t25.5 300t29.5 293.5t31 253t32 177.5t30.5 66.5h549q6 0 29.5 -21.5t53.5 -50.5t57.5 -60.5t43.5 -52.5q2 -2 4 -14t2 -16t-2 -15.5t-4 -13.5q-47 27 -91 40t-88 19.5t-90 6.5h-97q-10 0 -37 -1.5t-55.5 -2.5t-55 -2t-37.5 -1 q-8 -59 -18 -140t-20.5 -170t-17.5 -179t-7 -168q0 -51 37 -83t94 -49.5t127 -23.5t133 -7t114.5 2t71.5 3q0 -8 -9 -20t-15 -21q-4 -4 -19.5 -12t-35 -17.5t-39 -18.5t-29.5 -11q-18 -6 -56 -16.5t-87.5 -22.5t-101.5 -25.5t-101 -25.5t-87 -20.5t-57 -12.5v-590 q150 0 297.5 16.5t294 37t294 37t296.5 16.5q0 -31 -15.5 -59.5t-37 -53t-46 -44t-42.5 -32.5q-35 -8 -106.5 -22.5t-162 -32.5t-190.5 -38.5t-190.5 -38t-162 -32t-106.5 -20.5h-13t-26.5 -1t-31 -1h-23.5q-92 0 -147.5 31.5t-83 85t-35.5 125t-8 151.5zM336 2288 q2 61 30.5 137t75.5 153.5t107.5 151.5t129.5 131t139 92t138 35q0 -59 -15 -111.5t-54 -99.5q-29 -37 -71 -87t-89 -105.5t-93 -107.5t-84 -95t-63.5 -68.5t-27.5 -25.5h-123z" />
<glyph unicode="&#xca;" horiz-adv-x="1345" d="M31 795l123 123q-10 102 -20.5 191t-10.5 170t19.5 156.5t72.5 153.5q4 6 13.5 17.5t18.5 20.5t17 16.5t10 7.5h674q4 0 20.5 -14.5t36 -34t38 -40t26.5 -34.5q4 -6 11 -17.5t7 -19.5q-31 0 -111.5 -3t-171.5 -7t-172 -8.5t-112 -6.5q-14 0 -34.5 -8t-40 -17t-34 -18.5 t-14.5 -15.5v-518q35 0 95.5 16.5t125 25.5t122 -4.5t85.5 -70.5q0 -6 2 -12q0 -4 1 -9.5t1 -9.5t-2 -15t-2 -15q-20 -4 -72.5 -12.5t-110.5 -17.5t-110.5 -18.5t-72.5 -13.5q-8 0 -30.5 2t-31.5 2v-493q0 -31 23.5 -45.5t54.5 -18.5t58.5 -2t37.5 2q68 0 133.5 10.5 t131 23.5t131 23.5t133.5 10.5q6 0 19.5 -1t27.5 -1t27.5 -1t17.5 -1q-45 -76 -131 -123t-187.5 -75t-204 -38t-180.5 -10q-59 0 -106 1t-92 7t-92.5 18t-106.5 37q-4 2 -5 14.5t-1 16.5q0 45 42 64.5t87 27.5l-61 549zM118 1982q0 74 19.5 164t55.5 183t88 181t118 156 t144.5 110t166.5 42q76 0 143.5 -53.5t125 -134.5t102.5 -180t76.5 -191.5t49 -167t17.5 -105.5q0 -23 -5 -50.5t-15 -52t-28.5 -41t-45.5 -16.5q-4 0 -16.5 2t-14.5 5q-10 27 -33.5 80t-54 119.5t-63.5 139t-63.5 139t-55.5 118t-37 75.5q-25 49 -51.5 58.5t-73.5 9.5 q-84 0 -130 -50t-73.5 -126t-44 -165t-39 -165t-60.5 -126t-107 -50q-41 0 -68 26.5t-27 65.5z" />
<glyph unicode="&#xcb;" d="M31 1038q0 14 7 70.5t17.5 135.5t24.5 172t27.5 183.5t25.5 168t21 126.5q16 92 41.5 142.5t70.5 74t114 26.5t171 3q53 0 112.5 -8t113.5 -29.5t99.5 -57.5t71.5 -89l-61 -62h-490q-4 0 -13 -20.5t-19.5 -50t-18.5 -60t-10 -51.5q-2 -20 -1 -63t4 -97.5t6 -115t6 -114.5 t5 -97t2 -64h711q-25 -55 -71 -87t-106.5 -49t-130 -24.5t-138 -12.5t-131 -15t-111.5 -32.5t-78 -63.5t-29 -109v-35q2 -18 7.5 -56t11.5 -87t13 -101.5t12.5 -101.5t10.5 -87t7 -56q6 -31 27.5 -45.5t47 -18.5t52 -2t45.5 2q96 0 190.5 10.5t189.5 23.5t189 23.5t191 10.5 q0 -84 -38 -135.5t-98.5 -80t-136 -37.5t-151.5 -9t-145.5 4t-116.5 4q-20 0 -72.5 1t-111 2t-110.5 2t-73 1q-66 27 -92.5 57.5t-32.5 68.5t-1 82t3 97q-2 18 -7 74.5t-12 132.5t-14.5 161t-13.5 159.5t-10 131t-4 74.5zM397 2750q8 27 31 43.5t50.5 24.5t55 10t48.5 2 v-159q-20 0 -48 2t-55.5 10t-50.5 23t-31 44zM932 2648q23 0 52.5 -1t59 -9t53 -23.5t33.5 -46.5q-18 -37 -38.5 -51t-51.5 -14q-29 0 -49 13t-33.5 34.5t-19.5 47t-6 50.5z" />
<glyph unicode="&#xcc;" horiz-adv-x="1712" d="M92 61v93h610q4 0 13.5 33.5t22 89t25.5 125t25.5 141t21.5 137t15 115.5q0 8 4.5 61t10.5 135t12 181.5t12 198.5t12.5 189.5t10.5 151.5v24.5t-2 30.5q-2 18 -2 37h-486q-2 0 -10 10.5t-18.5 24.5t-19.5 29.5t-13 25.5q0 4 -1 15.5t-1 15.5q0 53 36 74.5t79 21.5 q37 0 115.5 4.5t178 4.5t208 -7.5t205.5 -28t173 -58.5t109 -101q4 -8 9 -31.5t5 -29.5h-322q-12 0 -25 -54.5t-26.5 -145.5t-28 -212t-27.5 -254t-23.5 -269.5t-18.5 -260t-13 -227t-5 -167.5h657q-31 -59 -98.5 -97t-155.5 -59.5t-189.5 -29.5t-197.5 -9t-179 2t-134 3 q-31 0 -85.5 1t-106.5 2t-93 2t-45 1q-29 2 -70 10t-80 18.5t-66.5 19.5t-27.5 13zM612 2709q0 6 7 16.5t16.5 19.5t20.5 16t17 7t23.5 -7t38 -16t38 -19.5t23.5 -16.5q14 -16 55.5 -53t94.5 -85t111.5 -102.5t109.5 -102.5t90 -86t51 -54h-184q-4 0 -32.5 20.5t-71.5 52 t-95.5 72.5t-101.5 81t-89 76t-61 58q-6 8 -17 25.5t-20.5 37t-16.5 37t-7 23.5z" />
<glyph unicode="&#xcd;" horiz-adv-x="1712" d="M92 61v93h610q4 0 13.5 33.5t22 89t25.5 125t25.5 141t21.5 137t15 115.5q0 8 4.5 61t10.5 135t12 181.5t12 198.5t12.5 189.5t10.5 151.5v24.5t-2 30.5q-2 18 -2 37h-486q-2 0 -10 10.5t-18.5 24.5t-19.5 29.5t-13 25.5q0 4 -1 15.5t-1 15.5q0 53 36 74.5t79 21.5 q37 0 115.5 4.5t178 4.5t208 -7.5t205.5 -28t173 -58.5t109 -101q4 -8 9 -31.5t5 -29.5h-322q-12 0 -25 -54.5t-26.5 -145.5t-28 -212t-27.5 -254t-23.5 -269.5t-18.5 -260t-13 -227t-5 -167.5h657q-31 -59 -98.5 -97t-155.5 -59.5t-189.5 -29.5t-197.5 -9t-179 2t-134 3 q-31 0 -85.5 1t-106.5 2t-93 2t-45 1q-29 2 -70 10t-80 18.5t-66.5 19.5t-27.5 13zM647 2188v61q0 2 19.5 30.5t51 71.5t71.5 96.5t80 106.5t78 101.5t66 80.5q12 14 39 42t55.5 57.5t54.5 54.5t36 31h10q4 0 9 1t9 1q33 0 53.5 -13.5t39.5 -50.5q-16 -23 -59.5 -75 t-91.5 -110t-92 -110.5t-63 -70.5q-31 -35 -81 -87.5t-99 -100.5t-86 -82.5t-39 -34.5h-61z" />
<glyph unicode="&#xce;" horiz-adv-x="1712" d="M92 61v93h610q4 0 13.5 33.5t22 89t25.5 125t25.5 141t21.5 137t15 115.5q0 8 4.5 61t10.5 135t12 181.5t12 198.5t12.5 189.5t10.5 151.5v24.5t-2 30.5q-2 18 -2 37h-486q-2 0 -10 10.5t-18.5 24.5t-19.5 29.5t-13 25.5q0 4 -1 15.5t-1 15.5q0 53 36 74.5t79 21.5 q37 0 115.5 4.5t178 4.5t208 -7.5t205.5 -28t173 -58.5t109 -101q4 -8 9 -31.5t5 -29.5h-322q-12 0 -25 -54.5t-26.5 -145.5t-28 -212t-27.5 -254t-23.5 -269.5t-18.5 -260t-13 -227t-5 -167.5h657q-31 -59 -98.5 -97t-155.5 -59.5t-189.5 -29.5t-197.5 -9t-179 2t-134 3 q-31 0 -85.5 1t-106.5 2t-93 2t-45 1q-29 2 -70 10t-80 18.5t-66.5 19.5t-27.5 13zM354 2275q0 74 19.5 164t55.5 183t88 181t118 156t144.5 110t166.5 42q76 0 143.5 -53.5t125 -134.5t102.5 -180t76.5 -191.5t49 -167t17.5 -105.5q0 -23 -5 -50.5t-15 -52t-28.5 -41 t-45.5 -16.5q-4 0 -16.5 2t-14.5 5q-10 27 -33.5 80t-54 119.5t-63.5 139t-63.5 139t-55.5 118t-37 75.5q-25 49 -51.5 58.5t-73.5 9.5q-84 0 -130 -50t-73.5 -126t-44 -165t-39 -165t-60.5 -126t-107 -50q-41 0 -68 26.5t-27 65.5z" />
<glyph unicode="&#xcf;" horiz-adv-x="1712" d="M92 61v93h610q4 0 13.5 33.5t22 89t25.5 125t25.5 141t21.5 137t15 115.5q0 8 4.5 61t10.5 135t12 181.5t12 198.5t12.5 189.5t10.5 151.5v24.5t-2 30.5q-2 18 -2 37h-486q-2 0 -10 10.5t-18.5 24.5t-19.5 29.5t-13 25.5q0 4 -1 15.5t-1 15.5q0 53 36 74.5t79 21.5 q37 0 115.5 4.5t178 4.5t208 -7.5t205.5 -28t173 -58.5t109 -101q4 -8 9 -31.5t5 -29.5h-322q-12 0 -25 -54.5t-26.5 -145.5t-28 -212t-27.5 -254t-23.5 -269.5t-18.5 -260t-13 -227t-5 -167.5h657q-31 -59 -98.5 -97t-155.5 -59.5t-189.5 -29.5t-197.5 -9t-179 2t-134 3 q-31 0 -85.5 1t-106.5 2t-93 2t-45 1q-29 2 -70 10t-80 18.5t-66.5 19.5t-27.5 13zM356 2230q0 25 6.5 61.5t25 69.5t50 56.5t84.5 23.5q35 0 66 -15.5t53.5 -39t35.5 -49t13 -46.5q0 -27 -14 -54.5t-40 -49t-60.5 -34.5t-73.5 -13q-55 0 -100.5 22.5t-45.5 67.5zM1067 2230 q0 25 6 61.5t24.5 69.5t50.5 56.5t85 23.5q35 0 65.5 -15.5t53 -39t36 -49t13.5 -46.5q0 -27 -14.5 -54.5t-40 -49t-60.5 -34.5t-73 -13q-55 0 -100.5 22.5t-45.5 67.5z" />
<glyph unicode="&#xd0;" horiz-adv-x="1726" d="M41 1065v168q14 0 71.5 5t137.5 9t173 6t180 -4t157.5 -22.5t105.5 -46.5q-39 -70 -57 -100.5t-41 -38t-59.5 2t-115.5 20.5t-211 15t-341 -14zM111 248q0 45 16 88t42 82t59.5 72.5t68.5 60.5q-10 154 -3 298t19.5 285.5t24.5 284t12 293.5h-237q25 80 63.5 119 t87.5 54.5t105.5 15.5h115.5q203 0 371 -58.5t290 -171t189.5 -274.5t67.5 -371q0 -86 -20.5 -165t-45 -155.5t-45 -152.5t-20.5 -158q0 -47 29.5 -64.5t95.5 -25.5q18 -2 56 -3t87 -1h101.5h101.5t87 1t56 3q-27 -53 -80 -78.5t-114.5 -36t-124 -10.5h-109.5q-18 0 -48 1 t-58.5 1t-51 1t-26.5 1q-6 0 -34 10.5t-58.5 21.5t-57 20.5t-32.5 7.5q-86 -14 -167 -54t-166 -83.5t-176 -76t-196 -32.5q-123 0 -199.5 60.5t-76.5 189.5zM297 244q6 -31 28.5 -45.5t50 -18.5t55.5 -2t46 2q45 0 122 8.5t150.5 31t128 63.5t54.5 106q-25 0 -75 1t-113.5 0 t-133 -8t-132 -23.5t-110.5 -44t-71 -70.5zM541 672q0 -4 14 -12.5t33.5 -17.5t40 -18.5t35.5 -11.5q8 -2 55 -10t105.5 -18.5t115.5 -19.5t90 -13h31h31q55 57 82.5 117.5t39 126t10.5 134t-1 140.5q31 131 -14.5 242.5t-135.5 195.5t-208.5 137.5t-235.5 69.5 q-25 0 -56.5 -11t-31.5 -52v-979z" />
<glyph unicode="&#xd1;" horiz-adv-x="2140" d="M31 305l123 1346q2 0 14 1t16 1q131 0 268.5 -82t273.5 -212t268 -290t254 -316.5t231.5 -292.5t201.5 -216q53 180 92 386t69 415.5t49.5 412.5t33.5 377q4 0 15.5 1t15.5 1q33 0 53.5 -13.5t38.5 -49.5q2 -18 3 -61.5t2 -92.5t1 -92v-62q0 -49 -2 -136t-7 -195.5 t-15.5 -230.5t-26.5 -241.5t-38.5 -230t-54.5 -193.5t-74 -133.5t-93 -50.5q-115 0 -243 82t-259 210t-260 284.5t-248 307.5t-220 276.5t-177 191.5q-4 -18 -13.5 -61t-19.5 -92.5t-18.5 -92.5t-10.5 -61q-4 -35 -9 -106.5t-10 -162t-12 -189.5t-12.5 -189.5t-9.5 -162 t-6 -106.5q-33 -68 -96 -67q-6 0 -16.5 1t-10.5 5q-8 12 -19.5 37.5t-20.5 55.5t-15 54.5t-6 34.5zM71 1684q1 73 29.5 139t75.5 121t106 99t123.5 74.5t128.5 47.5t119 17q88 0 153 -38t118 -93t98 -121t92 -121.5t101 -92.5t126 -37q71 0 134 25t120 66.5t107 96t95 116.5 q36 -13 40.5 -40t4.5 -58q0 -72 -28.5 -129.5t-74.5 -102t-106 -76.5t-123 -52t-124 -30t-110 -10q-73 0 -125 40.5t-94 102t-79 132.5t-81.5 132.5t-102.5 102t-141 40.5q-69 5 -120 -19t-91 -63.5t-75 -87.5t-71.5 -89.5t-80 -68t-101.5 -23.5q-3 -2 -10.5 -3.5 t-11.5 -1.5q-3 0 -11.5 1.5t-9.5 3.5z" />
<glyph unicode="&#xd2;" horiz-adv-x="1925" d="M59 731q0 129 20.5 260t64.5 255t111 232.5t158 188.5t209.5 127t264.5 47q86 0 190.5 -25.5t210 -72.5t204.5 -113.5t176 -148.5t123 -177.5t46 -199.5q0 -123 -45 -253t-123 -253t-181.5 -233.5t-221 -192.5t-243.5 -130t-247 -48q-139 0 -268 62.5t-228.5 165 t-160 235.5t-60.5 274zM299 911q0 -78 7 -161.5t25.5 -165.5t51.5 -156t85 -129t126 -88t174 -33q94 0 196.5 42t202 114t187.5 165t155.5 195.5t106.5 207t39 196.5q0 84 -35 157.5t-93.5 136t-133 112.5t-156.5 84t-165 52.5t-154 18.5q-170 0 -288 -57.5t-191.5 -158 t-106.5 -237.5t-33 -295zM489 2384q18 35 39 51t56 16q4 0 16 -4q6 -2 12 -2l306 -305v-78q-55 0 -119 37t-122.5 88t-107.5 106.5t-80 90.5z" />
<glyph unicode="&#xd3;" horiz-adv-x="1712" d="M86 697v67q0 178 32 358.5t112.5 326.5t218 238.5t346.5 92.5q199 0 354.5 -66.5t261 -188.5t160.5 -293t55 -380q0 -94 -33.5 -193.5t-93 -193.5t-140.5 -179t-173 -148.5t-192.5 -100.5t-198.5 -37t-209 26.5t-210.5 81t-176 134.5t-107.5 186q-2 18 -3 65.5t-2 101.5 t-1 102zM272 684q0 -35 1 -73t1 -73v-49q59 -74 110.5 -123t106 -77.5t119 -39.5t154.5 -11q123 0 243.5 51t217 140t156 207t59.5 251q0 123 -47 251t-129 232.5t-194 171t-241 66.5q-117 0 -202.5 -40t-148 -106.5t-102.5 -155.5t-62.5 -186.5t-32 -197t-9.5 -189.5v-49z M571 2140q0 20 6.5 47t16.5 52.5t23.5 47t25.5 35.5q25 27 60.5 66t74.5 79t79 80t73 71.5t54.5 51t25.5 19.5h59v-182l-426 -367h-72z" />
<glyph unicode="&#xd4;" horiz-adv-x="1558" d="M61 641q0 176 71 328.5t190.5 264.5t275.5 175.5t326 63.5q131 0 232 -50.5t171 -135.5t106.5 -196.5t36.5 -234.5q0 -96 -34.5 -197.5t-95 -196.5t-141.5 -181t-172 -149.5t-189.5 -100.5t-192.5 -37q-119 0 -224.5 58.5t-185 150.5t-127 207.5t-47.5 230.5zM213 1669 q0 74 19.5 164t55.5 183t88 181t118 156t144.5 110t166.5 42q76 0 143.5 -53.5t125 -134.5t102.5 -180t76.5 -191.5t49 -167t17.5 -105.5q0 -23 -5 -50.5t-15 -52t-28.5 -41t-45.5 -16.5q-4 0 -16.5 2t-14.5 5q-10 27 -33.5 80t-54 119.5t-63.5 139t-63.5 139t-55.5 118 t-37 75.5q-25 49 -51.5 58.5t-73.5 9.5q-84 0 -130 -50t-73.5 -126t-44 -165t-39 -165t-60.5 -126t-107 -50q-41 0 -68 26.5t-27 65.5zM293 627q0 -72 12 -151t47 -145.5t96.5 -109.5t159.5 -43q66 0 140.5 27.5t146.5 74t139.5 108t120.5 130t87 139t42 138.5q6 57 -5 141 t-45 162t-89 133t-135 55q-35 0 -54.5 -12t-37.5 -51q-6 29 -25 43t-41.5 19t-47 5h-42.5q-127 0 -215 -66.5t-145.5 -166t-83 -215t-25.5 -215.5z" />
<glyph unicode="&#xd5;" horiz-adv-x="1558" d="M61 641q0 176 71 328.5t190.5 264.5t275.5 175.5t326 63.5q131 0 232 -50.5t171 -135.5t106.5 -196.5t36.5 -234.5q0 -96 -34.5 -197.5t-95 -196.5t-141.5 -181t-172 -149.5t-189.5 -100.5t-192.5 -37q-119 0 -224.5 58.5t-185 150.5t-127 207.5t-47.5 230.5zM81 1695 q2 79 25.5 151.5t63 132t89.5 107.5t104 82t108 52t101 18q74 0 128.5 -41t99 -101.5t82.5 -132t77.5 -132t85 -101.5t106.5 -41q59 0 112 27.5t101 72.5t90.5 104.5t79.5 127.5q30 -15 34 -44t4 -63q0 -78 -23.5 -141t-62.5 -111.5t-89.5 -83.5t-104 -57t-104.5 -33 t-92 -11q-62 0 -106 44.5t-79 111.5t-66 144.5t-68.5 145t-86.5 111.5t-118 44q-59 5 -101.5 -21t-76.5 -69t-63.5 -96t-60.5 -98t-67.5 -74t-84.5 -25q-3 -2 -9.5 -4t-9.5 -2q-2 0 -9 2t-9 4zM293 627q0 -72 12 -151t47 -145.5t96.5 -109.5t159.5 -43q66 0 140.5 27.5 t146.5 74t139.5 108t120.5 130t87 139t42 138.5q6 57 -5 141t-45 162t-89 133t-135 55q-35 0 -54.5 -12t-37.5 -51q-6 29 -25 43t-41.5 19t-47 5h-42.5q-127 0 -215 -66.5t-145.5 -166t-83 -215t-25.5 -215.5z" />
<glyph unicode="&#xd6;" horiz-adv-x="1835" d="M55 709q0 88 25.5 205.5t73 243.5t115 247t152.5 217t186.5 155.5t215.5 59.5q145 0 269.5 -28.5t234 -83t204.5 -134.5t181 -184q0 -18 2 -66.5t3 -101.5t2 -101t1 -69q0 -217 -74.5 -411.5t-210 -342t-324.5 -234.5t-417 -87q-152 0 -270.5 59.5t-200.5 157.5 t-125 227.5t-43 270.5zM242 707q0 -98 33.5 -192.5t94 -168.5t145.5 -120t187 -46q217 0 376 73t260.5 197.5t150.5 291.5t49 356q0 25 -1 64.5t-3 79.5t-3 69.5t-3 34.5l-121 120q-39 -76 -64.5 -99.5t-52 -22t-62.5 14.5t-93 13q0 55 -6.5 97t-28 70t-63.5 42t-111 14 q-100 0 -190.5 -41t-166 -110.5t-136 -159.5t-103.5 -189.5t-65.5 -199.5t-22.5 -188zM715 2400q135 27 180 -26.5t-21 -188.5q-49 0 -79.5 16.5t-48 46t-24.5 68.5t-7 84zM1208 2367q135 27 180.5 -26t-20.5 -189q-49 0 -80 16.5t-48 46.5t-24.5 68.5t-7.5 83.5z" />
<glyph unicode="&#xd8;" horiz-adv-x="1558" d="M61 641q0 176 71 328.5t190.5 264.5t275.5 175.5t326 63.5q131 0 232 -50.5t171 -135.5t106.5 -196.5t36.5 -234.5q0 -96 -34.5 -197.5t-95 -196.5t-141.5 -181t-172 -149.5t-189.5 -100.5t-192.5 -37q-119 0 -224.5 58.5t-185 150.5t-127 207.5t-47.5 230.5zM145 -196 l1029 1947q15 29 50 46.5t72 17.5v-167l-910 -1741q0 -1 -25.5 -28.5t-61.5 -59.5t-78 -57.5t-76 -25.5v68zM293 627q0 -72 12 -151t47 -145.5t96.5 -109.5t159.5 -43q66 0 140.5 27.5t146.5 74t139.5 108t120.5 130t87 139t42 138.5q6 57 -5 141t-45 162t-89 133t-135 55 q-35 0 -54.5 -12t-37.5 -51q-6 29 -25 43t-41.5 19t-47 5h-42.5q-127 0 -215 -66.5t-145.5 -166t-83 -215t-25.5 -215.5z" />
<glyph unicode="&#xd9;" horiz-adv-x="1955" d="M84 1072.5q-2 70.5 2 151.5t16.5 163.5t40 149.5t75.5 109t122 42q0 -102 -10.5 -204t-23.5 -203t-23.5 -203.5t-10.5 -207.5q0 -43 4.5 -105.5t16.5 -133t31.5 -141t50.5 -127t74 -91t102 -34.5q49 0 103.5 48t110.5 120.5t107.5 161.5t93.5 172t69.5 147.5t35.5 91.5 q8 31 18.5 108.5t20.5 165.5t16.5 166t3.5 109q0 14 24 37.5t38 23.5t34.5 -7t40 -16.5t34 -20.5t14.5 -17v-856q0 -6 18.5 -54.5t48 -104.5t67.5 -102t79 -46q63 0 111.5 40.5t92.5 91t91 91.5t112 41q0 -74 -35.5 -155t-93 -148.5t-130 -110.5t-148.5 -43 q-57 0 -102.5 28.5t-82 71.5t-67.5 92.5t-59.5 92.5t-56 71.5t-58.5 28.5q-4 0 -16.5 -2t-14.5 -4q-6 -6 -24.5 -34t-38 -58.5t-37 -58t-23.5 -33.5q-12 -14 -40.5 -43t-64.5 -66t-76 -77t-77 -75.5t-65.5 -64.5t-42.5 -41q-8 -2 -32 -4t-30 -2q-88 0 -154.5 55 t-114.5 144.5t-80 198t-51.5 216t-26.5 202t-7 151.5q0 41 -2 111.5zM444 2337h150q4 0 46 -41t90 -99.5t87 -125t39 -117.5q-61 0 -133 35.5t-134.5 91t-103.5 123t-41 133.5z" />
<glyph unicode="&#xda;" horiz-adv-x="1955" d="M86 864q0 27 1 74l2 94t2 85t1 44q2 55 11.5 138t18.5 162t18.5 134.5t13.5 55.5h100q0 -35 1 -106.5t3 -162t5 -190.5t5 -190.5t4 -162t4 -106.5q0 -12 5.5 -54t14.5 -96.5t25.5 -114.5t40 -110.5t55.5 -83t72 -32.5q4 0 15.5 1t15.5 1q133 162 239.5 320.5t179.5 327.5 t107.5 354.5t24.5 404.5h162q0 -135 -4 -308.5t5 -356.5t40 -361.5t102 -319.5q12 -25 24.5 -38t26 -19t30 -6h38.5q78 0 131 42t99.5 92t95.5 92t116 42q0 -84 -39.5 -175t-106.5 -166t-152 -123t-175 -48q-88 0 -140 38t-85 97.5t-51.5 131t-40 140t-52 124t-85.5 83.5 q-20 -37 -55 -96t-78 -128t-96.5 -138.5t-111 -125.5t-120 -91t-123.5 -35q-82 0 -138.5 49t-94 128t-59 176.5t-32 193.5t-13.5 181t-3 138zM434 1929q0 76 46 148.5t112.5 137t141.5 117t134 87.5q51 -16 59.5 -50t8.5 -73q0 -8 -3 -30.5t-3 -31.5q-14 -14 -69.5 -66 t-129.5 -113.5t-151.5 -116t-139.5 -70.5q-2 6 -4 29.5t-2 31.5z" />
<glyph unicode="&#xdb;" horiz-adv-x="2568" d="M59 1067v185t4.5 168t17.5 169t42 185q2 0 14.5 1t16.5 1q33 0 53 -13.5t39 -50.5q-2 -37 -3 -113.5t-1 -173v-203v-202.5t1 -173t3 -114q4 -80 28.5 -168t69.5 -160.5t111.5 -120.5t158.5 -48q135 0 243 65.5t189.5 171t138 238.5t93.5 270t52.5 264t15.5 221 q18 37 38.5 51.5t55.5 14.5q2 0 7 -1t9 -1q6 -2 12 -2q10 -8 25.5 -25.5t30 -37t25 -36t10.5 -22.5v-856q0 -53 23.5 -81t58 -40t72.5 -13t69 -1q10 0 28.5 1t37 3t32.5 4t16 4l549 428h62q-23 -78 -67 -158t-104.5 -155.5t-134 -143t-154.5 -118t-166 -79t-169 -28.5 q-80 0 -138 33t-101 86t-73 120.5t-54 137.5q-68 -78 -159 -174t-195.5 -181t-217 -143.5t-223.5 -58.5q-119 0 -202 58.5t-137 153.5t-85 213t-46 237.5t-18.5 228t-3.5 182.5zM252 2005q0 74 19.5 164t55.5 183t88 181t118 156t144.5 110t166.5 42q76 0 143.5 -53.5 t125 -134.5t102.5 -180t76.5 -191.5t49 -167t17.5 -105.5q0 -23 -5 -50.5t-15 -52t-28.5 -41t-45.5 -16.5q-4 0 -16.5 2t-14.5 5q-10 27 -33.5 80t-54 119.5t-63.5 139t-63.5 139t-55.5 118t-37 75.5q-25 49 -51.5 58.5t-73.5 9.5q-84 0 -130 -50t-73.5 -126t-44 -165 t-39 -165t-60.5 -126t-107 -50q-41 0 -68 26.5t-27 65.5z" />
<glyph unicode="&#xdc;" horiz-adv-x="2322" d="M59 883q0 178 20.5 359t43.5 347q8 29 31.5 45.5t51 23.5t56.5 9t49 2q0 -98 -10 -195.5t-22.5 -195.5t-22.5 -195.5t-10 -195.5q0 -27 2 -81t10 -119.5t24.5 -133.5t43 -123t66.5 -91t97 -36q6 0 30 1t32 1q152 117 285 266.5t227 322.5t139 364.5t21 392.5q4 0 15 1 t15 1q33 0 53.5 -13.5t39.5 -50.5q0 -33 4 -99.5t9 -151.5t12 -177t13.5 -177t12.5 -151.5t10 -99.5q2 -29 11 -76t22.5 -102t33 -112.5t45 -102.5t56.5 -74.5t70 -29.5q53 0 114.5 31.5t125 80.5t123.5 108.5t111.5 115t89.5 99.5t54 62q0 -6 1 -29.5t1 -31.5 q0 -59 -28.5 -133t-78 -149t-115 -145.5t-137 -126t-145 -88t-141.5 -32.5q-70 0 -127 43t-104.5 110.5t-84 150.5t-64.5 165t-47.5 152.5t-31.5 113.5q-33 -53 -80 -127t-104 -152.5t-123 -154.5t-136.5 -133t-144 -87t-145.5 -18q-86 14 -147.5 64.5t-102.5 122 t-64.5 156.5t-35.5 172.5t-15.5 167t-3.5 139.5zM612 2247v198q2 4 14.5 5t16.5 1q45 0 67.5 -42t22.5 -87q0 -16 -14 -30.5t-33.5 -24.5t-40 -15t-33.5 -5zM1143 2400q25 0 50.5 -6t47 -19.5t34.5 -34t13 -48.5q0 -31 -14 -51.5t-51 -38.5q-31 10 -46.5 33.5t-23.5 53 t-9 59t-1 52.5z" />
<glyph unicode="&#xdd;" horiz-adv-x="1413" d="M13 2083q18 37 38.5 51t53.5 14q80 0 146.5 -59t128 -149.5t121 -193.5t120.5 -193.5t130 -149.5t151 -59q4 0 16 1t12 5l490 733h182l-1528 -2458v197l672 1284v59q-25 27 -73 84.5t-108.5 129t-127 151.5t-126 152.5t-106.5 131t-69 87.5q-8 8 -26.5 33.5t-38 55 t-36 55.5t-22.5 38zM621 2313v61q0 2 19.5 30.5t51 71.5t71.5 96.5t80 106.5t78 101.5t66 80.5q12 14 39 42t55.5 57.5t54.5 54.5t36 31h10q4 0 9 1t9 1q33 0 53.5 -13.5t39.5 -50.5q-16 -23 -59.5 -75t-91.5 -110t-92 -110.5t-63 -70.5q-31 -35 -81 -87.5t-99 -100.5 t-86 -82.5t-39 -34.5h-61z" />
<glyph unicode="&#xdf;" horiz-adv-x="1589" d="M61 397q0 174 19.5 363.5t63.5 378t114 366.5t170 330q61 45 114.5 80t106.5 59.5t111.5 36.5t134.5 12q125 0 203 -36.5t121 -102t57 -156t14 -196.5q0 -55 1 -111.5t-4 -111t-19.5 -107.5t-44.5 -102q78 -66 136 -119t97 -110.5t58.5 -125t19.5 -161.5 q0 -158 -42 -259.5t-122 -162t-194.5 -84t-257.5 -23.5q-14 0 -49 1t-74 2t-74 2t-47 1q-4 2 -13.5 10.5t-19.5 18.5t-18.5 19.5t-10.5 13.5q-6 16 -16 60t-19.5 92.5t-17.5 92.5t-8 60q6 2 29.5 5t31.5 3q43 0 63.5 -14t34 -37t26 -48.5t40 -48t77.5 -36.5t138 -14 q25 0 74 -1t98 8t85 36.5t36 85.5v428q0 6 -27.5 22.5t-66.5 35.5t-81 37.5t-69 27.5q-37 10 -90 6t-103 3t-85 37.5t-35 108.5q0 2 27.5 18.5t70.5 44t91.5 69.5t91.5 96.5t70.5 121t27.5 148.5q0 45 -6 93t-24.5 86t-54.5 62.5t-97 24.5q-147 0 -255 -78t-182.5 -201.5 t-122 -280.5t-74 -313.5t-35.5 -298t-9 -237.5q0 -12 9 -56t19.5 -96.5t20.5 -96.5t10 -56q2 -6 3 -26.5t3 -44t3 -44t1 -26.5q-72 0 -121 46t-78.5 110.5t-42 136t-12.5 122.5z" />
<glyph unicode="&#xe0;" horiz-adv-x="1619" d="M82 397q0 102 15.5 216t60.5 209.5t123.5 157.5t207.5 62q98 0 159 -34.5t96.5 -91t52 -129t27 -148.5t21.5 -148.5t35.5 -129t69.5 -91t123 -34.5q10 0 32.5 3t24.5 5l367 307v-184q0 -16 -35 -60.5t-83 -92.5t-100 -92t-87 -61q-2 -2 -19.5 -4t-40 -4t-45 -3t-34.5 -1 q-66 0 -113 21.5t-88 47t-83 47t-97 21.5q-43 0 -79 -29.5t-74 -64.5t-82 -64.5t-101 -29.5q-70 0 -137.5 33t-106.5 92q-2 14 -4 53t-3 83t-2 83t-1 55zM197 1700q68 0 147.5 -26.5t148 -74t113.5 -113t45 -140.5q0 -8 -3 -32t-5 -30q-55 27 -132 66t-146.5 89 t-118.5 115.5t-49 145.5zM238 217q90 0 165.5 44t130 113.5t84 156.5t29.5 171q0 94 -37 128t-133 34q-63 0 -105 -39t-69 -100t-40 -137t-19 -147.5t-6 -132v-91.5z" />
<glyph unicode="&#xe1;" horiz-adv-x="1435" d="M55 397q0 72 18.5 154t58.5 150.5t103.5 114.5t153.5 46q41 0 100.5 -14t114.5 -42t94 -69t39 -96q0 -4 -2 -15.5t-2 -13.5q0 -4 -10 -13t-20.5 -18.5t-19.5 -18.5t-9 -11q0 -66 41 -122t102.5 -98t130 -65.5t123.5 -23.5q45 0 83 11t75 25.5t73.5 25.5t81.5 11 q0 -70 -31.5 -119t-80.5 -80.5t-110.5 -46t-119.5 -14.5q-63 0 -120.5 20.5t-112.5 45t-110.5 45t-116.5 20.5q-43 0 -80 -20.5t-73 -44t-74 -44t-81 -20.5q-74 0 -117.5 33t-66 82t-29 109.5t-6.5 115.5zM168 918q0 104 54 223t140.5 219t193 166.5t208.5 66.5 q35 0 54.5 -12t37.5 -53l-610 -610h-78zM241 351.5q-1 -23.5 4 -45t18 -39t42 -23.5q45 31 81 86t60.5 118.5t37 128t12.5 113.5q-68 0 -116 -22.5t-79 -62.5t-45 -93.5t-14 -116.5q0 -20 -1 -43.5zM795 489v62l61 -62h-61z" />
<glyph unicode="&#xe2;" horiz-adv-x="1699" d="M90 547q0 74 12.5 157.5t38 166.5t66.5 159t96 133.5t128 92t163 34.5q137 0 234.5 -55t167 -144.5t115.5 -201t81 -224t63.5 -216t61.5 -174t76 -99.5t106 8l318 150q2 -8 5 -30.5t3 -31.5q0 -74 -31 -125t-80 -84.5t-113.5 -49t-132.5 -15.5q-61 0 -108 23.5t-87 58.5 t-74 75t-67.5 74.5t-70.5 58t-82 23.5q-68 0 -118 -31.5t-99 -68.5t-106.5 -68.5t-139.5 -31.5q-94 0 -173 31.5t-135 89t-87 137.5t-31 178zM158 1390q0 60 17 133t48.5 148t76.5 146.5t103 126.5t126.5 89t145.5 34q66 0 125 -43.5t109.5 -109t90 -145.5t67 -155 t42.5 -135.5t15 -85.5q0 -19 -4 -41t-13 -42t-25 -33t-40 -13q-3 0 -14 1.5t-13 3.5q-9 22 -29.5 65t-47 97t-55.5 112.5t-55.5 112.5t-48.5 95.5t-32 61.5q-22 39 -45 47t-65 8q-73 0 -113 -40.5t-64 -102t-38.5 -134t-34.5 -134t-53 -102t-93 -40.5q-36 0 -59.5 21.5 t-23.5 53.5zM266 617q-6 -69 10 -128q25 -104 91.5 -147t146.5 -43t148.5 39t120 100.5t81 137t29.5 149.5q0 61 -6 129t-27.5 123t-65.5 92t-118 37q-66 0 -125 -28.5t-108.5 -78t-87.5 -113t-60.5 -132t-28.5 -137.5z" />
<glyph unicode="&#xe3;" horiz-adv-x="1699" d="M90 547q0 74 12.5 157.5t38 166.5t66.5 159t96 133.5t128 92t163 34.5q137 0 234.5 -55t167 -144.5t115.5 -201t81 -224t63.5 -216t61.5 -174t76 -99.5t106 8l318 150q2 -8 5 -30.5t3 -31.5q0 -74 -31 -125t-80 -84.5t-113.5 -49t-132.5 -15.5q-61 0 -108 23.5t-87 58.5 t-74 75t-67.5 74.5t-70.5 58t-82 23.5q-68 0 -118 -31.5t-99 -68.5t-106.5 -68.5t-139.5 -31.5q-94 0 -173 31.5t-135 89t-87 137.5t-31 178zM118 1249q1 59 22 113t56.5 98t79.5 79.5t92 60.5t96 38.5t89 13.5q65 0 113.5 -30.5t88 -75.5t73 -98t68.5 -97.5t75.5 -75 t94.5 -30.5q53 0 99.5 20.5t89.5 54t80 77.5t71 94q26 -11 29.5 -32.5t3.5 -46.5q0 -58 -21 -105t-55.5 -82.5t-79 -61.5t-92 -42.5t-92.5 -24.5t-81 -8q-55 0 -94 33t-70.5 82.5t-59 107t-60.5 107.5t-76.5 82.5t-104.5 32.5q-52 4 -90 -15t-68 -51t-56 -71t-53.5 -72.5 t-59.5 -55t-76 -19.5q-2 -1 -7.5 -2.5t-8.5 -1.5q-2 0 -8.5 1.5t-7.5 2.5zM266 617q-6 -69 10 -128q25 -104 91.5 -147t146.5 -43t148.5 39t120 100.5t81 137t29.5 149.5q0 61 -6 129t-27.5 123t-65.5 92t-118 37q-66 0 -125 -28.5t-108.5 -78t-87.5 -113t-60.5 -132 t-28.5 -137.5z" />
<glyph unicode="&#xe4;" horiz-adv-x="1449" d="M82 383q0 68 19.5 147.5t55.5 159.5t86 155t111.5 132t133 92t149.5 35q117 0 177 -55.5t92 -137.5t48.5 -179t43 -179t76.5 -137.5t151 -55.5q70 0 121 40t96 88.5t92 88t113 39.5q4 0 15 -2t15 -2q-37 -88 -81 -166.5t-105 -138t-142 -94.5t-190 -35q-37 0 -67.5 11.5 t-59 23.5t-58.5 23.5t-65 11.5q-53 0 -95 -39t-85 -86t-92 -86t-119 -39q-86 0 -166 26.5t-139 76t-95 121t-36 161.5zM231 1421q10 31 35 46.5t53.5 23.5t58.5 9t52 1q0 -25 -6 -49.5t-18.5 -46t-33 -34.5t-48.5 -13q-33 0 -54 14t-39 49zM268 430q0 -47 14.5 -92t42 -80 t68.5 -56.5t94 -21.5q49 0 98.5 41t87.5 99.5t62.5 122t24.5 108.5q0 20 -7.5 73.5t-16.5 112t-20 109.5t-18 72q-2 0 -14 1t-16 1q-74 0 -145.5 -54.5t-128 -131.5t-91.5 -161t-35 -143zM690 1452q10 31 35 46t53.5 23.5t58 9.5t52.5 1q0 -25 -6 -49.5t-18.5 -46t-33 -34.5 t-49.5 -13q-33 0 -53.5 14t-38.5 49z" />
<glyph unicode="&#xe5;" horiz-adv-x="1699" d="M90 547q0 74 12.5 157.5t38 166.5t66.5 159t96 133.5t128 92t163 34.5q137 0 234.5 -55t167 -144.5t115.5 -201t81 -224t63.5 -216t61.5 -174t76 -99.5t106 8l318 150q2 -8 5 -30.5t3 -31.5q0 -74 -31 -125t-80 -84.5t-113.5 -49t-132.5 -15.5q-61 0 -108 23.5t-87 58.5 t-74 75t-67.5 74.5t-70.5 58t-82 23.5q-68 0 -118 -31.5t-99 -68.5t-106.5 -68.5t-139.5 -31.5q-94 0 -173 31.5t-135 89t-87 137.5t-31 178zM266 617q-6 -69 10 -128q25 -104 91.5 -147t146.5 -43t148.5 39t120 100.5t81 137t29.5 149.5q0 61 -6 129t-27.5 123t-65.5 92 t-118 37q-66 0 -125 -28.5t-108.5 -78t-87.5 -113t-60.5 -132t-28.5 -137.5zM381 1575q0 90 35.5 167.5t95 134t138.5 89t163 32.5q66 0 117 -25.5t85.5 -68.5t53 -100t18.5 -119q0 -74 -38 -151.5t-97 -142t-133 -105.5t-146 -41q-59 0 -112 29.5t-93 76.5t-63.5 106 t-23.5 118zM497 1568q0 -37 6.5 -77.5t23.5 -74.5t48 -55.5t80 -21.5t106.5 29.5t106.5 76t84 101.5t41 106q4 31 -2 74t-22.5 83t-45 67.5t-67.5 27.5q-16 0 -25.5 -6t-19.5 -26q-8 29 -34 31.5t-44 2.5q-63 0 -107.5 -33.5t-73 -85t-42 -110t-13.5 -109.5z" />
<glyph unicode="&#xe6;" horiz-adv-x="1804" d="M61 1100q0 49 39 111.5t96.5 120t120 96t111.5 38.5q74 0 142.5 -20.5t125 -59t98.5 -96t62 -129.5h551q39 0 63.5 -39t39 -93t19.5 -110.5t5 -91.5q0 -88 -42 -153.5t-103.5 -113.5t-135 -82t-135 -58.5t-103.5 -43t-42 -36.5q0 -47 24.5 -68.5t59.5 -28.5t73.5 -6 t67.5 1q76 0 143.5 31.5t129 70.5t121 70.5t120.5 31.5v-75q0 -8 -35 -47t-84 -87.5t-101 -96.5t-85 -75q-51 -37 -116.5 -50t-129.5 -13q-61 0 -115.5 29.5t-102.5 64.5t-92 64.5t-83 29.5q-45 0 -86 -10t-83 -23.5t-84 -23.5t-89 -10q-145 0 -226 62.5t-81 215.5 q0 100 41 168t103.5 114t135 76.5t135 56.5t103.5 53.5t41 66.5q0 57 -3 111.5t-19.5 97.5t-53.5 68.5t-104 25.5q-74 0 -130.5 -26.5t-99.5 -71.5t-77.5 -101.5t-67.5 -117.5q-6 8 -17.5 33.5t-20.5 55t-16.5 55t-7.5 38.5zM242 287h113.5t123 13t99 48t40.5 105v43.5 t-5 48t-19 42t-43 25.5q-72 -2 -129 -28.5t-97 -70.5t-61.5 -102.5t-21.5 -123.5zM913 731q0 -45 20.5 -84t76.5 -39q43 0 92 21.5t91 56.5t69.5 78t27.5 88q0 82 -43 107.5t-117 25.5q-104 0 -160.5 -75t-56.5 -179z" />
<glyph unicode="&#xe7;" horiz-adv-x="1406" d="M90 578q0 143 42 291.5t127 267t211 194.5t294 76q68 0 128 -25.5t106 -70.5t73 -103.5t27 -124.5q-66 0 -112 22.5t-87 49.5t-86 49.5t-108 22.5q-8 0 -32 -2t-30 -2q-92 -68 -161.5 -132.5t-116 -135t-70 -154.5t-23.5 -193q0 -174 97.5 -270t279.5 -96q10 0 30.5 2 t25.5 2l610 305v-62q0 -45 -35 -93t-91 -93t-125 -87t-136.5 -73.5t-127 -53t-95.5 -28.5v-122q123 -14 215 -35t153.5 -65t92 -121.5t30.5 -209.5q0 -102 -57.5 -209.5t-146.5 -196.5t-198.5 -146.5t-215.5 -57.5h-37t-34 6t-27.5 19.5t-20.5 38.5q29 16 81 45.5 t113.5 68.5t125 85t115.5 98.5t85 109t33 113.5q0 47 -5.5 88t-20.5 71.5t-46 48t-80 17.5q-100 0 -163.5 -44t-114.5 -150l-123 120v428q-84 45 -151.5 95.5t-116 112t-75 137t-26.5 172.5z" />
<glyph unicode="&#xe8;" horiz-adv-x="1191" d="M55 317q0 70 11.5 159t36 183.5t63.5 185.5t94 161.5t127 114.5t164 44q70 0 127 -27.5t97 -75.5t62.5 -110.5t22.5 -130.5q0 -2 -1 -6t-1 -8q-2 -6 -2 -12q-47 -70 -107.5 -113t-132 -67.5t-150.5 -38t-161 -25.5q-10 -12 -21.5 -47t-20.5 -74t-14 -75t-3 -50 q8 -53 37.5 -79.5t69.5 -37t83 -10.5h78q80 0 154.5 21.5t147.5 47t146.5 47t153.5 21.5q0 -70 -38 -120t-98 -85.5t-137 -58t-153 -35t-143.5 -17.5t-112.5 -5q-84 0 -153.5 15.5t-119.5 53t-78 100t-28 154.5zM367 795q8 0 31.5 -1t29.5 -1q25 0 57.5 2t62.5 11t50 27.5 t20 49.5q0 35 -16 56.5t-51 39.5zM428 1835q0 6 7 16.5t16.5 19.5t20.5 16t17 7t23.5 -7t38 -16t38 -19.5t23.5 -16.5q14 -16 45 -49t67 -75t76 -89t75.5 -89t63.5 -76t40 -50h-184q-4 0 -41 35t-86.5 83t-98.5 100t-80 87q-6 8 -17 25.5t-20.5 37t-16.5 37t-7 23.5z" />
<glyph unicode="&#xe9;" horiz-adv-x="1253" d="M59 461q0 72 16.5 158t48.5 172t79 165.5t107.5 142t135 99.5t162.5 37q61 0 118.5 -19.5t101.5 -56.5t71 -89t27 -120q0 -104 -46 -155.5t-117 -75t-152 -30.5t-151.5 -24.5t-116.5 -56.5t-46 -125q0 -90 7 -139t34 -72.5t79 -28.5t140 -5q84 0 161 22.5t150.5 50 t149.5 51t160 23.5q0 -57 -37 -108.5t-96.5 -94.5t-132 -76.5t-146.5 -57t-138.5 -36t-107.5 -12.5q-104 0 -190 35t-145.5 96.5t-92.5 146.5t-33 183zM123 1346v61q0 2 19.5 30.5t51 71.5t71.5 96.5t80 106.5t78 101.5t66 80.5q12 14 39 42t55.5 57.5t54.5 54.5t36 31h10 q4 0 9 1t9 1q33 0 53.5 -13.5t39.5 -50.5q-16 -23 -59.5 -75t-91.5 -110t-92 -110.5t-63 -70.5q-31 -35 -81 -87.5t-99 -100.5t-86 -82.5t-39 -34.5h-61zM428 856q4 0 15.5 -2t15.5 -2q39 0 83 6t80.5 22.5t60.5 46.5t24 79q-90 0 -163 -31t-116 -119z" />
<glyph unicode="&#xea;" horiz-adv-x="1406" d="M59 641q0 72 22.5 158t62.5 171t96.5 164.5t125 140t146.5 97.5t162 37q176 0 271 -92t95 -279q0 -43 -59 -87t-137 -78.5t-154 -57t-108 -22.5q-31 0 -62 10t-59.5 27.5t-53 40t-40.5 47.5q-39 -6 -54.5 -44t-18.5 -82t1 -82t4 -44q0 -33 4 -82t12.5 -103.5t24.5 -108 t41 -96.5t58.5 -69.5t80.5 -26.5q70 0 144.5 41t150.5 103.5t149.5 135t139 135t120 103.5t91.5 41q4 0 15 -1t16 -5q-23 -70 -68 -151.5t-107.5 -162.5t-138.5 -158t-156.5 -135t-163.5 -93t-161 -35q-68 0 -131.5 31.5t-117.5 83t-99 119t-77 139t-49.5 141.5t-17.5 129z M174 1681q0 76 28.5 150t78 132t117 93t147.5 35q109 0 193.5 -42t142 -110.5t87 -159.5t29.5 -190h-141l-244 305q-4 4 -14 5.5t-16 1.5q-59 0 -104.5 -43t-88.5 -97.5t-91 -104.5t-114 -67q-2 4 -4 17.5t-3 28t-2 27.5t-1 19zM428 1038q8 0 29.5 -1t46 -2t46 -2t32.5 -1 q27 0 63.5 -1t70.5 6t58.5 27.5t24.5 65.5q0 55 -41 77t-88 22q-45 0 -77 -11.5t-58.5 -34t-51 -59.5t-55.5 -86z" />
<glyph unicode="&#xeb;" horiz-adv-x="1253" d="M31 1835q0 35 32.5 49t59.5 14q39 0 66.5 -27.5t27.5 -66.5q0 -41 -28.5 -68.5t-69.5 -27.5q-43 0 -65.5 36t-22.5 91zM86 489v62q0 66 5 150.5t19.5 174t43 174.5t74.5 152.5t115 108.5t165 41q78 0 141.5 -15.5t111.5 -51.5t79.5 -96.5t46.5 -150.5q10 -57 -25 -99 t-94 -70.5t-134 -45t-145.5 -23.5t-129 -8t-85.5 3q-6 -16 -16 -59.5t-19.5 -91.5t-16.5 -92t-7 -63q0 -51 23.5 -110.5t65.5 -106.5t97.5 -74.5t118.5 -13.5q59 12 143.5 54.5t172.5 96.5t166.5 111.5t127.5 104.5l62 -62q4 -4 -8.5 -26.5t-31.5 -52t-42 -58t-41 -47.5 q-59 -59 -135 -114.5t-160 -98.5t-173 -68.5t-173 -25.5q-49 0 -99 27.5t-95.5 66.5t-82 81t-59.5 71q-2 18 -3 61t-2 92t-1 92zM336 979q8 0 31.5 -2t29.5 -2q63 0 118.5 9t94.5 36t61.5 73.5t22.5 120.5q-59 0 -117.5 -10t-108.5 -36.5t-86 -72.5t-46 -116zM850 1913 q27 0 64.5 -1t72.5 -11.5t60.5 -32t25.5 -64.5q0 -27 -14.5 -59.5t-48.5 -32.5q-47 0 -78 18.5t-49.5 47t-25.5 64.5t-7 71z" />
<glyph unicode="&#xec;" horiz-adv-x="550" d="M31 1956q0 37 32.5 51t59.5 14q59 0 102 -45t72 -107.5t42 -129t13 -109.5q-47 0 -103 33t-104.5 82t-81 106.5t-32.5 104.5zM274 123v1055q41 0 73 -21.5t50 -56.5q8 -96 20.5 -228.5t23 -275.5t17.5 -287.5t7 -265.5q-6 0 -37 1t-64.5 9t-61.5 24.5t-28 45.5z" />
<glyph unicode="&#xed;" horiz-adv-x="520" d="M0 1651q51 141 152.5 268t214.5 221q37 -18 50 -38.5t13 -53.5q0 -31 -18.5 -74t-49 -88t-70.5 -89t-81 -79t-80 -56.5t-70 -21.5q-8 0 -31.5 3.5t-29.5 7.5zM184 184v1039h121q18 -160 30.5 -279t21 -224.5t11.5 -209.5t3 -236q0 -12 -1 -42.5t-1 -64.5t-1 -63.5 t-1 -42.5q-29 -68 -95 -67q-8 0 -18 2t-10 4q-6 10 -16.5 35.5t-19.5 55.5t-16.5 56.5t-7.5 36.5z" />
<glyph unicode="&#xee;" horiz-adv-x="825" d="M61 1999q0 88 24 170t71 144.5t117.5 100t164.5 37.5q55 0 114.5 -31.5t107 -81.5t78 -110.5t30.5 -118.5q0 -41 -27.5 -67.5t-68.5 -26.5q-43 0 -70 30t-50.5 64.5t-50 64.5t-69.5 30q-66 0 -107.5 -32t-79.5 -71t-80 -70.5t-104 -31.5zM330 412q0 154 2 288t10 265 t20.5 268t34.5 295h123v-1467l-61 -61l-123 123q0 2 -1 37t-2 81t-2 94t-1 77z" />
<glyph unicode="&#xef;" horiz-adv-x="794" d="M0 2079q8 27 30.5 43t50.5 24t55.5 10.5t47.5 2.5v-160q-20 0 -47.5 2t-55.5 10t-50.5 23.5t-30.5 44.5zM428 43v1423l61 62l62 -62q4 -4 13 -69.5t19.5 -152.5t18.5 -178t10 -148v-55.5t1 -113t1 -128v-101.5v-80t-1 -120.5t-1 -120v-76.5q-10 -29 -31.5 -44.5 t-49 -23.5t-55 -10t-48.5 -2zM541 2261h229q0 -31 -9 -64.5t-29.5 -60.5t-50.5 -43t-69 -14q-27 35 -49 85t-22 97z" />
<glyph unicode="&#xf1;" horiz-adv-x="1804" d="M55 551q0 43 1 112.5t2 137t2 120t1 58.5q0 27 8.5 69t17.5 80.5t19.5 66.5t16.5 28h61q16 0 28.5 -29t20 -73t10.5 -96t4 -99t1 -84t-2 -47q53 41 94 93t80 106.5t78 107.5t86 95t107.5 67.5t139.5 25.5q104 0 174 -45t116 -118.5t73 -169t43 -193.5t27.5 -193.5 t27 -169t39 -118.5t66.5 -45q104 0 178 12t129 40.5t99 79t91 124.5l56 -70q-25 -90 -84.5 -179t-141.5 -154.5t-180 -94.5t-198 4q-76 25 -124 86t-77 143t-45.5 179.5t-27.5 194.5t-25.5 187.5t-39 160t-66.5 111.5t-112 42q-111 0 -190.5 -78t-139 -193.5t-104.5 -252 t-83 -252t-75.5 -193.5t-82.5 -78q-33 0 -53.5 14.5t-39.5 51.5q0 25 -1 85t-2 127.5t-2 129t-1 86.5zM159 1409q1 79 24 150.5t61.5 130.5t87 107t101 81t105.5 51t98 18q72 0 125 -40.5t96.5 -100.5t80 -131t75 -130.5t83 -100t103.5 -40.5q58 0 109.5 27t98 72 t87.5 103.5t78 125.5q29 -14 33 -43t4 -63q0 -77 -23.5 -139.5t-61 -110t-86.5 -82.5t-101 -56.5t-101.5 -32t-89.5 -10.5q-60 0 -103 44t-77.5 110t-64.5 142.5t-66.5 143t-84 110.5t-114.5 44q-57 5 -98.5 -21t-74.5 -68.5t-61.5 -94.5t-58.5 -96.5t-65.5 -73.5t-83.5 -26 q-2 -1 -8.5 -3t-9.5 -2q-2 0 -9 2t-8 3z" />
<glyph unicode="&#xf2;" horiz-adv-x="1406" d="M59 578q0 88 19.5 192t57.5 210.5t95.5 206t132 176.5t167 123t202.5 46q76 0 146.5 -35t133 -91t113 -130t87 -154t57 -158.5t20.5 -144.5q0 -100 -33.5 -200.5t-92 -191.5t-138.5 -169t-173 -136.5t-194.5 -91t-201.5 -32.5q-106 0 -181 59.5t-123.5 146.5t-71 188.5 t-22.5 185.5zM242 547q0 -59 16 -124t51 -118t87.5 -89t123.5 -36q102 0 206.5 61.5t188.5 154.5t137.5 203t53.5 206q0 82 -40 168t-105.5 155.5t-149.5 113.5t-172 44q-72 0 -129 -42t-101 -108.5t-76 -149.5t-52.5 -166t-29.5 -155.5t-9 -117.5zM287 2290q6 0 26.5 -3 t44 -7.5t44 -9.5t26.5 -9q41 -20 103.5 -58t121 -77t100.5 -71t42 -38v-86q-88 0 -178.5 19.5t-164 62.5t-119.5 111t-46 166z" />
<glyph unicode="&#xf3;" horiz-adv-x="1497" d="M31 612q0 80 33.5 170t91 179.5t133.5 171t159.5 144t171 99.5t166.5 37q135 0 254 -50t208 -138t140.5 -206t51.5 -255q0 -92 -39 -184.5t-105.5 -177.5t-153.5 -158.5t-182.5 -128t-192.5 -85t-185 -30.5q-115 0 -214.5 56.5t-175 145.5t-118.5 197.5t-43 212.5z M215 612q-10 -45 6.5 -95t49 -100t79.5 -95.5t97.5 -77t101.5 -49t94 -11.5q104 14 213 76t199 151t147.5 195.5t57.5 214.5q0 78 -25 137.5t-68 105.5t-99 84t-120 75v-168q-41 0 -66.5 8t-49 17.5t-54 17.5t-82.5 8q-100 0 -181 -42t-140.5 -110.5t-99.5 -158t-60 -183.5z M274 1651l613 610h98q0 -53 -39 -119.5t-101.5 -134.5t-139 -133.5t-152.5 -115.5t-141.5 -80.5t-106.5 -30.5q-4 0 -15 2t-16 2z" />
<glyph unicode="&#xf4;" horiz-adv-x="1232" d="M29 520q0 47 21.5 131t59 182.5t89 201t113 185.5t130 135t140.5 52q6 0 32.5 -10.5t57 -22.5t58.5 -21.5t34 -6.5q8 0 32.5 -14.5t51 -33t51.5 -33t33 -10.5q16 6 50 4t71 -8t67.5 -12t42.5 -6q31 0 75 -10.5t85 -26.5t70.5 -41t29.5 -51q0 -41 -27.5 -67.5t-66.5 -26.5 q-49 0 -73.5 6t-52 13t-70.5 13.5t-125 6.5q0 -84 10 -129.5t23.5 -83t23.5 -81.5t10 -126q0 -115 -62.5 -227.5t-160.5 -201.5t-218 -144.5t-237 -55.5q-86 0 -154.5 56.5t-115.5 137t-72.5 169.5t-25.5 157zM188 1376q0 53 13.5 116.5t37.5 129t58.5 128t78.5 110.5 t96.5 77.5t111.5 29.5q51 0 96 -38t83.5 -95t68.5 -127t51 -135.5t33 -118t12 -74.5q0 -16 -3.5 -35.5t-10 -37t-19 -29t-30.5 -11.5q-3 0 -11 1.5t-10 3.5q-6 19 -22 56.5t-36.5 84.5t-42.5 98.5t-42.5 98t-37 83t-24.5 53.5q-17 35 -34.5 41.5t-49.5 6.5q-56 0 -86.5 -35 t-49 -89t-29.5 -117t-26 -116.5t-40.5 -89t-71.5 -35.5q-27 0 -45.5 19t-18.5 46zM215 489q0 -139 63.5 -195t176.5 -56q111 0 193.5 38.5t137 105.5t81 157t26.5 192q0 68 -6 154t-34 161.5t-84 128t-157 52.5q-4 0 -16 -2t-14 -2q-61 -68 -126 -154t-118 -182t-88 -198 t-35 -200z" />
<glyph unicode="&#xf5;" horiz-adv-x="1232" d="M29 520q0 47 21.5 131t59 182.5t89 201t113 185.5t130 135t140.5 52q6 0 32.5 -10.5t57 -22.5t58.5 -21.5t34 -6.5q8 0 32.5 -14.5t51 -33t51.5 -33t33 -10.5q16 6 50 4t71 -8t67.5 -12t42.5 -6q31 0 75 -10.5t85 -26.5t70.5 -41t29.5 -51q0 -41 -27.5 -67.5t-66.5 -26.5 q-49 0 -73.5 6t-52 13t-70.5 13.5t-125 6.5q0 -84 10 -129.5t23.5 -83t23.5 -81.5t10 -126q0 -115 -62.5 -227.5t-160.5 -201.5t-218 -144.5t-237 -55.5q-86 0 -154.5 56.5t-115.5 137t-72.5 169.5t-25.5 157zM65 1504q1 74 23 140.5t58 121.5t82 99.5t95.5 75.5t99.5 47.5 t92 16.5q69 0 119 -38t91 -93.5t75.5 -121.5t71 -122t78.5 -93.5t98 -37.5q54 0 103 25.5t93 67t83 96.5t73 117q28 -13 31.5 -40t3.5 -59q0 -71 -22 -129.5t-57.5 -103t-82 -77t-95.5 -52.5t-96 -30t-84 -10q-57 0 -97.5 41t-73 102.5t-61 133.5t-63 133.5t-79.5 102.5 t-109 41q-53 5 -92.5 -19t-70.5 -64t-58 -88.5t-55.5 -90t-62 -68.5t-78.5 -24q-2 -1 -8 -3t-9 -2q-2 0 -8.5 2t-7.5 3zM215 489q0 -139 63.5 -195t176.5 -56q111 0 193.5 38.5t137 105.5t81 157t26.5 192q0 68 -6 154t-34 161.5t-84 128t-157 52.5q-4 0 -16 -2t-14 -2 q-61 -68 -126 -154t-118 -182t-88 -198t-35 -200z" />
<glyph unicode="&#xf6;" horiz-adv-x="1497" d="M55 545q0 133 51.5 266t141.5 239.5t213 173t266 66.5q119 0 239.5 -38t219 -109.5t161 -175t62.5 -236.5q0 -27 -13.5 -75t-37 -106t-54 -118.5t-65.5 -112t-70.5 -88t-68.5 -47.5l-611 -184q-61 -18 -117.5 3.5t-104.5 68.5t-87 111.5t-66.5 131t-43 128t-15.5 102.5z M242 551q0 -59 15 -124t49 -120t86 -91t124 -36q123 0 249 40t229.5 116t169 183.5t65.5 242.5q0 63 -9.5 112.5t-58.5 104.5q-4 -12 -19.5 -24.5t-35 -22.5t-37.5 -14.5t-29 0.5q-10 2 -35.5 29.5t-56 59t-57.5 60.5t-35 33q-2 4 -32.5 5t-49.5 1q-115 0 -212 -44 t-167.5 -120t-111.5 -177t-41 -214zM348 1696q0 23 1 52.5t9.5 59t23.5 53t46 33.5q37 -18 50.5 -38.5t13.5 -51.5q0 -29 -13.5 -49t-34 -33.5t-46 -19.5t-50.5 -6zM1100 1774q8 27 30.5 42t50 23t55.5 10t48 2v-157q-20 0 -48 2t-55.5 10t-50 23.5t-30.5 44.5z" />
<glyph unicode="&#xf8;" horiz-adv-x="1232" d="M29 520q0 47 21.5 131t59 182.5t89 201t113 185.5t130 135t140.5 52q6 0 32.5 -10.5t57 -22.5t58.5 -21.5t34 -6.5q8 0 32.5 -14.5t51 -33t51.5 -33t33 -10.5q16 6 50 4t71 -8t67.5 -12t42.5 -6q31 0 75 -10.5t85 -26.5t70.5 -41t29.5 -51q0 -41 -27.5 -67.5t-66.5 -26.5 q-49 0 -73.5 6t-52 13t-70.5 13.5t-125 6.5q0 -84 10 -129.5t23.5 -83t23.5 -81.5t10 -126q0 -115 -62.5 -227.5t-160.5 -201.5t-218 -144.5t-237 -55.5q-86 0 -154.5 56.5t-115.5 137t-72.5 169.5t-25.5 157zM61 -44l912 1828q14 28 44.5 44t63.5 16v-157l-806 -1634 q0 -2 -22.5 -27.5t-54.5 -55.5t-69 -54t-68 -24v64zM215 489q0 -139 63.5 -195t176.5 -56q111 0 193.5 38.5t137 105.5t81 157t26.5 192q0 68 -6 154t-34 161.5t-84 128t-157 52.5q-4 0 -16 -2t-14 -2q-61 -68 -126 -154t-118 -182t-88 -198t-35 -200z" />
<glyph unicode="&#xf9;" horiz-adv-x="1497" d="M90 547q0 63 4 136t22.5 140.5t55.5 125t104 89.5l60 -59q-20 -104 -42 -214t-22 -218q0 -72 20.5 -137.5t60.5 -117.5t98.5 -83t136.5 -31q125 0 192.5 59.5t99 148.5t40 193.5t16.5 193.5t28.5 148.5t75.5 59.5q25 0 57.5 -13.5t32.5 -49.5v-613q0 -6 7.5 -15 t16.5 -19.5t20.5 -17.5t17.5 -9q14 -2 52 -6.5t80 -8.5t80 -7t52 -3q0 -45 -19.5 -85t-52 -70.5t-75.5 -48t-88 -17.5h-17q-6 0 -12 2q-10 6 -45 34.5t-75 62.5t-75.5 60.5t-48.5 26.5q-12 0 -48 -27.5t-76 -61.5t-74.5 -63.5t-44.5 -31.5q-2 0 -15.5 -1t-32 -2l-37 -2 t-30.5 -1q-115 0 -208 45t-157.5 121t-99.5 176t-35 211zM336 1712q0 14 23.5 38t37.5 24q39 -33 103.5 -90.5t127 -127t107.5 -143.5t45 -139q-78 0 -156.5 40t-142 102.5t-104.5 140t-41 155.5z" />
<glyph unicode="&#xfa;" horiz-adv-x="1804" d="M59 471q0 94 2 175t9.5 160t19.5 165t33 190q2 4 14.5 5t16.5 1q45 0 66.5 -56t29.5 -144t7 -199t1 -220.5t11.5 -205.5t35.5 -158q4 0 15.5 -2t15.5 -2q88 0 171 42t157.5 110.5t140 154.5t121 175.5t99.5 172.5t75 144h123q0 -14 1 -63.5t6 -116t15 -143t30.5 -146.5 t52.5 -125t79 -80q6 -2 12 -2h19q43 0 75.5 21.5t64.5 48t65.5 48t76.5 21.5q0 -68 -24.5 -128t-66.5 -104t-99 -70.5t-123 -26.5q-57 0 -98 23.5t-74 59t-58.5 77.5t-51 78t-53.5 59.5t-62 23.5q-4 0 -16.5 -2t-14.5 -4q-45 -57 -112.5 -132t-148.5 -140.5t-170 -111.5 t-177 -46q-96 0 -156.5 44t-94.5 113.5t-47.5 153.5t-13.5 162zM541 1266q0 84 42 164.5t108.5 145t149.5 104.5t165 40q0 -45 -22.5 -96t-59.5 -102.5t-86.5 -97.5t-100.5 -80.5t-102 -56t-94 -21.5z" />
<glyph unicode="&#xfb;" horiz-adv-x="1615" d="M90 571q0 94 2 169t8 149t18.5 152.5t35.5 181.5q2 0 14 2t16 2t15.5 -2t15.5 -2q10 -4 25.5 -13.5t30 -19.5t24.5 -18.5t10 -10.5v-917q0 -2 10.5 -10.5t25.5 -17.5t30.5 -18.5t25.5 -13.5q6 -2 13 -2q4 -2 9 -2h9q45 0 97.5 28t98.5 67.5t83.5 81.5t56.5 71 q14 23 39.5 70t56.5 106.5t64.5 126t63.5 127t51.5 108.5t31.5 72q2 4 14.5 5t16.5 1q51 0 70.5 -64.5t25.5 -160.5t6 -207.5t13.5 -208t47 -161t107.5 -64.5q86 0 130 25.5t79 56.5t77 56.5t124 25.5q0 -68 -39 -130t-98.5 -110.5t-131 -76t-137.5 -27.5q-88 0 -149.5 41 t-103.5 104.5t-68.5 139t-44.5 145.5q-45 -51 -110.5 -126t-143.5 -143.5t-161 -116.5t-161 -48q-117 0 -185.5 55t-103 140t-45 187.5t-10.5 194.5zM260 1356q0 56 14.5 123.5t41 137t65 135.5t88 117t107.5 82.5t123 31.5q57 0 107 -40t93 -100.5t76 -135t56.5 -144 t36.5 -125.5t13 -79q0 -17 -3.5 -37.5t-11 -39t-21.5 -31t-34 -12.5q-3 0 -12 1.5t-11 3.5q-7 21 -24.5 60.5t-40 89.5t-47 104.5t-47.5 104t-41.5 88.5t-27.5 57q-18 36 -38 43.5t-54 7.5q-63 0 -97 -37.5t-54.5 -94.5t-33 -124t-29 -124t-44.5 -94.5t-80 -37.5 q-30 0 -50 20t-20 49z" />
<glyph unicode="&#xfc;" horiz-adv-x="1986" d="M86 795q0 16 1 60t2 92t2 92t1 61q18 37 39 51t53 14q4 0 15.5 -2t15.5 -2q0 -25 4 -78t9 -118.5t12.5 -139t13.5 -139t12 -119t10 -78.5q6 -47 23.5 -100t47.5 -100t72 -78t97 -31q133 0 239.5 73t190.5 183.5t146.5 237.5t110.5 237.5t83 183t62 72.5q66 0 87 -59 t20 -149.5t-13 -195t-11 -194.5t25.5 -149.5t95.5 -59.5q57 0 103.5 32t92.5 71t97 70.5t117 31.5q0 -78 -35 -148.5t-91 -124.5t-129 -87t-148 -33q-66 0 -117 12.5t-94 41t-81 78.5t-75 124q-31 -29 -76 -73t-100 -92t-118.5 -95t-127 -85t-127 -61.5t-121.5 -23.5 q-104 0 -177 39t-121 103.5t-75.5 148.5t-42 172t-17.5 175t-3 159zM516 1559q0 33 14.5 53t51.5 39q37 -18 50 -39t13 -53q0 -33 -13.5 -53.5t-49.5 -39.5q-37 18 -51.5 39t-14.5 54zM948 1448v141q6 0 29.5 3t32.5 3q39 0 71.5 -8t48.5 -59q-8 -29 -29.5 -44.5t-49 -23.5 t-55 -10t-48.5 -2z" />
<glyph unicode="&#xfd;" d="M59 700q0 57 1 105.5t7.5 94.5t18.5 94t37 108q2 0 14.5 1t16.5 1q33 0 53 -13.5t39 -50.5q-2 -18 -3 -56t-1 -87v-101.5v-101.5t1 -87t3 -56q0 -12 8 -32.5t17.5 -40t18.5 -34t15 -16.5q70 -16 140.5 13.5t138 89t130 138.5t115 158.5t91 153.5t59.5 121h121 q16 -150 24.5 -304.5t19.5 -309t28.5 -308t50.5 -301.5q18 -2 61 -10t92 -18.5t92 -19.5t60 -13q39 -18 67.5 -49t32.5 -62t-20.5 -59.5t-89.5 -44.5q-10 0 -54.5 5t-94.5 11t-94 11t-52 3q-4 -27 -12.5 -85t-20.5 -129.5t-25.5 -151.5t-26 -151.5t-22.5 -130t-16 -85.5 q-10 -59 -36 -134t-67 -140.5t-99 -110.5t-134 -45q-86 0 -140.5 43t-85 106.5t-42 138.5t-11.5 138q0 293 118 506t376 354v53t1 83.5t1 83v55.5v153.5t-4 139t-18.5 138t-40.5 150.5q-78 -29 -147 -89t-136.5 -123.5t-140 -110.5t-158.5 -47q-90 0 -144.5 47t-83 116.5 t-39 149.5t-10.5 145zM305 1346v61q0 2 19.5 30.5t51 71.5t71.5 96.5t80 106.5t78 101.5t66 80.5q12 14 39 42t55.5 57.5t54.5 54.5t36 31h10q4 0 9 1t9 1q33 0 53.5 -13.5t39.5 -50.5q-16 -23 -59.5 -75t-91.5 -110t-92 -110.5t-63 -70.5q-31 -35 -81 -87.5t-99 -100.5 t-86 -82.5t-39 -34.5h-61zM608 -1163q0 -25 3 -56.5t12.5 -61.5t29 -49.5t49.5 -19.5q70 0 118 54.5t80 138.5t50.5 187.5t27.5 200.5t11 178t2 120q-70 0 -125 -39t-97 -100.5t-72.5 -138t-50 -153.5t-29 -146.5t-9.5 -114.5z" />
<glyph unicode="&#xff;" d="M59 700q0 57 1 105.5t7.5 94.5t18.5 94t37 108q2 0 14.5 1t16.5 1q33 0 53 -13.5t39 -50.5q-2 -18 -3 -56t-1 -87v-101.5v-101.5t1 -87t3 -56q0 -12 8 -32.5t17.5 -40t18.5 -34t15 -16.5q70 -16 140.5 13.5t138 89t130 138.5t115 158.5t91 153.5t59.5 121h121 q16 -150 24.5 -304.5t19.5 -309t28.5 -308t50.5 -301.5q18 -2 61 -10t92 -18.5t92 -19.5t60 -13q39 -18 67.5 -49t32.5 -62t-20.5 -59.5t-89.5 -44.5q-10 0 -54.5 5t-94.5 11t-94 11t-52 3q-4 -27 -12.5 -85t-20.5 -129.5t-25.5 -151.5t-26 -151.5t-22.5 -130t-16 -85.5 q-10 -59 -36 -134t-67 -140.5t-99 -110.5t-134 -45q-86 0 -140.5 43t-85 106.5t-42 138.5t-11.5 138q0 293 118 506t376 354v53t1 83.5t1 83v55.5v153.5t-4 139t-18.5 138t-40.5 150.5q-78 -29 -147 -89t-136.5 -123.5t-140 -110.5t-158.5 -47q-90 0 -144.5 47t-83 116.5 t-39 149.5t-10.5 145zM112 1356q0 25 6.5 61.5t25 69.5t50 56.5t84.5 23.5q35 0 66 -15.5t53.5 -39t35.5 -49t13 -46.5q0 -27 -14 -54.5t-40 -49t-60.5 -34.5t-73.5 -13q-55 0 -100.5 22.5t-45.5 67.5zM608 -1163q0 -25 3 -56.5t12.5 -61.5t29 -49.5t49.5 -19.5 q70 0 118 54.5t80 138.5t50.5 187.5t27.5 200.5t11 178t2 120q-70 0 -125 -39t-97 -100.5t-72.5 -138t-50 -153.5t-29 -146.5t-9.5 -114.5zM823 1356q0 25 6 61.5t24.5 69.5t50.5 56.5t85 23.5q35 0 65.5 -15.5t53 -39t36 -49t13.5 -46.5q0 -27 -14.5 -54.5t-40 -49 t-60.5 -34.5t-73 -13q-55 0 -100.5 22.5t-45.5 67.5z" />
<glyph unicode="&#x152;" horiz-adv-x="2570" d="M61 641q0 176 71 328.5t190.5 264.5t275.5 175.5t326 63.5q131 0 232 -50.5t171 -135.5t106.5 -196.5t36.5 -234.5q0 -96 -34.5 -197.5t-95 -196.5t-141.5 -181t-172 -149.5t-189.5 -100.5t-192.5 -37q-119 0 -224.5 58.5t-185 150.5t-127 207.5t-47.5 230.5zM293 627 q0 -72 12 -151t47 -145.5t96.5 -109.5t159.5 -43q66 0 140.5 27.5t146.5 74t139.5 108t120.5 130t87 139t42 138.5q6 57 -5 141t-45 162t-89 133t-135 55q-35 0 -54.5 -12t-37.5 -51q-6 29 -25 43t-41.5 19t-47 5h-42.5q-127 0 -215 -66.5t-145.5 -166t-83 -215 t-25.5 -215.5zM1276 795l123 123q-10 102 -20.5 191t-10.5 170t19.5 156.5t72.5 153.5q4 6 13.5 17.5t18.5 20.5t17 16.5t10 7.5h674q4 0 20.5 -14.5t36 -34t38 -40t26.5 -34.5q4 -6 11 -17.5t7 -19.5q-31 0 -111.5 -3t-171.5 -7t-172 -8.5t-112 -6.5q-14 0 -34.5 -8 t-40 -17t-34 -18.5t-14.5 -15.5v-518q35 0 95.5 16.5t125 25.5t122 -4.5t85.5 -70.5q0 -6 2 -12q0 -4 1 -9.5t1 -9.5t-2 -15t-2 -15q-20 -4 -72.5 -12.5t-110.5 -17.5t-110.5 -18.5t-72.5 -13.5q-8 0 -30.5 2t-31.5 2v-493q0 -31 23.5 -45.5t54.5 -18.5t58.5 -2t37.5 2 q68 0 133.5 10.5t131 23.5t131 23.5t133.5 10.5q6 0 19.5 -1t27.5 -1t27.5 -1t17.5 -1q-45 -76 -131 -123t-187.5 -75t-204 -38t-180.5 -10q-59 0 -106 1t-92 7t-92.5 18t-106.5 37q-4 2 -5 14.5t-1 16.5q0 45 42 64.5t87 27.5l-61 549z" />
<glyph unicode="&#x153;" horiz-adv-x="2555" d="M29 520q0 47 21.5 131t59 182.5t89 201t113 185.5t130 135t140.5 52q6 0 32.5 -10.5t57 -22.5t58.5 -21.5t34 -6.5q8 0 32.5 -14.5t51 -33t51.5 -33t33 -10.5q16 6 50 4t71 -8t67.5 -12t42.5 -6q31 0 75 -10.5t85 -26.5t70.5 -41t29.5 -51q0 -41 -27.5 -67.5t-66.5 -26.5 q-49 0 -73.5 6t-52 13t-70.5 13.5t-125 6.5q0 -84 10 -129.5t23.5 -83t23.5 -81.5t10 -126q0 -115 -62.5 -227.5t-160.5 -201.5t-218 -144.5t-237 -55.5q-86 0 -154.5 56.5t-115.5 137t-72.5 169.5t-25.5 157zM215 489q0 -139 63.5 -195t176.5 -56q111 0 193.5 38.5 t137 105.5t81 157t26.5 192q0 68 -6 154t-34 161.5t-84 128t-157 52.5q-4 0 -16 -2t-14 -2q-61 -68 -126 -154t-118 -182t-88 -198t-35 -200zM1159 569q0 70 9 164t32 196.5t59.5 202t92 178.5t130 127t173.5 48q55 0 110.5 -20.5t99.5 -57.5t72.5 -86t28.5 -106 q0 -135 -46 -221.5t-115.5 -140.5t-149.5 -86t-150 -62.5t-116 -68.5t-46 -101q0 -72 19.5 -143.5t57.5 -129t96.5 -93.5t138.5 -36q104 0 215.5 48t217 116t199 141.5t162.5 126.5h62v-61q0 -4 -35 -42t-84 -87t-101.5 -98.5t-87.5 -79.5q-53 -47 -117.5 -92.5t-135 -80 t-144.5 -56t-145 -21.5q-133 0 -228.5 53t-156 140t-89 199.5t-28.5 229.5zM1409 932q0 -14 23.5 -37.5t37.5 -23.5q49 0 103.5 35.5t100.5 88t76 109.5t30 102q0 55 -39 77t-86 22q-53 0 -98.5 -42t-78 -101.5t-51 -123t-18.5 -106.5z" />
<glyph unicode="&#x178;" horiz-adv-x="1413" d="M31 2384q18 37 38.5 51t53.5 14q80 0 146.5 -59t128 -149.5t121 -193.5t120.5 -193.5t130 -149.5t151 -59q4 0 16 1t12 5l490 733h182l-1528 -2458v197l672 1284v59q-25 27 -73 84.5t-108.5 129t-127 151.5t-126 152.5t-106.5 131t-69 87.5q-8 8 -26.5 33.5t-38 55 t-36 55.5t-22.5 38zM385 2540q0 25 6.5 61.5t25 69.5t50 56.5t84.5 23.5q35 0 66 -15.5t53.5 -39t35.5 -49t13 -46.5q0 -27 -14 -54.5t-40 -49t-60.5 -34.5t-73.5 -13q-55 0 -100.5 22.5t-45.5 67.5zM1096 2540q0 25 6 61.5t24.5 69.5t50.5 56.5t85 23.5q35 0 65.5 -15.5 t53 -39t36 -49t13.5 -46.5q0 -27 -14.5 -54.5t-40 -49t-60.5 -34.5t-73 -13q-55 0 -100.5 22.5t-45.5 67.5z" />
<glyph unicode="&#x2c6;" horiz-adv-x="1253" d="M59 1495q0 74 19.5 164t55.5 183t88 181t118 156t144.5 110t166.5 42q76 0 143.5 -53.5t125 -134.5t102.5 -180t76.5 -191.5t49 -167t17.5 -105.5q0 -23 -5 -50.5t-15 -52t-28.5 -41t-45.5 -16.5q-4 0 -16.5 2t-14.5 5q-10 27 -33.5 80t-54 119.5t-63.5 139t-63.5 139 t-55.5 118t-37 75.5q-25 49 -51.5 58.5t-73.5 9.5q-84 0 -130 -50t-73.5 -126t-44 -165t-39 -165t-60.5 -126t-107 -50q-41 0 -68 26.5t-27 65.5z" />
<glyph unicode="&#x2dc;" horiz-adv-x="2629" d="M31 1161q2 90 42 172t106.5 149.5t150.5 122t175 92.5t182 58.5t169 20.5q125 0 217 -46.5t167 -115t138.5 -149.5t130 -149.5t143.5 -114.5t179 -46q100 0 189 31t170 82t152 118.5t134 143.5q51 -16 57.5 -49t6.5 -72q0 -88 -40 -159.5t-105.5 -126t-150.5 -94.5 t-174.5 -64.5t-175.5 -37t-155 -12.5q-104 0 -178 50.5t-133.5 126t-111.5 163.5t-115.5 164t-145.5 126t-199 50q-98 6 -170 -23.5t-129 -78.5t-106.5 -108.5t-101.5 -110.5t-113.5 -84t-143.5 -29q-4 -2 -15 -4t-16 -2q-4 0 -16 2t-14 4z" />
<glyph unicode="&#x2000;" horiz-adv-x="1806" />
<glyph unicode="&#x2001;" horiz-adv-x="3613" />
<glyph unicode="&#x2002;" horiz-adv-x="1806" />
<glyph unicode="&#x2003;" horiz-adv-x="3613" />
<glyph unicode="&#x2004;" horiz-adv-x="1204" />
<glyph unicode="&#x2005;" horiz-adv-x="903" />
<glyph unicode="&#x2006;" horiz-adv-x="602" />
<glyph unicode="&#x2007;" horiz-adv-x="602" />
<glyph unicode="&#x2008;" horiz-adv-x="451" />
<glyph unicode="&#x2009;" horiz-adv-x="722" />
<glyph unicode="&#x200a;" horiz-adv-x="200" />
<glyph unicode="&#x2010;" horiz-adv-x="1619" d="M31 1102q6 6 63.5 22.5t148.5 39t206.5 50t239.5 54t248 52.5t230.5 45t186.5 31.5t116 12.5q33 0 50.5 -11.5t38.5 -51.5q-141 -88 -302 -158t-332 -117t-345 -72.5t-342 -25.5q-16 0 -40 1t-47.5 2t-40.5 2l-18 1z" />
<glyph unicode="&#x2011;" horiz-adv-x="1619" d="M31 1102q6 6 63.5 22.5t148.5 39t206.5 50t239.5 54t248 52.5t230.5 45t186.5 31.5t116 12.5q33 0 50.5 -11.5t38.5 -51.5q-141 -88 -302 -158t-332 -117t-345 -72.5t-342 -25.5q-16 0 -40 1t-47.5 2t-40.5 2l-18 1z" />
<glyph unicode="&#x2012;" horiz-adv-x="1619" d="M31 1102q6 6 63.5 22.5t148.5 39t206.5 50t239.5 54t248 52.5t230.5 45t186.5 31.5t116 12.5q33 0 50.5 -11.5t38.5 -51.5q-141 -88 -302 -158t-332 -117t-345 -72.5t-342 -25.5q-16 0 -40 1t-47.5 2t-40.5 2l-18 1z" />
<glyph unicode="&#x2013;" horiz-adv-x="1115" d="M31 1102q4 6 42.5 22.5t99.5 39t138.5 50t160.5 54t166 52.5t154.5 45t125 31.5t77.5 12.5q22 0 34 -11.5t26 -51.5q-94 -88 -202 -158t-222.5 -117t-231.5 -72.5t-229 -25.5q-11 0 -27 1l-32 2t-27 2l-12 1z" />
<glyph unicode="&#x2014;" horiz-adv-x="2139" d="M31 1102q8 6 85 22.5t199 39t277 50t321 54t332.5 52.5t309 45t249.5 31.5t156 12.5q44 0 67.5 -11.5t51.5 -51.5q-189 -88 -405 -158t-445 -117t-462 -72.5t-459 -25.5q-21 0 -53 1t-63.5 2t-54.5 2l-24 1z" />
<glyph unicode="&#x2018;" horiz-adv-x="397" d="M61 1589v31v31q4 23 12.5 70.5t20.5 108t25.5 127t26 127t22.5 107.5t16 70q2 0 14.5 2t16.5 2q39 0 58.5 -18.5t27.5 -46t9 -58.5t1 -57q0 -162 -55 -282t-195 -214z" />
<glyph unicode="&#x2019;" horiz-adv-x="397" d="M61 1589v31v31q4 23 12.5 70.5t20.5 108t25.5 127t26 127t22.5 107.5t16 70q2 0 14.5 2t16.5 2q39 0 58.5 -18.5t27.5 -46t9 -58.5t1 -57q0 -162 -55 -282t-195 -214z" />
<glyph unicode="&#x201c;" horiz-adv-x="671" d="M31 2445q18 35 38.5 51.5t55.5 16.5q37 0 63.5 -36t43 -90t26.5 -121.5t14 -132.5t5.5 -117t1.5 -79q-102 0 -153.5 45.5t-71 117t-20.5 162.5t-3 183zM394 2277q-1 52 6.5 105t28 93t60.5 40q20 0 38 -13.5t30 -33t18.5 -43t6.5 -41.5q0 -20 -7.5 -72.5t-16.5 -111 t-20.5 -110.5t-17.5 -73q-4 0 -15 -2t-16 -2q-39 0 -58 18.5t-27.5 46t-8.5 59.5v61q0 27 -1 79z" />
<glyph unicode="&#x201d;" horiz-adv-x="671" d="M31 2445q18 35 38.5 51.5t55.5 16.5q37 0 63.5 -36t43 -90t26.5 -121.5t14 -132.5t5.5 -117t1.5 -79q-102 0 -153.5 45.5t-71 117t-20.5 162.5t-3 183zM394 2277q-1 52 6.5 105t28 93t60.5 40q20 0 38 -13.5t30 -33t18.5 -43t6.5 -41.5q0 -20 -7.5 -72.5t-16.5 -111 t-20.5 -110.5t-17.5 -73q-4 0 -15 -2t-16 -2q-39 0 -58 18.5t-27.5 46t-8.5 59.5v61q0 27 -1 79z" />
<glyph unicode="&#x2026;" horiz-adv-x="2881" d="M420 131q0 39 8 95.5t32.5 107.5t68.5 88t116 37q47 0 89 -24.5t73 -59.5t48 -75t17 -73q0 -43 -19 -85t-54 -75.5t-81 -54t-102 -20.5q-37 0 -72.5 8t-63 25.5t-44 44t-16.5 61.5zM1380 131q0 39 8.5 95.5t33 107.5t68.5 88t116 37q47 0 89 -24.5t72.5 -59.5t48 -75 t17.5 -73q0 -43 -19.5 -85t-54.5 -75.5t-81 -54t-101 -20.5q-37 0 -73 8t-63.5 25.5t-44 44t-16.5 61.5zM2341 131q0 39 8 95.5t32.5 107.5t68.5 88t116 37q47 0 89 -24.5t73 -59.5t48 -75t17 -73q0 -43 -19 -85t-54 -75.5t-81 -54t-102 -20.5q-37 0 -72.5 8t-63 25.5 t-44 44t-16.5 61.5z" />
<glyph unicode="&#x202f;" horiz-adv-x="722" />
<glyph unicode="&#x205f;" horiz-adv-x="903" />
<glyph unicode="&#x2122;" horiz-adv-x="4601" d="M37 1528q0 53 60.5 89t154.5 56.5t208.5 29.5t223.5 11t197 1t131 -1q27 0 106.5 -2t185 -9t220 -19.5t211 -33t159 -51t62.5 -71.5v-68q-6 0 -23.5 1t-37 2t-37 2t-23.5 1q-14 2 -56 7.5t-98.5 11.5t-121 14t-121 14.5t-98.5 10.5t-56 4q-12 0 -38.5 -7.5t-55.5 -16.5 t-55.5 -20t-34.5 -18q-16 -172 -21.5 -358t-13.5 -374.5t-25.5 -375t-60.5 -358.5q-4 0 -15.5 -1t-15.5 -1q-27 0 -59.5 13.5t-32.5 49.5v1467h-819zM1761 635v98q2 33 6.5 99.5t10.5 151.5t12 177t12 177t11.5 151.5t9.5 99.5q2 66 46 111t105 45v-707q61 18 107.5 72.5 t85.5 123.5t74.5 143.5t78.5 137t98.5 102.5t131.5 40q92 0 164.5 -45t127 -118t93.5 -166t62.5 -189.5t34.5 -186.5t13 -157q68 55 126.5 126.5t112.5 147.5t110.5 147.5t123 129t147.5 92.5t183 35q70 0 121 -24t86 -66t56.5 -98t33.5 -124q6 -33 16.5 -99.5t22.5 -151.5 t25.5 -177t25 -177t20.5 -151.5t13 -99.5q16 -47 52 -57t77 -10q10 0 30.5 2t22.5 4v-183q-4 -4 -19.5 -13t-34.5 -18.5t-37.5 -18.5t-29.5 -11q-4 0 -15 -1t-19 -1q-31 0 -67 27.5t-66.5 66.5t-52 81t-25.5 71l-121 917q-6 49 -17.5 76t-29 39t-43 14t-62.5 2 q-131 0 -227 -77.5t-170 -195.5t-130 -254t-108.5 -254t-105.5 -195.5t-119 -77.5q-37 0 -57.5 53t-31.5 139t-16 197.5t-13.5 226.5t-21.5 226.5t-41 197.5t-73 139t-114 53q-61 0 -124 -58t-117 -138t-95 -163t-58 -132q-10 -31 -30.5 -93.5t-45 -140t-51 -164.5t-50 -165 t-42 -140.5t-24.5 -91.5q-18 -37 -39 -51t-54 -14q-4 0 -16 2t-14 2q-18 90 -29.5 155.5t-19 121t-10.5 110.5t-3 125z" />
<glyph unicode="&#xe000;" horiz-adv-x="1525" d="M0 0v1526h1526v-1526h-1526z" />
<glyph unicode="&#xfb01;" horiz-adv-x="1851" d="M59 834q0 98 19.5 165.5t62.5 116.5t114 87t173 81q2 29 10 91.5t19.5 141t25 164.5t26.5 165t23.5 140.5t18.5 92.5q14 57 43 123.5t72 123t99 93.5t124 37q102 0 165.5 -54.5t99.5 -135.5t49.5 -174t13.5 -169q-51 0 -82 18.5t-50.5 48t-32 66.5t-28.5 75t-41 71.5 t-65 58.5q-90 -68 -140.5 -157t-74 -189t-28.5 -206.5t-5 -211.5q0 -12 1 -43t1 -64.5t1 -63.5t1 -42q109 -31 224.5 -46t232 -21.5t233.5 -3t225 9.5l123 -123l-61 -62h-949v-794q0 -25 -29.5 -66t-71.5 -81t-89 -69.5t-80 -29.5q-92 0 -155.5 44t-104.5 116.5t-64.5 163 t-34 183.5t-12.5 179.5t-2 149.5zM239 582q-1 -41 1 -92.5t9 -105.5t25.5 -100t48 -75t78.5 -29q43 0 65.5 35t22.5 90v762q-76 0 -142 -39t-101 -110q-2 -16 -3 -55.5t-2 -83.5t-1 -83v-55q0 -18 -1 -59zM1474 693q0 126 14.5 243.5t48 209t97.5 127.5q39 -29 50 -50 t10 -42.5t-7 -46t-2 -61.5q-10 -59 -6 -144.5t11 -181.5t12.5 -194.5t0 -183.5t-28 -149.5t-71.5 -88.5q-35 8 -54.5 16t-28.5 17.5t-12 23t-5 31.5l-8 69q-7 68 -14 173.5t-7 231.5zM1493.5 1517q-5.5 33 21.5 56.5t107 17.5q16 -96 0.5 -131t-42 -33t-54 29.5t-33 60.5z " />
<glyph unicode="&#xfb02;" horiz-adv-x="2222" d="M59 834q0 98 19.5 165.5t62.5 116.5t114 87t173 81q2 29 10 91.5t19.5 141t25 164.5t26.5 165t23.5 140.5t18.5 92.5q14 57 43 123.5t72 123t99 93.5t124 37q102 0 165.5 -54.5t99.5 -135.5t49.5 -174t13.5 -169q-51 0 -82 18.5t-50.5 48t-32 66.5t-28.5 75t-41 71.5 t-65 58.5q-90 -68 -140.5 -157t-74 -189t-28.5 -206.5t-5 -211.5q0 -12 1 -43t1 -64.5t1 -63.5t1 -42q109 -31 224.5 -46t232 -21.5t233.5 -3t225 9.5l123 -123l-61 -62h-949v-794q0 -25 -29.5 -66t-71.5 -81t-89 -69.5t-80 -29.5q-92 0 -155.5 44t-104.5 116.5t-64.5 163 t-34 183.5t-12.5 179.5t-2 149.5zM239 582q-1 -41 1 -92.5t9 -105.5t25.5 -100t48 -75t78.5 -29q43 0 65.5 35t22.5 90v762q-76 0 -142 -39t-101 -110q-2 -16 -3 -55.5t-2 -83.5t-1 -83v-55q0 -18 -1 -59zM1454 547v1284q0 47 19.5 78t50.5 49t69 26.5t74 8.5v-1569 q0 -23 32 -63.5t73 -81.5t81 -72t56 -31q113 0 177.5 16.5t107.5 51.5t78.5 91t89.5 134l90 -90q-37 -82 -63.5 -142.5t-56.5 -103.5t-64.5 -70.5t-86 -43t-124 -20.5t-175.5 -5q-90 0 -168.5 56.5t-136 140.5t-90.5 180t-33 176z" />
</font>
</defs>
</svg>
